<svg width="472" height="426" viewBox="0 0 472 426" fill="none" xmlns="http://www.w3.org/2000/svg">
<g clip-path="url(#clip0)">
<path d="M418.94 197.78H36.8V220H418.94V197.78Z" fill="#455A64"/>
<path d="M36.81 190.08H22.8V227.06H36.81V190.08Z" fill="#263238"/>
<path d="M36.81 218.83C34.5167 219.093 32.2066 219.18 29.9 219.09C27.5934 219.18 25.2833 219.093 22.99 218.83C25.2837 218.573 27.5934 218.486 29.9 218.57C32.2066 218.486 34.5162 218.573 36.81 218.83Z" fill="#455A64"/>
<path d="M36.81 214.83C34.5167 215.093 32.2066 215.18 29.9 215.09C27.5934 215.18 25.2833 215.093 22.99 214.83C25.2837 214.573 27.5934 214.486 29.9 214.57C32.2066 214.486 34.5162 214.573 36.81 214.83Z" fill="#455A64"/>
<path d="M36.81 210.83C34.5167 211.093 32.2066 211.18 29.9 211.09C27.5934 211.18 25.2833 211.093 22.99 210.83C25.2837 210.573 27.5934 210.486 29.9 210.57C32.2066 210.486 34.5162 210.573 36.81 210.83Z" fill="#455A64"/>
<path d="M36.81 206.83C34.5162 207.087 32.2066 207.174 29.9 207.09C27.5934 207.174 25.2837 207.087 22.99 206.83C25.2837 206.573 27.5934 206.486 29.9 206.57C32.2066 206.486 34.5162 206.573 36.81 206.83Z" fill="#455A64"/>
<path d="M36.81 202.83C34.5162 203.087 32.2066 203.174 29.9 203.09C27.5934 203.174 25.2837 203.087 22.99 202.83C25.2837 202.573 27.5934 202.486 29.9 202.57C32.2066 202.486 34.5162 202.573 36.81 202.83Z" fill="#455A64"/>
<path d="M36.81 198.83C34.5162 199.087 32.2066 199.174 29.9 199.09C27.5934 199.174 25.2837 199.087 22.99 198.83C25.2833 198.567 27.5934 198.48 29.9 198.57C32.2066 198.48 34.5167 198.567 36.81 198.83Z" fill="#455A64"/>
<path d="M36.81 194.83C34.5162 195.087 32.2066 195.174 29.9 195.09C27.5934 195.174 25.2837 195.087 22.99 194.83C25.2833 194.567 27.5934 194.48 29.9 194.57C32.2066 194.48 34.5167 194.567 36.81 194.83Z" fill="#455A64"/>
<path d="M36.81 223.01C34.5162 223.267 32.2066 223.354 29.9 223.27C27.5934 223.354 25.2837 223.267 22.99 223.01C25.2833 222.747 27.5934 222.66 29.9 222.75C32.2066 222.66 34.5167 222.747 36.81 223.01Z" fill="#455A64"/>
<path d="M429.98 190.08H415.97V227.06H429.98V190.08Z" fill="#263238"/>
<path d="M429.98 218.83C425.38 219.177 420.76 219.177 416.16 218.83C420.76 218.484 425.38 218.484 429.98 218.83Z" fill="#455A64"/>
<path d="M429.98 214.83C425.38 215.177 420.76 215.177 416.16 214.83C420.76 214.484 425.38 214.484 429.98 214.83Z" fill="#455A64"/>
<path d="M429.98 210.83C425.38 211.176 420.76 211.176 416.16 210.83C420.76 210.483 425.38 210.483 429.98 210.83Z" fill="#455A64"/>
<path d="M429.98 206.83C425.38 207.176 420.76 207.176 416.16 206.83C420.76 206.483 425.38 206.483 429.98 206.83Z" fill="#455A64"/>
<path d="M429.98 202.83C425.38 203.176 420.76 203.176 416.16 202.83C420.76 202.484 425.38 202.484 429.98 202.83Z" fill="#455A64"/>
<path d="M429.98 198.83C425.38 199.176 420.76 199.176 416.16 198.83C420.76 198.484 425.38 198.484 429.98 198.83Z" fill="#455A64"/>
<path d="M429.98 194.83C425.38 195.176 420.76 195.176 416.16 194.83C420.76 194.484 425.38 194.484 429.98 194.83Z" fill="#455A64"/>
<path d="M429.98 223.01C425.38 223.357 420.76 223.357 416.16 223.01C420.76 222.664 425.38 222.664 429.98 223.01Z" fill="#455A64"/>
<path d="M385.12 175.07H67.65V183.75H385.12V175.07Z" fill="#E0E0E0"/>
<path d="M61.1 201.15V184.49H93.27V192.82H190.81C191.908 192.821 192.995 193.039 194.008 193.46C195.022 193.882 195.943 194.498 196.718 195.276C197.494 196.053 198.109 196.975 198.527 197.99C198.946 199.005 199.161 200.092 199.16 201.19V222.19H217.59V201.19C217.59 199.463 218.276 197.806 219.496 196.583C220.717 195.361 222.373 194.673 224.1 194.67C224.955 194.671 225.801 194.841 226.591 195.169C227.38 195.498 228.097 195.978 228.7 196.584C229.304 197.189 229.782 197.908 230.108 198.698C230.434 199.488 230.601 200.335 230.6 201.19V223.19H249.75V202.25C249.749 200.871 250.019 199.505 250.545 198.231C251.072 196.957 251.844 195.798 252.818 194.822C253.792 193.847 254.949 193.072 256.223 192.543C257.496 192.014 258.861 191.741 260.24 191.74H354.92V182.32H391.06V234.82H61.06L61.1 201.15Z" fill="#263238"/>
<path d="M45.11 399.94L45.53 424.27H406.69L407.3 399.94L391.66 297.02L391.11 216.68L60.67 215.7V300.7L45.11 399.94Z" fill="#E8505B"/>
<g opacity="0.4">
<path opacity="0.4" d="M75.67 304.11L65.17 384.87H381.82L372.47 304.11H75.67Z" fill="black"/>
</g>
<path d="M393.56 263.55H56.55C54.3298 263.55 52.53 265.35 52.53 267.57V267.97C52.53 270.19 54.3298 271.99 56.55 271.99H393.56C395.78 271.99 397.58 270.19 397.58 267.97V267.57C397.58 265.35 395.78 263.55 393.56 263.55Z" fill="#E0E0E0"/>
<path d="M292.55 331.06H288.96V384.87H292.55V331.06Z" fill="#E0E0E0"/>
<path d="M300.75 331.67C297.706 333.372 294.277 334.265 290.79 334.265C287.303 334.265 283.874 333.372 280.83 331.67V323.76H300.75V331.67Z" fill="#263238"/>
<path d="M300.98 324.29C300.98 326.03 296.4 327.45 290.75 327.45C285.1 327.45 280.52 326.03 280.52 324.29C280.52 322.55 285.1 321.14 290.75 321.14C296.4 321.14 300.98 322.55 300.98 324.29Z" fill="#455A64"/>
<path d="M94.1 314.51H90.51V384.6H94.1V314.51Z" fill="#E0E0E0"/>
<path d="M102.27 315.12C99.2262 316.822 95.7972 317.715 92.31 317.715C88.8228 317.715 85.3938 316.822 82.35 315.12V307.21H102.27V315.12Z" fill="#263238"/>
<path d="M102.54 307.74C102.54 309.48 97.96 310.9 92.31 310.9C86.66 310.9 82.08 309.48 82.08 307.74C82.08 306 86.66 304.59 92.31 304.59C97.96 304.59 102.54 306 102.54 307.74Z" fill="#455A64"/>
<path d="M107.54 331.53H103.95V385.34H107.54V331.53Z" fill="#E0E0E0"/>
<path d="M115.75 332.15C112.706 333.852 109.277 334.745 105.79 334.745C102.303 334.745 98.8738 333.852 95.83 332.15V324.24H115.75V332.15Z" fill="#263238"/>
<path d="M105.75 327.92C111.4 327.92 115.98 326.51 115.98 324.77C115.98 323.03 111.4 321.62 105.75 321.62C100.1 321.62 95.52 323.03 95.52 324.77C95.52 326.51 100.1 327.92 105.75 327.92Z" fill="#455A64"/>
<path d="M102.27 347.95C99.2247 349.647 95.7963 350.538 92.31 350.538C88.8237 350.538 85.3953 349.647 82.35 347.95V340.04H102.27V347.95Z" fill="#263238"/>
<path d="M102.54 340.57C102.54 342.31 97.96 343.72 92.31 343.72C86.66 343.72 82.08 342.31 82.08 340.57C82.08 338.83 86.66 337.38 92.31 337.38C97.96 337.38 102.54 338.82 102.54 340.57Z" fill="#455A64"/>
<path d="M133.18 331.53H129.59V385.34H133.18V331.53Z" fill="#E0E0E0"/>
<path d="M141.34 332.15C138.298 333.852 134.871 334.745 131.385 334.745C127.899 334.745 124.472 333.852 121.43 332.15V324.24H141.34V332.15Z" fill="#263238"/>
<path d="M131.38 327.92C137.03 327.92 141.61 326.51 141.61 324.77C141.61 323.03 137.03 321.62 131.38 321.62C125.73 321.62 121.15 323.03 121.15 324.77C121.15 326.51 125.73 327.92 131.38 327.92Z" fill="#455A64"/>
<path d="M160.03 331.53H156.44V385.34H160.03V331.53Z" fill="#E0E0E0"/>
<path d="M168.19 332.15C165.146 333.852 161.717 334.745 158.23 334.745C154.743 334.745 151.314 333.852 148.27 332.15V324.24H168.19V332.15Z" fill="#263238"/>
<path d="M158.23 327.92C163.88 327.92 168.46 326.51 168.46 324.77C168.46 323.03 163.88 321.62 158.23 321.62C152.58 321.62 148 323.03 148 324.77C148 326.51 152.58 327.92 158.23 327.92Z" fill="#455A64"/>
<path d="M186.49 331.53H182.9V385.34H186.49V331.53Z" fill="#E0E0E0"/>
<path d="M194.65 332.15C191.608 333.852 188.181 334.745 184.695 334.745C181.209 334.745 177.782 333.852 174.74 332.15V324.24H194.65V332.15Z" fill="#263238"/>
<path d="M184.7 327.92C190.35 327.92 194.93 326.51 194.93 324.77C194.93 323.03 190.35 321.62 184.7 321.62C179.05 321.62 174.47 323.03 174.47 324.77C174.47 326.51 179.05 327.92 184.7 327.92Z" fill="#455A64"/>
<path d="M212.65 331.53H209.06V385.34H212.65V331.53Z" fill="#E0E0E0"/>
<path d="M220.81 332.15C217.768 333.852 214.341 334.745 210.855 334.745C207.369 334.745 203.942 333.852 200.9 332.15V324.24H220.81V332.15Z" fill="#263238"/>
<path d="M210.85 327.92C216.5 327.92 221.08 326.51 221.08 324.77C221.08 323.03 216.5 321.62 210.85 321.62C205.2 321.62 200.62 323.03 200.62 324.77C200.62 326.51 205.2 327.92 210.85 327.92Z" fill="#455A64"/>
<path d="M239.23 331.53H235.64V385.34H239.23V331.53Z" fill="#E0E0E0"/>
<path d="M247.39 332.15C244.348 333.852 240.921 334.745 237.435 334.745C233.949 334.745 230.522 333.852 227.48 332.15V324.24H247.39V332.15Z" fill="#263238"/>
<path d="M237.44 327.92C243.09 327.92 247.67 326.51 247.67 324.77C247.67 323.03 243.09 321.62 237.44 321.62C231.79 321.62 227.21 323.03 227.21 324.77C227.21 326.51 231.79 327.92 237.44 327.92Z" fill="#455A64"/>
<path d="M265.96 331.53H262.37V385.34H265.96V331.53Z" fill="#E0E0E0"/>
<path d="M274.13 332.15C271.086 333.852 267.657 334.745 264.17 334.745C260.683 334.745 257.254 333.852 254.21 332.15V324.24H274.13V332.15Z" fill="#263238"/>
<path d="M264.17 327.92C269.82 327.92 274.4 326.51 274.4 324.77C274.4 323.03 269.82 321.62 264.17 321.62C258.52 321.62 253.94 323.03 253.94 324.77C253.94 326.51 258.52 327.92 264.17 327.92Z" fill="#455A64"/>
<path d="M319.43 331.53H315.84V385.34H319.43V331.53Z" fill="#E0E0E0"/>
<path d="M327.59 332.15C324.548 333.852 321.121 334.745 317.635 334.745C314.149 334.745 310.722 333.852 307.68 332.15V324.24H327.59V332.15Z" fill="#263238"/>
<path d="M317.63 327.92C323.28 327.92 327.86 326.51 327.86 324.77C327.86 323.03 323.28 321.62 317.63 321.62C311.98 321.62 307.4 323.03 307.4 324.77C307.4 326.51 311.98 327.92 317.63 327.92Z" fill="#455A64"/>
<path d="M346.46 331.53H342.87V385.34H346.46V331.53Z" fill="#E0E0E0"/>
<path d="M354.62 332.15C351.578 333.852 348.151 334.745 344.665 334.745C341.179 334.745 337.752 333.852 334.71 332.15V324.24H354.62V332.15Z" fill="#263238"/>
<path d="M344.66 327.92C350.31 327.92 354.89 326.51 354.89 324.77C354.89 323.03 350.31 321.62 344.66 321.62C339.01 321.62 334.43 323.03 334.43 324.77C334.43 326.51 339.01 327.92 344.66 327.92Z" fill="#455A64"/>
<path d="M120.6 314.51H117.01V384.6H120.6V314.51Z" fill="#E0E0E0"/>
<path d="M128.75 315.12C125.708 316.822 122.281 317.715 118.795 317.715C115.309 317.715 111.882 316.822 108.84 315.12V307.21H128.75V315.12Z" fill="#263238"/>
<path d="M129.04 307.74C129.04 309.48 124.46 310.9 118.81 310.9C113.16 310.9 108.58 309.48 108.58 307.74C108.58 306 113.16 304.59 118.81 304.59C124.46 304.59 129.04 306 129.04 307.74Z" fill="#455A64"/>
<path d="M147.1 314.51H143.51V384.6H147.1V314.51Z" fill="#E0E0E0"/>
<path d="M155.26 315.12C152.218 316.822 148.791 317.715 145.305 317.715C141.819 317.715 138.392 316.822 135.35 315.12V307.21H155.26V315.12Z" fill="#263238"/>
<path d="M155.53 307.74C155.53 309.48 150.95 310.9 145.3 310.9C139.65 310.9 135.07 309.48 135.07 307.74C135.07 306 139.65 304.59 145.3 304.59C150.95 304.59 155.53 306 155.53 307.74Z" fill="#455A64"/>
<path d="M173.6 314.51H170.01V384.6H173.6V314.51Z" fill="#E0E0E0"/>
<path d="M181.75 315.12C178.708 316.822 175.281 317.715 171.795 317.715C168.309 317.715 164.882 316.822 161.84 315.12V307.21H181.75V315.12Z" fill="#263238"/>
<path d="M182.03 307.74C182.03 309.48 177.45 310.9 171.8 310.9C166.15 310.9 161.57 309.48 161.57 307.74C161.57 306 166.15 304.59 171.8 304.59C177.45 304.59 182.03 306 182.03 307.74Z" fill="#455A64"/>
<path d="M200.09 314.51H196.5V384.6H200.09V314.51Z" fill="#E0E0E0"/>
<path d="M208.26 315.12C205.216 316.822 201.787 317.715 198.3 317.715C194.813 317.715 191.384 316.822 188.34 315.12V307.21H208.26V315.12Z" fill="#263238"/>
<path d="M208.53 307.74C208.53 309.48 203.95 310.9 198.3 310.9C192.65 310.9 188.07 309.48 188.07 307.74C188.07 306 192.65 304.59 198.3 304.59C203.95 304.59 208.53 306 208.53 307.74Z" fill="#455A64"/>
<path d="M226.59 314.51H223V384.6H226.59V314.51Z" fill="#E0E0E0"/>
<path d="M234.75 315.12C231.706 316.822 228.277 317.715 224.79 317.715C221.303 317.715 217.874 316.822 214.83 315.12V307.21H234.75V315.12Z" fill="#263238"/>
<path d="M235.03 307.74C235.03 309.48 230.45 310.9 224.8 310.9C219.15 310.9 214.57 309.48 214.57 307.74C214.57 306 219.15 304.59 224.8 304.59C230.45 304.59 235.03 306 235.03 307.74Z" fill="#455A64"/>
<path d="M253.09 314.51H249.5V384.6H253.09V314.51Z" fill="#E0E0E0"/>
<path d="M261.25 315.12C258.208 316.822 254.781 317.715 251.295 317.715C247.809 317.715 244.382 316.822 241.34 315.12V307.21H261.25V315.12Z" fill="#263238"/>
<path d="M261.53 307.74C261.53 309.48 256.95 310.9 251.3 310.9C245.65 310.9 241.07 309.48 241.07 307.74C241.07 306 245.65 304.59 251.3 304.59C256.95 304.59 261.53 306 261.53 307.74Z" fill="#455A64"/>
<path d="M279.59 314.51H276V384.6H279.59V314.51Z" fill="#E0E0E0"/>
<path d="M287.75 315.12C284.708 316.822 281.281 317.715 277.795 317.715C274.309 317.715 270.882 316.822 267.84 315.12V307.21H287.75V315.12Z" fill="#263238"/>
<path d="M288.02 307.74C288.02 309.48 283.44 310.9 277.79 310.9C272.14 310.9 267.56 309.48 267.56 307.74C267.56 306 272.14 304.59 277.79 304.59C283.44 304.59 288.02 306 288.02 307.74Z" fill="#455A64"/>
<path d="M306.09 314.51H302.5V384.6H306.09V314.51Z" fill="#E0E0E0"/>
<path d="M314.25 315.12C311.208 316.822 307.781 317.715 304.295 317.715C300.809 317.715 297.382 316.822 294.34 315.12V307.21H314.25V315.12Z" fill="#263238"/>
<path d="M314.52 307.74C314.52 309.48 309.94 310.9 304.29 310.9C298.64 310.9 294.06 309.48 294.06 307.74C294.06 306 298.64 304.59 304.29 304.59C309.94 304.59 314.52 306 314.52 307.74Z" fill="#455A64"/>
<path d="M332.58 314.51H328.99V384.6H332.58V314.51Z" fill="#E0E0E0"/>
<path d="M340.75 315.12C337.706 316.822 334.277 317.715 330.79 317.715C327.303 317.715 323.874 316.822 320.83 315.12V307.21H340.75V315.12Z" fill="#263238"/>
<path d="M341.02 307.74C341.02 309.48 336.44 310.9 330.79 310.9C325.14 310.9 320.56 309.48 320.56 307.74C320.56 306 325.14 304.59 330.79 304.59C336.44 304.59 341.02 306 341.02 307.74Z" fill="#455A64"/>
<path d="M359.08 314.51H355.49V384.6H359.08V314.51Z" fill="#E0E0E0"/>
<path d="M367.25 315.12C364.206 316.822 360.777 317.715 357.29 317.715C353.803 317.715 350.374 316.822 347.33 315.12V307.21H367.25V315.12Z" fill="#263238"/>
<path d="M367.52 307.74C367.52 309.48 362.94 310.9 357.29 310.9C351.64 310.9 347.06 309.48 347.06 307.74C347.06 306 351.64 304.59 357.29 304.59C362.94 304.59 367.52 306 367.52 307.74Z" fill="#455A64"/>
<path d="M128.88 363.28C125.836 364.982 122.407 365.875 118.92 365.875C115.433 365.875 112.004 364.982 108.96 363.28V355.38H128.88V363.28Z" fill="#263238"/>
<path d="M129.15 355.9C129.15 357.64 124.57 359.05 118.92 359.05C113.27 359.05 108.69 357.64 108.69 355.9C108.69 354.16 113.27 352.74 118.92 352.74C124.57 352.74 129.15 354.16 129.15 355.9Z" fill="#455A64"/>
<path d="M115.43 376.92C112.388 378.622 108.961 379.515 105.475 379.515C101.989 379.515 98.562 378.622 95.52 376.92V369.01H115.43V376.92Z" fill="#263238"/>
<path d="M105.48 372.69C111.13 372.69 115.71 371.28 115.71 369.54C115.71 367.8 111.13 366.39 105.48 366.39C99.8301 366.39 95.25 367.8 95.25 369.54C95.25 371.28 99.8301 372.69 105.48 372.69Z" fill="#455A64"/>
<path d="M141.42 376.67C138.375 378.367 134.946 379.258 131.46 379.258C127.974 379.258 124.545 378.367 121.5 376.67V368.75H141.42V376.67Z" fill="#263238"/>
<path d="M141.69 369.28C141.69 371.02 137.11 372.44 131.46 372.44C125.81 372.44 121.23 371.02 121.23 369.28C121.23 367.54 125.81 366.13 131.46 366.13C137.11 366.13 141.69 367.54 141.69 369.28Z" fill="#455A64"/>
<path d="M167.4 363.79C164.358 365.492 160.931 366.385 157.445 366.385C153.959 366.385 150.532 365.492 147.49 363.79V355.88H167.4V363.79Z" fill="#263238"/>
<path d="M167.68 356.38C167.68 358.12 163.1 359.53 157.45 359.53C151.8 359.53 147.22 358.12 147.22 356.38C147.22 354.64 151.8 353.23 157.45 353.23C163.1 353.23 167.68 354.67 167.68 356.38Z" fill="#455A64"/>
<path d="M194.65 363.54C191.607 365.237 188.18 366.128 184.695 366.128C181.21 366.128 177.783 365.237 174.74 363.54V355.63H194.65V363.54Z" fill="#263238"/>
<path d="M194.93 356.15C194.93 357.9 190.35 359.31 184.7 359.31C179.05 359.31 174.47 357.9 174.47 356.15C174.47 354.4 179.05 353 184.7 353C190.35 353 194.93 354.38 194.93 356.15Z" fill="#455A64"/>
<path d="M220.81 363.54C217.767 365.237 214.34 366.128 210.855 366.128C207.37 366.128 203.943 365.237 200.9 363.54V355.63H220.81V363.54Z" fill="#263238"/>
<path d="M221.08 356.15C221.08 357.9 216.5 359.31 210.85 359.31C205.2 359.31 200.62 357.9 200.62 356.15C200.62 354.4 205.2 353 210.85 353C216.5 353 221.08 354.38 221.08 356.15Z" fill="#455A64"/>
<path d="M247.84 363.54C244.797 365.237 241.37 366.128 237.885 366.128C234.4 366.128 230.973 365.237 227.93 363.54V355.63H247.84V363.54Z" fill="#263238"/>
<path d="M248.11 356.15C248.11 357.9 243.53 359.31 237.88 359.31C232.23 359.31 227.65 357.9 227.65 356.15C227.65 354.4 232.23 353 237.88 353C243.53 353 248.11 354.38 248.11 356.15Z" fill="#455A64"/>
<path d="M274.28 376.92C271.236 378.622 267.807 379.515 264.32 379.515C260.833 379.515 257.404 378.622 254.36 376.92V369.01H274.28V376.92Z" fill="#263238"/>
<path d="M264.32 372.69C269.97 372.69 274.55 371.28 274.55 369.54C274.55 367.8 269.97 366.39 264.32 366.39C258.67 366.39 254.09 367.8 254.09 369.54C254.09 371.28 258.67 372.69 264.32 372.69Z" fill="#455A64"/>
<path d="M300.75 363.54C297.705 365.237 294.276 366.128 290.79 366.128C287.304 366.128 283.875 365.237 280.83 363.54V355.63H300.75V363.54Z" fill="#263238"/>
<path d="M300.98 356.15C300.98 357.9 296.4 359.31 290.75 359.31C285.1 359.31 280.52 357.9 280.52 356.15C280.52 354.4 285.1 353 290.75 353C296.4 353 300.98 354.38 300.98 356.15Z" fill="#455A64"/>
<path d="M327.59 373.51C324.548 375.212 321.121 376.105 317.635 376.105C314.149 376.105 310.722 375.212 307.68 373.51V365.6H327.59V373.51Z" fill="#263238"/>
<path d="M327.86 366.13C327.86 367.87 323.28 369.28 317.63 369.28C311.98 369.28 307.4 367.87 307.4 366.13C307.4 364.39 311.98 362.97 317.63 362.97C323.28 362.97 327.86 364.38 327.86 366.13Z" fill="#455A64"/>
<path d="M356.42 380.08C353.375 381.777 349.946 382.668 346.46 382.668C342.974 382.668 339.545 381.777 336.5 380.08V372.16H356.42V380.08Z" fill="#263238"/>
<path d="M356.69 372.69C356.69 374.43 352.11 375.85 346.46 375.85C340.81 375.85 336.23 374.43 336.23 372.69C336.23 370.95 340.81 369.54 346.46 369.54C352.11 369.54 356.69 370.95 356.69 372.69Z" fill="#455A64"/>
<path d="M155.49 347.95C152.447 349.647 149.02 350.538 145.535 350.538C142.05 350.538 138.623 349.647 135.58 347.95V340.04H155.49V347.95Z" fill="#263238"/>
<path d="M155.75 340.57C155.75 342.31 151.17 343.72 145.52 343.72C139.87 343.72 135.29 342.31 135.29 340.57C135.29 338.83 139.87 337.41 145.52 337.41C151.17 337.41 155.75 338.82 155.75 340.57Z" fill="#455A64"/>
<path d="M182.1 347.95C179.057 349.647 175.63 350.538 172.145 350.538C168.66 350.538 165.233 349.647 162.19 347.95V340.04H182.1V347.95Z" fill="#263238"/>
<path d="M182.37 340.57C182.37 342.31 177.79 343.72 172.14 343.72C166.49 343.72 161.91 342.31 161.91 340.57C161.91 338.83 166.49 337.41 172.14 337.41C177.79 337.41 182.37 338.82 182.37 340.57Z" fill="#455A64"/>
<path d="M208.26 347.95C205.215 349.647 201.786 350.538 198.3 350.538C194.814 350.538 191.385 349.647 188.34 347.95V340.04H208.26V347.95Z" fill="#263238"/>
<path d="M208.53 340.57C208.53 342.31 203.95 343.72 198.3 343.72C192.65 343.72 188.07 342.31 188.07 340.57C188.07 338.83 192.65 337.38 198.3 337.38C203.95 337.38 208.53 338.82 208.53 340.57Z" fill="#455A64"/>
<path d="M233.8 347.95C230.755 349.647 227.326 350.538 223.84 350.538C220.354 350.538 216.925 349.647 213.88 347.95V340.04H233.8V347.95Z" fill="#263238"/>
<path d="M234.07 340.57C234.07 342.31 229.49 343.72 223.84 343.72C218.19 343.72 213.61 342.31 213.61 340.57C213.61 338.83 218.19 337.41 223.84 337.41C229.49 337.41 234.07 338.82 234.07 340.57Z" fill="#455A64"/>
<path d="M260.38 347.95C257.335 349.647 253.906 350.538 250.42 350.538C246.934 350.538 243.505 349.647 240.46 347.95V340.04H260.38V347.95Z" fill="#263238"/>
<path d="M260.65 340.57C260.65 342.31 256.07 343.72 250.42 343.72C244.77 343.72 240.19 342.31 240.19 340.57C240.19 338.83 244.75 337.38 250.42 337.38C256.09 337.38 260.65 338.82 260.65 340.57Z" fill="#455A64"/>
<path d="M287.31 347.95C284.267 349.647 280.84 350.538 277.355 350.538C273.87 350.538 270.443 349.647 267.4 347.95V340.04H287.31V347.95Z" fill="#263238"/>
<path d="M287.59 340.57C287.59 342.31 283.01 343.72 277.36 343.72C271.71 343.72 267.13 342.31 267.13 340.57C267.13 338.83 271.75 337.38 277.36 337.38C282.97 337.38 287.59 338.82 287.59 340.57Z" fill="#455A64"/>
<path d="M314.46 347.95C311.417 349.647 307.99 350.538 304.505 350.538C301.02 350.538 297.593 349.647 294.55 347.95V340.04H314.46V347.95Z" fill="#263238"/>
<path d="M314.75 340.57C314.75 342.31 310.17 343.72 304.52 343.72C298.87 343.72 294.29 342.31 294.29 340.57C294.29 338.83 298.87 337.41 304.52 337.41C310.17 337.41 314.75 338.82 314.75 340.57Z" fill="#455A64"/>
<path d="M340.75 357.23C337.705 358.927 334.276 359.818 330.79 359.818C327.304 359.818 323.875 358.927 320.83 357.23V349.32H340.75V357.23Z" fill="#263238"/>
<path d="M341.02 349.85C341.02 351.59 336.44 353 330.79 353C325.14 353 320.56 351.59 320.56 349.85C320.56 348.11 325.14 346.69 330.79 346.69C336.44 346.69 341.02 348.1 341.02 349.85Z" fill="#455A64"/>
<path d="M367.29 347.95C364.245 349.647 360.816 350.538 357.33 350.538C353.844 350.538 350.415 349.647 347.37 347.95V340.04H367.29V347.95Z" fill="#263238"/>
<path d="M367.56 340.57C367.56 342.31 362.98 343.72 357.33 343.72C351.68 343.72 347.1 342.31 347.1 340.57C347.1 338.83 351.68 337.41 357.33 337.41C362.98 337.41 367.56 338.82 367.56 340.57Z" fill="#455A64"/>
<path d="M251.23 238.49H201.98V245.71H251.23V238.49Z" fill="white"/>
<g opacity="0.4">
<path opacity="0.4" d="M60.54 271.99L391.55 280.84L391.49 271.99H60.54Z" fill="black"/>
</g>
<path d="M406.01 399.94C406.01 400.08 325.5 400.2 226.21 400.2C126.92 400.2 46.4 400.08 46.4 399.94C46.4 399.8 126.89 399.68 226.21 399.68C325.53 399.68 406.01 399.8 406.01 399.94Z" fill="#263238"/>
<path d="M75.67 304.11C75.67 304.11 75.67 304.61 75.51 305.57C75.35 306.53 75.22 307.97 74.99 309.83C74.51 313.57 73.82 319.06 72.93 326.08C71.13 340.14 68.53 360.33 65.38 384.89L65.17 384.66H182.77L323.52 384.73L366.18 384.82H377.78H380.78H381.78C381.78 384.82 381.43 384.82 380.78 384.82H377.78H366.18L323.52 384.9L182.75 385.13L65.15 385.08H64.91V384.84C68.14 360.29 70.8 340.11 72.65 326.05C73.58 319.05 74.31 313.55 74.81 309.81C75.07 307.96 75.26 306.53 75.4 305.56C75.54 304.59 75.67 304.11 75.67 304.11Z" fill="#263238"/>
</g>
<defs>
<clipPath id="clip0">
<rect width="471.49" height="425.34" fill="white"/>
</clipPath>
</defs>
</svg>
