<svg width="21" height="16" viewBox="0 0 21 16" fill="none" xmlns="http://www.w3.org/2000/svg">
<path d="M7.59 12.3L7.60001 15.48L0.420013 11.31L0.410004 8.13L7.59 12.3Z" fill="#A0A0A0"/>
<path d="M9.95999 10.93L18.32 6.09L18.34 6.11V9.25999L9.95999 14.11V14.09V10.93Z" fill="#373C48"/>
<path d="M18.32 6.09L20.52 4.82001L20.53 8L18.34 9.25999V6.11L18.32 6.09Z" fill="#CCCCCC"/>
<path d="M9.95999 10.93V14.09V14.11L7.60001 15.48L7.59 12.3L9.95999 10.93Z" fill="#CCCCCC"/>
<path d="M9.95999 10.93L7.59 12.3L0.410004 8.13L2.79999 6.75L9.95999 10.91V10.93Z" fill="#E0E0E0"/>
<path d="M9.95999 10.93V10.91L2.79999 6.75L11.14 1.92L18.32 6.09L9.95999 10.93Z" fill="#596177"/>
<path d="M11.14 1.92L13.35 0.649994L20.52 4.82001L18.32 6.09L11.14 1.92Z" fill="#E0E0E0"/>
</svg>
