<svg width="21" height="16" viewBox="0 0 21 16" fill="none" xmlns="http://www.w3.org/2000/svg">
<path d="M7.22 12.6L7.23001 15.78L0.0599976 11.61L0.0499878 8.42999L7.22 12.6Z" fill="#D4AA00"/>
<path d="M9.60001 11.23L17.95 6.39L17.98 6.41V9.57001L9.60001 14.41V14.39V11.23Z" fill="#0080FF"/>
<path d="M17.95 6.39L20.16 5.12L20.17 8.3L17.98 9.57001V6.41L17.95 6.39Z" fill="#FFE000"/>
<path d="M9.60001 11.23V14.39V14.41L7.23001 15.78L7.22 12.6L9.60001 11.23Z" fill="#FFE000"/>
<path d="M9.60001 11.23L7.22 12.6L0.0499878 8.42999L2.44 7.05L9.60001 11.21V11.23Z" fill="#FFF3C2"/>
<path d="M9.60001 11.23V11.21L2.44 7.05L10.78 2.23L17.95 6.39L9.60001 11.23Z" fill="#5CA6FF"/>
<path d="M10.78 2.23L12.98 0.949997L20.16 5.12L17.95 6.39L10.78 2.23Z" fill="#FFF3C2"/>
</svg>
