<svg width="109" height="65" viewBox="0 0 109 65" fill="none" xmlns="http://www.w3.org/2000/svg">
<path d="M41.86 7.25L39.58 5.92L37.64 7.05L39.93 8.37L41.86 7.25Z" fill="#CCCCCC"/>
<path d="M43.97 6.07L45.91 4.94L41.86 7.25L39.93 8.37L43.97 6.07Z" fill="#676767"/>
<path d="M49.27 9.13V9.68L51.2 8.56V8L49.27 9.13Z" fill="#CCCCCC"/>
<path d="M49.27 9.13L51.2 8L45.91 4.94L43.97 6.07L49.27 9.13Z" fill="#A0A0A0"/>
<path d="M43.97 6.07001L39.93 8.37001L37.64 7.05001V7.61001L40.12 9.04001L44.17 6.74001L49.27 9.68001V9.13001L43.97 6.07001Z" fill="#676767"/>
<path d="M38 9.49999L35.71 8.17999L33.77 9.30999L36.06 10.63L38 9.49999Z" fill="#CCCCCC"/>
<path d="M40.1 8.32L42.04 7.2L38 9.5L36.06 10.63L40.1 8.32Z" fill="#676767"/>
<path d="M45.4 11.38V11.94L47.34 10.81V10.26L45.4 11.38Z" fill="#CCCCCC"/>
<path d="M45.4 11.38L47.34 10.26L42.04 7.2L40.1 8.32L45.4 11.38Z" fill="#A0A0A0"/>
<path d="M40.1 8.31999L36.06 10.63L33.77 9.30999V9.85999L36.26 11.3L40.3 8.99999L45.4 11.94V11.38L40.1 8.31999Z" fill="#676767"/>
<path d="M34.12 11.76L31.83 10.44L29.89 11.57L32.18 12.89L34.12 11.76Z" fill="#CCCCCC"/>
<path d="M36.22 10.59L38.16 9.46L34.12 11.76L32.18 12.89L36.22 10.59Z" fill="#676767"/>
<path d="M41.52 13.65V14.2L43.46 13.08V12.52L41.52 13.65Z" fill="#CCCCCC"/>
<path d="M41.52 13.65L43.46 12.52L38.16 9.46L36.22 10.59L41.52 13.65Z" fill="#A0A0A0"/>
<path d="M36.22 10.59L32.18 12.89L29.89 11.57V12.13L32.38 13.56L36.42 11.26L41.52 14.2V13.65L36.22 10.59Z" fill="#676767"/>
<path d="M30.25 14.02L27.97 12.7L26.03 13.83L28.31 15.15L30.25 14.02Z" fill="#CCCCCC"/>
<path d="M32.36 12.84L34.29 11.72L30.25 14.02L28.31 15.15L32.36 12.84Z" fill="#676767"/>
<path d="M37.65 15.9V16.46L39.59 15.33V14.78L37.65 15.9Z" fill="#CCCCCC"/>
<path d="M37.65 15.9L39.59 14.78L34.29 11.72L32.36 12.84L37.65 15.9Z" fill="#A0A0A0"/>
<path d="M32.36 12.84L28.31 15.15L26.03 13.83V14.38L28.51 15.82L32.55 13.51L37.65 16.46V15.9L32.36 12.84Z" fill="#676767"/>
<path d="M26.36 16.28L24.08 14.96L22.14 16.08L24.43 17.4L26.36 16.28Z" fill="#CCCCCC"/>
<path d="M28.47 15.1L30.41 13.97L26.36 16.28L24.43 17.4L28.47 15.1Z" fill="#676767"/>
<path d="M33.77 18.16V18.71L35.7 17.59V17.03L33.77 18.16Z" fill="#CCCCCC"/>
<path d="M33.77 18.16L35.7 17.03L30.41 13.97L28.47 15.1L33.77 18.16Z" fill="#A0A0A0"/>
<path d="M28.47 15.1L24.43 17.4L22.14 16.08V16.64L24.62 18.07L28.67 15.77L33.77 18.71V18.16L28.47 15.1Z" fill="#676767"/>
<path d="M22.43 18.53L20.14 17.21L18.2 18.33L20.49 19.65L22.43 18.53Z" fill="#CCCCCC"/>
<path d="M24.53 17.35L26.47 16.22L22.43 18.53L20.49 19.65L24.53 17.35Z" fill="#676767"/>
<path d="M29.83 20.41V20.96L31.76 19.84L31.77 19.28L29.83 20.41Z" fill="#CCCCCC"/>
<path d="M29.83 20.41L31.77 19.28L26.47 16.22L24.53 17.35L29.83 20.41Z" fill="#A0A0A0"/>
<path d="M24.53 17.35L20.49 19.65L18.2 18.33V18.89L20.69 20.32L24.73 18.02L29.83 20.96V20.41L24.53 17.35Z" fill="#676767"/>
<path d="M18.55 20.79L16.26 19.47L14.32 20.59L16.61 21.91L18.55 20.79Z" fill="#CCCCCC"/>
<path d="M20.65 19.61L22.59 18.48L18.55 20.79L16.61 21.91L20.65 19.61Z" fill="#676767"/>
<path d="M25.95 22.67V23.22L27.88 22.1L27.89 21.54L25.95 22.67Z" fill="#CCCCCC"/>
<path d="M25.95 22.67L27.89 21.54L22.59 18.48L20.65 19.61L25.95 22.67Z" fill="#A0A0A0"/>
<path d="M20.65 19.61L16.61 21.91L14.32 20.59V21.15L16.81 22.58L20.85 20.28L25.95 23.22V22.67L20.65 19.61Z" fill="#676767"/>
<path d="M14.68 23.04L12.39 21.72L10.46 22.85L12.74 24.17L14.68 23.04Z" fill="#CCCCCC"/>
<path d="M16.79 21.86L18.72 20.74L14.68 23.04L12.74 24.17L16.79 21.86Z" fill="#676767"/>
<path d="M22.08 24.92V25.48L24.02 24.35V23.8L22.08 24.92Z" fill="#CCCCCC"/>
<path d="M22.08 24.92L24.02 23.8L18.72 20.74L16.79 21.86L22.08 24.92Z" fill="#A0A0A0"/>
<path d="M16.79 21.86L12.74 24.17L10.46 22.85V23.4L12.94 24.84L16.98 22.54L22.08 25.48V24.92L16.79 21.86Z" fill="#676767"/>
<path d="M10.79 25.3L8.50999 23.98L6.57001 25.1L8.86 26.42L10.79 25.3Z" fill="#CCCCCC"/>
<path d="M12.9 24.12L14.83 22.99L10.79 25.3L8.86 26.42L12.9 24.12Z" fill="#676767"/>
<path d="M18.2 27.18L18.19 27.74L20.13 26.61V26.05L18.2 27.18Z" fill="#CCCCCC"/>
<path d="M18.2 27.18L20.13 26.05L14.83 22.99L12.9 24.12L18.2 27.18Z" fill="#A0A0A0"/>
<path d="M12.9 24.12L8.86 26.42L6.57001 25.1V25.66L9.05 27.09L13.09 24.79L18.19 27.74L18.2 27.18L12.9 24.12Z" fill="#676767"/>
<path d="M6.85001 27.55L4.57 26.23L2.63 27.35L4.92 28.67L6.85001 27.55Z" fill="#CCCCCC"/>
<path d="M8.96001 26.37L10.9 25.24L6.85001 27.55L4.92 28.67L8.96001 26.37Z" fill="#676767"/>
<path d="M14.26 29.43V29.99L16.19 28.86V28.3L14.26 29.43Z" fill="#CCCCCC"/>
<path d="M14.26 29.43L16.19 28.3L10.9 25.24L8.96001 26.37L14.26 29.43Z" fill="#A0A0A0"/>
<path d="M8.96001 26.37L4.92 28.67L2.63 27.35V27.91L5.12 29.34L9.16 27.04L14.26 29.99V29.43L8.96001 26.37Z" fill="#676767"/>
<path d="M66.87 7.25L69.15 5.92L71.09 7.05L68.8 8.37L66.87 7.25Z" fill="#CCCCCC"/>
<path d="M64.76 6.07L62.82 4.94L66.87 7.25L68.8 8.37L64.76 6.07Z" fill="#676767"/>
<path d="M59.46 9.13V9.68L57.53 8.56V8L59.46 9.13Z" fill="#CCCCCC"/>
<path d="M59.46 9.13L57.53 8L62.82 4.94L64.76 6.07L59.46 9.13Z" fill="#A0A0A0"/>
<path d="M64.76 6.07001L68.8 8.37001L71.09 7.05001V7.61001L68.6 9.04001L64.56 6.74001L59.46 9.68001V9.13001L64.76 6.07001Z" fill="#676767"/>
<path d="M70.73 9.49999L73.02 8.17999L74.95 9.30999L72.67 10.63L70.73 9.49999Z" fill="#CCCCCC"/>
<path d="M68.63 8.32L66.69 7.2L70.73 9.5L72.67 10.63L68.63 8.32Z" fill="#676767"/>
<path d="M63.33 11.38V11.94L61.39 10.81V10.26L63.33 11.38Z" fill="#CCCCCC"/>
<path d="M63.33 11.38L61.39 10.26L66.69 7.2L68.63 8.32L63.33 11.38Z" fill="#A0A0A0"/>
<path d="M68.63 8.31999L72.67 10.63L74.95 9.30999L74.96 9.85999L72.47 11.3L68.43 8.99999L63.33 11.94V11.38L68.63 8.31999Z" fill="#676767"/>
<path d="M74.61 11.76L76.9 10.44L78.83 11.57L76.55 12.89L74.61 11.76Z" fill="#CCCCCC"/>
<path d="M72.51 10.59L70.57 9.46L74.61 11.76L76.55 12.89L72.51 10.59Z" fill="#676767"/>
<path d="M67.21 13.65V14.2L65.27 13.08V12.52L67.21 13.65Z" fill="#CCCCCC"/>
<path d="M67.21 13.65L65.27 12.52L70.57 9.46L72.51 10.59L67.21 13.65Z" fill="#A0A0A0"/>
<path d="M72.51 10.59L76.55 12.89L78.83 11.57L78.84 12.13L76.35 13.56L72.31 11.26L67.21 14.2V13.65L72.51 10.59Z" fill="#676767"/>
<path d="M78.48 14.02L80.76 12.7L82.7 13.83L80.41 15.15L78.48 14.02Z" fill="#CCCCCC"/>
<path d="M76.37 12.84L74.44 11.72L78.48 14.02L80.41 15.15L76.37 12.84Z" fill="#676767"/>
<path d="M71.07 15.9L71.08 16.46L69.14 15.33V14.78L71.07 15.9Z" fill="#CCCCCC"/>
<path d="M71.07 15.9L69.14 14.78L74.44 11.72L76.37 12.84L71.07 15.9Z" fill="#A0A0A0"/>
<path d="M76.37 12.84L80.41 15.15L82.7 13.83V14.38L80.22 15.82L76.17 13.51L71.08 16.46L71.07 15.9L76.37 12.84Z" fill="#676767"/>
<path d="M82.37 16.28L84.65 14.96L86.59 16.08L84.3 17.4L82.37 16.28Z" fill="#CCCCCC"/>
<path d="M80.26 15.1L78.32 13.97L82.37 16.28L84.3 17.4L80.26 15.1Z" fill="#676767"/>
<path d="M74.96 18.16V18.71L73.03 17.59L73.02 17.03L74.96 18.16Z" fill="#CCCCCC"/>
<path d="M74.96 18.16L73.02 17.03L78.32 13.97L80.26 15.1L74.96 18.16Z" fill="#A0A0A0"/>
<path d="M80.26 15.1L84.3 17.4L86.59 16.08V16.64L84.1 18.07L80.06 15.77L74.96 18.71V18.16L80.26 15.1Z" fill="#676767"/>
<path d="M86.3 18.53L88.59 17.21L90.53 18.33L88.24 19.65L86.3 18.53Z" fill="#CCCCCC"/>
<path d="M84.2 17.35L82.26 16.22L86.3 18.53L88.24 19.65L84.2 17.35Z" fill="#676767"/>
<path d="M78.9 20.41V20.96L76.96 19.84V19.28L78.9 20.41Z" fill="#CCCCCC"/>
<path d="M78.9 20.41L76.96 19.28L82.26 16.22L84.2 17.35L78.9 20.41Z" fill="#A0A0A0"/>
<path d="M84.2 17.35L88.24 19.65L90.53 18.33V18.89L88.04 20.32L84 18.02L78.9 20.96V20.41L84.2 17.35Z" fill="#676767"/>
<path d="M90.18 20.79L92.47 19.47L94.41 20.59L92.12 21.91L90.18 20.79Z" fill="#CCCCCC"/>
<path d="M88.08 19.61L86.14 18.48L90.18 20.79L92.12 21.91L88.08 19.61Z" fill="#676767"/>
<path d="M82.78 22.67V23.22L80.84 22.1V21.54L82.78 22.67Z" fill="#CCCCCC"/>
<path d="M82.78 22.67L80.84 21.54L86.14 18.48L88.08 19.61L82.78 22.67Z" fill="#A0A0A0"/>
<path d="M88.08 19.61L92.12 21.91L94.41 20.59V21.15L91.92 22.58L87.88 20.28L82.78 23.22V22.67L88.08 19.61Z" fill="#676767"/>
<path d="M94.05 23.04L96.34 21.72L98.27 22.85L95.99 24.17L94.05 23.04Z" fill="#CCCCCC"/>
<path d="M91.94 21.86L90.01 20.74L94.05 23.04L95.99 24.17L91.94 21.86Z" fill="#676767"/>
<path d="M86.65 24.92V25.48L84.71 24.35V23.8L86.65 24.92Z" fill="#CCCCCC"/>
<path d="M86.65 24.92L84.71 23.8L90.01 20.74L91.94 21.86L86.65 24.92Z" fill="#A0A0A0"/>
<path d="M91.94 21.86L95.99 24.17L98.27 22.85V23.4L95.79 24.84L91.75 22.54L86.65 25.48V24.92L91.94 21.86Z" fill="#676767"/>
<path d="M97.94 25.3L100.22 23.98L102.16 25.1L99.87 26.42L97.94 25.3Z" fill="#CCCCCC"/>
<path d="M95.83 24.12L93.9 22.99L97.94 25.3L99.87 26.42L95.83 24.12Z" fill="#676767"/>
<path d="M90.53 27.18L90.54 27.74L88.6 26.61V26.05L90.53 27.18Z" fill="#CCCCCC"/>
<path d="M90.53 27.18L88.6 26.05L93.9 22.99L95.83 24.12L90.53 27.18Z" fill="#A0A0A0"/>
<path d="M95.83 24.12L99.87 26.42L102.16 25.1V25.66L99.68 27.09L95.63 24.79L90.54 27.74L90.53 27.18L95.83 24.12Z" fill="#676767"/>
<path d="M101.87 27.55L104.16 26.23L106.1 27.35L103.81 28.67L101.87 27.55Z" fill="#CCCCCC"/>
<path d="M99.77 26.37L97.83 25.24L101.87 27.55L103.81 28.67L99.77 26.37Z" fill="#676767"/>
<path d="M94.47 29.43V29.99L92.54 28.86L92.53 28.3L94.47 29.43Z" fill="#CCCCCC"/>
<path d="M94.47 29.43L92.53 28.3L97.83 25.24L99.77 26.37L94.47 29.43Z" fill="#A0A0A0"/>
<path d="M99.77 26.37L103.81 28.67L106.1 27.35V27.91L103.61 29.34L99.57 27.04L94.47 29.99V29.43L99.77 26.37Z" fill="#676767"/>
<path d="M96.92 27.85L57.5 5.09C54.97 5.09 53.55 5.09 51.02 5.09L11.86 27.85L11.85 31.58C11.86 33.04 11.86 33.87 11.87 35.33L51.28 58.08C53.81 58.08 55.23 58.08 57.76 58.08L96.92 35.32L96.93 31.59C96.93 30.13 96.92 29.31 96.92 27.85Z" fill="#545454"/>
<path d="M11.89 31.59L11.88 35.32C11.87 33.86 11.87 33.03 11.86 31.57L11.87 27.84C11.87 29.3 11.88 30.12 11.89 31.59Z" fill="#292C36"/>
<path d="M96.94 31.59L96.93 35.32L57.77 58.08L57.78 54.34L96.94 31.59Z" fill="#373C48"/>
<path d="M51.3 54.34L51.29 58.08L11.88 35.32L11.89 31.59L51.3 54.34Z" fill="#373C48"/>
<path d="M57.78 54.34L57.77 58.07C55.24 58.07 53.82 58.07 51.29 58.07L51.3 54.34C53.83 54.34 55.25 54.34 57.78 54.34Z" fill="#4E5463"/>
<path d="M96.92 27.83C96.93 29.29 96.94 30.12 96.95 31.58L57.79 54.34C55.26 54.34 53.84 54.34 51.31 54.34L11.9 31.59C11.89 30.12 11.89 29.3 11.88 27.84L51.04 5.08C53.57 5.08 54.99 5.08 57.52 5.08L96.92 27.83Z" fill="#292C36"/>
<path d="M96.92 23.52L57.5 0.759995C54.97 0.759995 53.55 0.759995 51.02 0.759995L11.86 23.52L11.85 27.25C11.86 28.71 11.86 29.54 11.87 31L51.28 53.75C53.81 53.75 55.23 53.75 57.76 53.75L96.93 31L96.94 27.27C96.93 25.8 96.92 24.98 96.92 23.52Z" fill="#545454"/>
<path d="M11.89 27.26L11.88 30.99C11.87 29.53 11.87 28.7 11.86 27.24L11.87 23.51C11.87 24.97 11.88 25.79 11.89 27.26Z" fill="#292C36"/>
<path d="M96.94 27.26L96.93 30.99L57.77 53.75L57.78 50.01L96.94 27.26Z" fill="#373C48"/>
<path d="M51.3 50.01L51.29 53.75L11.88 30.99L11.89 27.26L51.3 50.01Z" fill="#373C48"/>
<path d="M57.78 50.01L57.77 53.74C55.24 53.74 53.82 53.74 51.29 53.74L51.3 50.01C53.83 50.01 55.25 50.01 57.78 50.01Z" fill="#4E5463"/>
<path d="M96.92 23.5C96.93 24.96 96.94 25.79 96.95 27.25L57.79 50.01C55.26 50.01 53.84 50.01 51.31 50.01L11.9 27.26C11.89 25.79 11.89 24.97 11.88 23.51L51.04 0.75C53.57 0.75 54.99 0.75 57.52 0.75L96.92 23.5Z" fill="#596177"/>
<path d="M103.92 42.37L105.86 41.24L101.84 34.29L99.9 35.41L103.92 42.37Z" fill="#CCCCCC"/>
<path d="M101.84 34.29L96.54 31.23L94.61 32.35L99.9 35.41L101.84 34.29Z" fill="#A0A0A0"/>
<path d="M106.21 43.69L106.2 44.25L108.14 43.12V42.56L106.21 43.69Z" fill="#CCCCCC"/>
<path d="M106.21 43.69L108.14 42.56L105.86 41.24L103.92 42.37L106.21 43.69Z" fill="#A0A0A0"/>
<path d="M103.92 42.37L99.9 35.41L94.61 32.35L94.6 32.91L99.7 35.85L103.72 42.81L106.2 44.25L106.21 43.69L103.92 42.37Z" fill="#676767"/>
<path d="M100.03 44.62L101.96 43.49L97.95 36.54L96.01 37.66L100.03 44.62Z" fill="#CCCCCC"/>
<path d="M97.95 36.54L92.65 33.48L90.71 34.6L96.01 37.66L97.95 36.54Z" fill="#A0A0A0"/>
<path d="M102.31 45.94V46.5L104.25 45.37V44.81L102.31 45.94Z" fill="#CCCCCC"/>
<path d="M102.31 45.94L104.25 44.81L101.96 43.49L100.03 44.62L102.31 45.94Z" fill="#A0A0A0"/>
<path d="M100.03 44.62L96.01 37.66L90.71 34.6V35.16L95.81 38.1L99.83 45.06L102.31 46.5V45.94L100.03 44.62Z" fill="#676767"/>
<path d="M96.12 46.89L98.06 45.76L94.04 38.81L92.11 39.93L96.12 46.89Z" fill="#CCCCCC"/>
<path d="M94.04 38.81L88.75 35.75L86.81 36.88L92.11 39.93L94.04 38.81Z" fill="#A0A0A0"/>
<path d="M98.41 48.21V48.77L100.34 47.64L100.35 47.08L98.41 48.21Z" fill="#CCCCCC"/>
<path d="M98.41 48.21L100.35 47.08L98.06 45.76L96.12 46.89L98.41 48.21Z" fill="#A0A0A0"/>
<path d="M96.12 46.89L92.11 39.93L86.81 36.88V37.43L91.91 40.38L95.92 47.33L98.41 48.77V48.21L96.12 46.89Z" fill="#676767"/>
<path d="M92.25 49.14L94.19 48.01L90.17 41.06L88.24 42.18L92.25 49.14Z" fill="#CCCCCC"/>
<path d="M90.17 41.06L84.87 38L82.94 39.12L88.24 42.18L90.17 41.06Z" fill="#A0A0A0"/>
<path d="M94.54 50.46V51.02L96.47 49.89V49.33L94.54 50.46Z" fill="#CCCCCC"/>
<path d="M94.54 50.46L96.47 49.33L94.19 48.01L92.25 49.14L94.54 50.46Z" fill="#A0A0A0"/>
<path d="M92.25 49.14L88.24 42.18L82.94 39.12V39.68L88.03 42.63L92.05 49.58L94.54 51.02V50.46L92.25 49.14Z" fill="#676767"/>
<path d="M88.33 51.39L90.27 50.26L86.25 43.31L84.32 44.43L88.33 51.39Z" fill="#CCCCCC"/>
<path d="M86.25 43.31L80.95 40.25L79.02 41.37L84.32 44.43L86.25 43.31Z" fill="#A0A0A0"/>
<path d="M90.62 52.71V53.27L92.55 52.14V51.58L90.62 52.71Z" fill="#CCCCCC"/>
<path d="M90.62 52.71L92.55 51.58L90.27 50.26L88.33 51.39L90.62 52.71Z" fill="#A0A0A0"/>
<path d="M88.33 51.39L84.32 44.43L79.02 41.37V41.93L84.11 44.88L88.13 51.83L90.62 53.27V52.71L88.33 51.39Z" fill="#676767"/>
<path d="M84.44 53.67L86.38 52.55L82.36 45.59L80.42 46.72L84.44 53.67Z" fill="#CCCCCC"/>
<path d="M82.36 45.59L77.06 42.53L75.13 43.66L80.42 46.72L82.36 45.59Z" fill="#A0A0A0"/>
<path d="M86.73 54.99L86.72 55.55L88.66 54.43V53.87L86.73 54.99Z" fill="#CCCCCC"/>
<path d="M86.73 54.99L88.66 53.87L86.38 52.55L84.44 53.67L86.73 54.99Z" fill="#A0A0A0"/>
<path d="M84.44 53.67L80.42 46.72L75.13 43.66L75.12 44.22L80.22 47.16L84.24 54.12L86.72 55.55L86.73 54.99L84.44 53.67Z" fill="#676767"/>
<path d="M80.54 55.95L82.47 54.83L78.46 47.87L76.52 49L80.54 55.95Z" fill="#CCCCCC"/>
<path d="M78.46 47.87L73.16 44.81L71.22 45.94L76.52 49L78.46 47.87Z" fill="#A0A0A0"/>
<path d="M82.82 57.27V57.83L84.76 56.7V56.15L82.82 57.27Z" fill="#CCCCCC"/>
<path d="M82.82 57.27L84.76 56.15L82.47 54.83L80.54 55.95L82.82 57.27Z" fill="#A0A0A0"/>
<path d="M80.54 55.95L76.52 49L71.22 45.94V46.49L76.32 49.44L80.33 56.39L82.82 57.83V57.27L80.54 55.95Z" fill="#676767"/>
<path d="M76.66 58.2L78.6 57.07L74.58 50.12L72.65 51.24L76.66 58.2Z" fill="#CCCCCC"/>
<path d="M74.58 50.12L69.29 47.06L67.35 48.18L72.65 51.24L74.58 50.12Z" fill="#A0A0A0"/>
<path d="M78.95 59.52V60.08L80.88 58.95L80.89 58.39L78.95 59.52Z" fill="#CCCCCC"/>
<path d="M78.95 59.52L80.89 58.39L78.6 57.07L76.66 58.2L78.95 59.52Z" fill="#A0A0A0"/>
<path d="M76.66 58.2L72.65 51.24L67.35 48.18V48.74L72.45 51.68L76.46 58.64L78.95 60.08V59.52L76.66 58.2Z" fill="#676767"/>
<path d="M72.79 60.45L74.73 59.33L70.72 52.37L68.78 53.49L72.79 60.45Z" fill="#CCCCCC"/>
<path d="M70.72 52.37L65.42 49.31L63.48 50.44L68.78 53.49L70.72 52.37Z" fill="#A0A0A0"/>
<path d="M75.08 61.77V62.33L77.02 61.2V60.65L75.08 61.77Z" fill="#CCCCCC"/>
<path d="M75.08 61.77L77.02 60.65L74.73 59.33L72.79 60.45L75.08 61.77Z" fill="#A0A0A0"/>
<path d="M72.79 60.45L68.78 53.49L63.48 50.44V50.99L68.58 53.94L72.59 60.89L75.08 62.33V61.77L72.79 60.45Z" fill="#676767"/>
<path d="M68.87 62.73L70.81 61.6L66.8 54.65L64.86 55.77L68.87 62.73Z" fill="#CCCCCC"/>
<path d="M66.8 54.65L61.5 51.59L59.56 52.71L64.86 55.77L66.8 54.65Z" fill="#A0A0A0"/>
<path d="M71.16 64.05V64.61L73.1 63.48V62.92L71.16 64.05Z" fill="#CCCCCC"/>
<path d="M71.16 64.05L73.1 62.92L70.81 61.6L68.87 62.73L71.16 64.05Z" fill="#A0A0A0"/>
<path d="M68.87 62.73L64.86 55.77L59.56 52.71V53.27L64.66 56.22L68.67 63.17L71.16 64.61V64.05L68.87 62.73Z" fill="#676767"/>
<path d="M4.92 42.37L2.98 41.24L7 34.29L8.92999 35.41L4.92 42.37Z" fill="#CCCCCC"/>
<path d="M7 34.29L12.29 31.23L14.23 32.35L8.92999 35.41L7 34.29Z" fill="#A0A0A0"/>
<path d="M2.63 43.69V44.25L0.699997 43.12L0.690002 42.56L2.63 43.69Z" fill="#CCCCCC"/>
<path d="M2.63 43.69L0.690002 42.56L2.98 41.24L4.92 42.37L2.63 43.69Z" fill="#A0A0A0"/>
<path d="M4.92 42.37L8.92999 35.41L14.23 32.35V32.91L9.13 35.85L5.12 42.81L2.63 44.25V43.69L4.92 42.37Z" fill="#676767"/>
<path d="M8.81 44.62L6.87 43.49L10.89 36.54L12.82 37.66L8.81 44.62Z" fill="#CCCCCC"/>
<path d="M10.89 36.54L16.18 33.48L18.12 34.6L12.82 37.66L10.89 36.54Z" fill="#A0A0A0"/>
<path d="M6.52 45.94V46.5L4.59 45.37L4.58 44.81L6.52 45.94Z" fill="#CCCCCC"/>
<path d="M6.52 45.94L4.58 44.81L6.87 43.49L8.81 44.62L6.52 45.94Z" fill="#A0A0A0"/>
<path d="M8.81 44.62L12.82 37.66L18.12 34.6V35.16L13.02 38.1L9.00999 45.06L6.52 46.5V45.94L8.81 44.62Z" fill="#676767"/>
<path d="M12.74 46.86L10.81 45.73L14.82 38.78L16.76 39.9L12.74 46.86Z" fill="#CCCCCC"/>
<path d="M14.82 38.78L20.12 35.72L22.06 36.84L16.76 39.9L14.82 38.78Z" fill="#A0A0A0"/>
<path d="M10.46 48.18V48.74L8.52 47.61V47.05L10.46 48.18Z" fill="#CCCCCC"/>
<path d="M10.46 48.18L8.52 47.05L10.81 45.73L12.74 46.86L10.46 48.18Z" fill="#A0A0A0"/>
<path d="M12.74 46.86L16.76 39.9L22.06 36.84V37.4L16.96 40.35L12.94 47.3L10.46 48.74V48.18L12.74 46.86Z" fill="#676767"/>
<path d="M16.64 49.14L14.71 48.01L18.72 41.06L20.66 42.18L16.64 49.14Z" fill="#CCCCCC"/>
<path d="M18.72 41.06L24.02 38L25.96 39.12L20.66 42.18L18.72 41.06Z" fill="#A0A0A0"/>
<path d="M14.36 50.46V51.02L12.42 49.89V49.33L14.36 50.46Z" fill="#CCCCCC"/>
<path d="M14.36 50.46L12.42 49.33L14.71 48.01L16.64 49.14L14.36 50.46Z" fill="#A0A0A0"/>
<path d="M16.64 49.14L20.66 42.18L25.96 39.12V39.68L20.86 42.63L16.84 49.58L14.36 51.02V50.46L16.64 49.14Z" fill="#676767"/>
<path d="M20.56 51.39L18.63 50.26L22.64 43.31L24.58 44.43L20.56 51.39Z" fill="#CCCCCC"/>
<path d="M22.64 43.31L27.94 40.25L29.88 41.37L24.58 44.43L22.64 43.31Z" fill="#A0A0A0"/>
<path d="M18.28 52.71V53.27L16.34 52.14V51.58L18.28 52.71Z" fill="#CCCCCC"/>
<path d="M18.28 52.71L16.34 51.58L18.63 50.26L20.56 51.39L18.28 52.71Z" fill="#A0A0A0"/>
<path d="M20.56 51.39L24.58 44.43L29.88 41.37V41.93L24.78 44.88L20.76 51.83L18.28 53.27V52.71L20.56 51.39Z" fill="#676767"/>
<path d="M24.48 53.67L22.54 52.55L26.56 45.59L28.5 46.72L24.48 53.67Z" fill="#CCCCCC"/>
<path d="M26.56 45.59L31.86 42.53L33.8 43.66L28.5 46.72L26.56 45.59Z" fill="#A0A0A0"/>
<path d="M22.2 54.99V55.55L20.26 54.43V53.87L22.2 54.99Z" fill="#CCCCCC"/>
<path d="M22.2 54.99L20.26 53.87L22.54 52.55L24.48 53.67L22.2 54.99Z" fill="#A0A0A0"/>
<path d="M24.48 53.67L28.5 46.72L33.8 43.66V44.22L28.7 47.16L24.68 54.12L22.2 55.55V54.99L24.48 53.67Z" fill="#676767"/>
<path d="M28.42 55.95L26.48 54.83L30.49 47.87L32.43 49L28.42 55.95Z" fill="#CCCCCC"/>
<path d="M30.49 47.87L35.79 44.81L37.73 45.94L32.43 49L30.49 47.87Z" fill="#A0A0A0"/>
<path d="M26.13 57.27V57.83L24.19 56.7V56.15L26.13 57.27Z" fill="#CCCCCC"/>
<path d="M26.13 57.27L24.19 56.15L26.48 54.83L28.42 55.95L26.13 57.27Z" fill="#A0A0A0"/>
<path d="M28.42 55.95L32.43 49L37.73 45.94V46.49L32.63 49.44L28.62 56.39L26.13 57.83V57.27L28.42 55.95Z" fill="#676767"/>
<path d="M32.31 58.2L30.37 57.07L34.39 50.12L36.32 51.24L32.31 58.2Z" fill="#CCCCCC"/>
<path d="M34.39 50.12L39.69 47.06L41.62 48.18L36.32 51.24L34.39 50.12Z" fill="#A0A0A0"/>
<path d="M30.02 59.52V60.08L28.09 58.95V58.39L30.02 59.52Z" fill="#CCCCCC"/>
<path d="M30.02 59.52L28.09 58.39L30.37 57.07L32.31 58.2L30.02 59.52Z" fill="#A0A0A0"/>
<path d="M32.31 58.2L36.32 51.24L41.62 48.18V48.74L36.52 51.68L32.51 58.64L30.02 60.08V59.52L32.31 58.2Z" fill="#676767"/>
<path d="M36.24 60.45L34.3 59.33L38.31 52.37L40.25 53.49L36.24 60.45Z" fill="#CCCCCC"/>
<path d="M38.31 52.37L43.61 49.31L45.55 50.44L40.25 53.49L38.31 52.37Z" fill="#A0A0A0"/>
<path d="M33.95 61.77V62.33L32.01 61.2V60.65L33.95 61.77Z" fill="#CCCCCC"/>
<path d="M33.95 61.77L32.01 60.65L34.3 59.33L36.24 60.45L33.95 61.77Z" fill="#A0A0A0"/>
<path d="M36.24 60.45L40.25 53.49L45.55 50.44V50.99L40.45 53.94L36.44 60.89L33.95 62.33V61.77L36.24 60.45Z" fill="#676767"/>
<path d="M40.15 62.73L38.22 61.6L42.23 54.65L44.17 55.77L40.15 62.73Z" fill="#CCCCCC"/>
<path d="M42.23 54.65L47.53 51.59L49.47 52.71L44.17 55.77L42.23 54.65Z" fill="#A0A0A0"/>
<path d="M37.87 64.05V64.61L35.93 63.48V62.92L37.87 64.05Z" fill="#CCCCCC"/>
<path d="M37.87 64.05L35.93 62.92L38.22 61.6L40.15 62.73L37.87 64.05Z" fill="#A0A0A0"/>
<path d="M40.15 62.73L44.17 55.77L49.47 52.71V53.27L44.37 56.22L40.36 63.17L37.87 64.61V64.05L40.15 62.73Z" fill="#676767"/>
<path d="M54.33 48.44L54.32 49.06L94.63 25.64V25.02L54.33 48.44Z" fill="#2267B9"/>
<path d="M13.76 25.02V25.64L54.32 49.06L54.33 48.44L13.76 25.02Z" fill="#2267B9"/>
<path d="M94.63 25.02L54.07 1.6L13.76 25.02L54.33 48.44L94.63 25.02Z" fill="#0080FF"/>
<path d="M54.12 16.67L39.21 25.33L54.21 33.99L69.12 25.33L54.12 16.67ZM54.21 33.37L40.28 25.33L54.12 17.29L68.05 25.33L54.21 33.37Z" fill="#FFE000"/>
<path d="M58.8 31.1L58.26 31.41L66.02 35.88L66.56 35.57L58.8 31.1Z" fill="#FFE000"/>
<path d="M47.34 12.75H38.35L36.61 11.75L36.08 12.06L38.04 13.19H47.03L54 17.22L54.54 16.91L47.34 12.75Z" fill="#FFE000"/>
<path d="M46.92 11.02C46.58 10.82 44.71 10.21 43.46 9.8L41.7 8.79L41.17 9.1L42.98 10.14C43.68 10.86 44.72 11.91 45.05 12.1C45.57 12.4 46.41 12.4 46.93 12.1C47.45 11.8 47.45 11.32 46.92 11.02Z" fill="#FFE000"/>
<path d="M46.32 11.29C46.11 11.17 45.76 11.17 45.55 11.29C45.34 11.41 45.34 11.61 45.55 11.74C45.76 11.86 46.11 11.86 46.32 11.74C46.53 11.61 46.53 11.41 46.32 11.29Z" fill="#292C36"/>
<path d="M46.6 11.9C46.97 11.69 46.97 11.34 46.6 11.13C46.23 10.92 45.63 10.92 45.27 11.13C44.9 11.34 44.91 11.69 45.27 11.9C45.64 12.11 46.24 12.11 46.6 11.9ZM46.32 11.74C46.11 11.86 45.76 11.86 45.55 11.74C45.34 11.62 45.34 11.42 45.55 11.29C45.76 11.17 46.11 11.17 46.32 11.29C46.53 11.41 46.53 11.61 46.32 11.74Z" fill="#F74141"/>
<path d="M43.47 36.95C43.13 37.15 41.26 37.76 40.01 38.17L38.25 39.18L37.72 38.87L39.53 37.83C40.23 37.11 41.27 36.06 41.6 35.87C42.12 35.57 42.96 35.57 43.48 35.87C44 36.16 43.99 36.64 43.47 36.95Z" fill="#FFE000"/>
<path d="M42.87 36.67C42.66 36.79 42.31 36.79 42.1 36.67C41.89 36.55 41.89 36.35 42.1 36.22C42.31 36.1 42.66 36.1 42.87 36.22C43.08 36.35 43.08 36.55 42.87 36.67Z" fill="#292C36"/>
<path d="M43.15 36.06C42.78 35.85 42.19 35.85 41.82 36.06C41.45 36.27 41.45 36.62 41.82 36.83C42.19 37.04 42.78 37.04 43.15 36.83C43.52 36.62 43.52 36.27 43.15 36.06ZM42.87 36.67C42.66 36.79 42.31 36.79 42.1 36.67C41.89 36.55 41.89 36.35 42.1 36.22C42.31 36.1 42.66 36.1 42.87 36.22C43.08 36.35 43.08 36.55 42.87 36.67Z" fill="#F74141"/>
<path d="M76.16 30.63C76.5 30.83 78.37 31.44 79.62 31.85L81.37 32.86L81.91 32.55L80.1 31.51C79.4 30.78 78.36 29.74 78.03 29.55C77.51 29.25 76.67 29.25 76.15 29.55C75.64 29.85 75.64 30.33 76.16 30.63Z" fill="#FFE000"/>
<path d="M76.77 30.36C76.98 30.48 77.33 30.48 77.54 30.36C77.75 30.24 77.75 30.04 77.54 29.91C77.33 29.79 76.98 29.79 76.77 29.91C76.55 30.04 76.55 30.24 76.77 30.36Z" fill="#292C36"/>
<path d="M76.48 29.75C76.11 29.96 76.12 30.31 76.48 30.52C76.85 30.73 77.45 30.73 77.81 30.52C78.18 30.31 78.17 29.96 77.81 29.75C77.45 29.54 76.85 29.54 76.48 29.75ZM76.77 29.91C76.98 29.79 77.33 29.79 77.54 29.91C77.75 30.03 77.75 30.23 77.54 30.36C77.33 30.48 76.98 30.48 76.77 30.36C76.55 30.24 76.55 30.04 76.77 29.91Z" fill="#F74141"/>
<path d="M66.24 20.1C66.58 20.3 68.45 20.91 69.7 21.32L71.45 22.33L71.99 22.02L70.18 20.98C69.48 20.25 68.44 19.21 68.11 19.02C67.59 18.72 66.75 18.72 66.23 19.02C65.72 19.31 65.72 19.8 66.24 20.1Z" fill="#FFE000"/>
<path d="M66.85 19.82C67.06 19.94 67.41 19.94 67.62 19.82C67.83 19.7 67.83 19.5 67.62 19.37C67.41 19.25 67.06 19.25 66.85 19.37C66.63 19.5 66.63 19.7 66.85 19.82Z" fill="#292C36"/>
<path d="M66.56 19.21C66.19 19.42 66.19 19.77 66.56 19.98C66.93 20.19 67.53 20.19 67.89 19.98C68.26 19.77 68.25 19.42 67.89 19.21C67.53 19 66.93 19 66.56 19.21ZM66.85 19.38C67.06 19.26 67.41 19.26 67.62 19.38C67.83 19.5 67.83 19.7 67.62 19.83C67.41 19.95 67.06 19.95 66.85 19.83C66.63 19.7 66.63 19.5 66.85 19.38Z" fill="#F74141"/>
<path d="M61.28 11.02C61.62 10.82 63.49 10.21 64.74 9.8L66.49 8.79L67.03 9.1L65.22 10.14C64.52 10.86 63.48 11.91 63.15 12.1C62.63 12.4 61.79 12.4 61.27 12.1C60.76 11.8 60.76 11.32 61.28 11.02Z" fill="#FFE000"/>
<path d="M61.89 11.29C62.1 11.17 62.45 11.17 62.66 11.29C62.87 11.41 62.87 11.61 62.66 11.74C62.45 11.86 62.1 11.86 61.89 11.74C61.68 11.61 61.68 11.41 61.89 11.29Z" fill="#292C36"/>
<path d="M61.61 11.9C61.98 12.11 62.57 12.11 62.94 11.9C63.31 11.69 63.31 11.34 62.94 11.13C62.57 10.92 61.98 10.92 61.61 11.13C61.24 11.34 61.24 11.69 61.61 11.9ZM61.89 11.29C62.1 11.17 62.45 11.17 62.66 11.29C62.87 11.41 62.87 11.61 62.66 11.74C62.45 11.86 62.1 11.86 61.89 11.74C61.68 11.61 61.68 11.41 61.89 11.29Z" fill="#F74141"/>
<path d="M26.08 21.2C26.42 21 28.29 20.39 29.54 19.98L31.3 18.97L31.84 19.28L30.03 20.32C29.33 21.04 28.29 22.09 27.96 22.28C27.44 22.58 26.6 22.58 26.08 22.28C25.56 21.99 25.56 21.5 26.08 21.2Z" fill="#FFE000"/>
<path d="M26.69 21.47C26.9 21.35 27.25 21.35 27.46 21.47C27.67 21.59 27.67 21.79 27.46 21.92C27.25 22.04 26.9 22.04 26.69 21.92C26.47 21.8 26.48 21.6 26.69 21.47Z" fill="#292C36"/>
<path d="M26.41 22.08C26.78 22.29 27.37 22.29 27.74 22.08C28.11 21.87 28.11 21.52 27.74 21.31C27.37 21.1 26.78 21.1 26.41 21.31C26.04 21.53 26.04 21.87 26.41 22.08ZM26.69 21.47C26.9 21.35 27.25 21.35 27.46 21.47C27.67 21.59 27.67 21.79 27.46 21.92C27.25 22.04 26.9 22.04 26.69 21.92C26.47 21.8 26.48 21.6 26.69 21.47Z" fill="#F74141"/>
<path d="M70.46 37.04C70.12 36.84 68.25 36.23 67 35.82L65.25 34.81L64.71 35.12L66.52 36.16C67.22 36.89 68.26 37.93 68.59 38.12C69.11 38.42 69.95 38.42 70.47 38.12C70.98 37.83 70.98 37.34 70.46 37.04Z" fill="#FFE000"/>
<path d="M69.85 37.32C69.64 37.2 69.29 37.2 69.08 37.32C68.87 37.44 68.87 37.64 69.08 37.77C69.29 37.89 69.64 37.89 69.85 37.77C70.06 37.64 70.06 37.44 69.85 37.32Z" fill="#292C36"/>
<path d="M70.13 37.93C70.5 37.72 70.5 37.37 70.13 37.16C69.76 36.95 69.16 36.95 68.8 37.16C68.43 37.37 68.44 37.72 68.8 37.93C69.17 38.14 69.77 38.14 70.13 37.93ZM69.85 37.77C69.64 37.89 69.29 37.89 69.08 37.77C68.87 37.65 68.87 37.45 69.08 37.32C69.29 37.2 69.64 37.2 69.85 37.32C70.06 37.44 70.06 37.64 69.85 37.77Z" fill="#F74141"/>
<path d="M60.38 38.02L60.35 33.21L57.73 31.7L57.19 32.01L59.59 33.4L59.62 38.21L65.8 41.77L66.33 41.46L60.38 38.02Z" fill="#FFE000"/>
<path d="M58.86 38.39L58.83 33.58L56.55 32.26L56.01 32.57L58.08 33.76L58.1 38.57L64.73 42.4L65.26 42.09L58.86 38.39Z" fill="#FFE000"/>
<path d="M57.35 38.76L57.32 33.95L55.48 32.88L54.95 33.2L56.57 34.13L56.59 38.94L63.66 43.02L64.19 42.71L57.35 38.76Z" fill="#FFE000"/>
<path d="M55.84 39.12L55.81 34.31L53.19 32.79L54.21 33.99L55.05 34.49L55.08 39.3L62.59 43.64L63.13 43.33L55.84 39.12Z" fill="#FFE000"/>
<path d="M55.67 17.81L55.65 16.3L48.47 12.17L48.44 7.36L46.29 6.12L45.75 6.43L47.68 7.55L47.71 12.36L54.89 16.5L54.91 17.55L55.67 17.81Z" fill="#FFE000"/>
<path d="M57.2 18.61L57.17 15.95L50 11.82L49.97 7.01L47.35 5.5L46.82 5.81L49.21 7.2L49.24 12L56.41 16.15L56.44 18.12L57.2 18.61Z" fill="#FFE000"/>
<path d="M58.72 19.49L58.69 15.6L51.52 11.47L51.49 6.66L48.41 4.89L47.88 5.2L50.73 6.85L50.76 11.66L57.93 15.8L57.96 19.06L58.72 19.49Z" fill="#FFE000"/>
<path d="M63.95 30.3L62.26 29.32L61.72 29.63L63.64 30.74H72.63L78.73 34.26L79.26 33.95L72.94 30.3H63.95Z" fill="#FFE000"/>
<path d="M73.58 29.42H64.59L63.33 28.7L62.79 29.01L64.28 29.86H73.27L79.8 33.64L80.34 33.33L73.58 29.42Z" fill="#FFE000"/>
<path d="M63.31 31.19L61.16 29.96L60.63 30.27L63 31.63H71.99L77.64 34.9L78.17 34.58L72.3 31.19H63.31Z" fill="#FFE000"/>
<path d="M62.65 32.07L60.08 30.59L59.54 30.9L62.33 32.51H71.32L76.55 35.53L77.08 35.22L71.64 32.07H62.65Z" fill="#FFE000"/>
<path d="M49.61 33.59L49.63 38.4L43.3 42.08L43.84 42.39L50.4 38.58L50.37 33.77L52.62 32.46L52.08 32.15L49.61 33.59Z" fill="#FFE000"/>
<path d="M48.07 33.21L48.1 38.02L42.21 41.45L42.75 41.76L48.86 38.21L48.83 33.4L51.52 31.83L50.99 31.52L48.07 33.21Z" fill="#FFE000"/>
<path d="M54.2 33.38L52.65 34.28L52.68 39.09L45.43 43.31L45.97 43.62L53.44 39.28L53.41 34.47L54.74 33.69L54.2 33.38Z" fill="#FFE000"/>
<path d="M51.13 33.94L51.16 38.75L44.37 42.69L44.91 43L51.92 38.93L51.89 34.12L53.68 33.08L53.15 32.77L51.13 33.94Z" fill="#FFE000"/>
<path d="M32.15 23.5L32.18 28.31L25.85 31.99L26.39 32.3L32.94 28.5L32.92 23.69L35.17 22.38L34.63 22.07L32.15 23.5Z" fill="#FFE000"/>
<path d="M30.62 23.13L30.64 27.94L24.75 31.36L25.29 31.67L31.4 28.12L31.38 23.31L34.07 21.75L33.53 21.43L30.62 23.13Z" fill="#FFE000"/>
<path d="M36.75 23.29L35.2 24.2L35.22 29.01L27.98 33.22L28.51 33.53L35.98 29.19L35.96 24.38L37.29 23.61L36.75 23.29Z" fill="#FFE000"/>
<path d="M33.67 23.85L33.7 28.66L26.91 32.61L27.45 32.92L34.46 28.85L34.44 24.04L36.23 22.99L35.69 22.68L33.67 23.85Z" fill="#FFE000"/>
<path d="M55.59 40.63C55.59 40.43 55.44 40.25 55.22 40.11C54.99 39.98 54.67 39.9 54.33 39.89C53.98 39.89 53.67 39.97 53.44 40.11C53.21 40.24 53.07 40.42 53.07 40.63C53.07 40.88 53.57 41.93 53.94 42.69L53.97 48.23L54.34 48.44L54.73 48.21L54.7 42.79C55.06 42.03 55.59 40.9 55.59 40.63Z" fill="#FFE000"/>
<path d="M54.73 40.45C54.52 40.33 54.17 40.33 53.96 40.45C53.75 40.57 53.75 40.77 53.96 40.9C54.17 41.02 54.52 41.02 54.73 40.9C54.95 40.78 54.95 40.58 54.73 40.45Z" fill="#292C36"/>
<path d="M55.02 41.06C55.39 40.85 55.39 40.5 55.02 40.29C54.65 40.08 54.05 40.08 53.69 40.29C53.32 40.5 53.33 40.85 53.69 41.06C54.06 41.28 54.65 41.28 55.02 41.06ZM54.74 40.9C54.53 41.02 54.18 41.02 53.97 40.9C53.76 40.78 53.76 40.58 53.97 40.45C54.18 40.33 54.53 40.33 54.74 40.45C54.95 40.58 54.95 40.78 54.74 40.9Z" fill="#F74141"/>
<path d="M55.33 9.41C55.33 9.61 55.18 9.79 54.96 9.93C54.73 10.06 54.41 10.14 54.07 10.15C53.72 10.15 53.41 10.07 53.18 9.93C52.95 9.8 52.81 9.61 52.81 9.41C52.81 9.16 53.31 8.11 53.68 7.35L53.71 1.81L54.08 1.6L54.47 1.83L54.44 7.25C54.8 8.01 55.33 9.15 55.33 9.41Z" fill="#FFE000"/>
<path d="M54.48 9.59C54.27 9.71 53.92 9.71 53.71 9.59C53.5 9.47 53.5 9.27 53.71 9.14C53.92 9.02 54.27 9.02 54.48 9.14C54.69 9.27 54.69 9.47 54.48 9.59Z" fill="#292C36"/>
<path d="M54.76 8.97999C54.39 8.76999 53.8 8.76999 53.43 8.97999C53.06 9.18999 53.06 9.53999 53.43 9.74999C53.8 9.95999 54.39 9.95999 54.76 9.74999C55.13 9.53999 55.13 9.18999 54.76 8.97999ZM54.48 9.59C54.27 9.71 53.92 9.71 53.71 9.59C53.5 9.47 53.5 9.26999 53.71 9.13999C53.92 9.01999 54.27 9.01999 54.48 9.13999C54.69 9.26999 54.69 9.47 54.48 9.59Z" fill="#F74141"/>
<path d="M59.52 15.6L59.55 20.04L60.31 20.56L60.28 15.78L69.42 10.47L68.88 10.16L59.52 15.6Z" fill="#FFE000"/>
<path d="M61.07 15.99L61.1 20.95L61.86 21.43L61.83 16.17L70.54 11.11L70 10.8L61.07 15.99Z" fill="#FFE000"/>
<path d="M62.58 16.33L62.61 21.91L63.37 22.37L63.34 16.52L71.59 11.72L71.05 11.41L62.58 16.33Z" fill="#FFE000"/>
<path d="M64.09 16.71L64.11 22.62L64.88 23.1L64.85 16.9L72.68 12.35L72.14 12.04L64.09 16.71Z" fill="#FFE000"/>
<path d="M46.18 30.62H37.87L30.69 34.79L31.23 35.11L38.19 31.06H46.49L48.07 30.14L47.53 29.83L46.18 30.62Z" fill="#FFE000"/>
<path d="M45.55 29.76H37.25L29.64 34.19L30.17 34.5L37.56 30.2H45.87L47.02 29.53L46.48 29.22L45.55 29.76Z" fill="#FFE000"/>
<path d="M47.45 32.34H39.14L32.81 36.02L33.35 36.33L39.46 32.78H47.76L50.18 31.37L49.64 31.06L47.45 32.34Z" fill="#FFE000"/>
<path d="M46.83 31.47H38.53L31.75 35.41L32.29 35.72L38.84 31.91H47.15L49.13 30.76L48.59 30.45L46.83 31.47Z" fill="#FFE000"/>
<path d="M23.06 24.57C22.8 24.42 22.45 24.33 22.07 24.33C21.58 24.33 19.51 24.66 18.06 24.89H13.97L13.76 25.01L14.31 25.33H17.72C19.17 25.57 21.55 25.95 22.08 25.95C22.86 25.95 23.48 25.59 23.48 25.14C23.48 24.92 23.32 24.72 23.06 24.57Z" fill="#FFE000"/>
<path d="M22.46 25.37C22.25 25.49 21.9 25.49 21.69 25.37C21.48 25.25 21.48 25.05 21.69 24.92C21.9 24.8 22.25 24.8 22.46 24.92C22.68 25.05 22.68 25.25 22.46 25.37Z" fill="#292C36"/>
<path d="M22.75 24.76C22.38 24.55 21.79 24.55 21.42 24.76C21.05 24.97 21.05 25.32 21.42 25.53C21.79 25.74 22.38 25.74 22.75 25.53C23.11 25.32 23.11 24.97 22.75 24.76ZM22.46 25.37C22.25 25.49 21.9 25.49 21.69 25.37C21.48 25.25 21.48 25.05 21.69 24.92C21.9 24.8 22.25 24.8 22.46 24.92C22.68 25.05 22.68 25.25 22.46 25.37Z" fill="#F74141"/>
<path d="M85.33 24.57C85.58 24.42 85.94 24.33 86.32 24.33C86.81 24.33 88.88 24.66 90.33 24.89H94.42L94.63 25.01L94.08 25.33H90.67C89.22 25.57 86.84 25.95 86.31 25.95C85.53 25.95 84.91 25.59 84.91 25.14C84.91 24.92 85.07 24.72 85.33 24.57Z" fill="#FFE000"/>
<path d="M85.93 25.37C86.14 25.49 86.49 25.49 86.7 25.37C86.91 25.25 86.91 25.05 86.7 24.92C86.49 24.8 86.14 24.8 85.93 24.92C85.71 25.05 85.72 25.25 85.93 25.37Z" fill="#292C36"/>
<path d="M85.65 24.76C85.28 24.97 85.28 25.32 85.65 25.53C86.02 25.74 86.62 25.74 86.98 25.53C87.35 25.32 87.34 24.97 86.98 24.76C86.61 24.55 86.01 24.55 85.65 24.76ZM85.93 24.92C86.14 24.8 86.49 24.8 86.7 24.92C86.91 25.04 86.91 25.24 86.7 25.37C86.49 25.49 86.14 25.49 85.93 25.37C85.72 25.25 85.71 25.05 85.93 24.92Z" fill="#F74141"/>
<path d="M36.35 21.06L34.63 22.07L35.07 22.43L36.67 21.5H39.97L40.28 21.06H36.35Z" fill="#FFE000"/>
<path d="M35.73 20.21L33.53 21.43L34.07 21.75L36.04 20.65H40.98L40.96 20.21H35.73Z" fill="#FFE000"/>
<path d="M37.62 22.78L36.69 23.33L37.19 23.66L37.94 23.22H38.57L38.89 22.78H37.62Z" fill="#FFE000"/>
<path d="M37.01 21.91L35.58 22.74L36.18 23.02L37.32 22.35H39.25L39.56 21.91H37.01Z" fill="#FFE000"/>
<path d="M68.08 22.87L66.36 23.88L66.8 24.24L68.4 23.31H71.7L71.33 22.87H68.08Z" fill="#FFE000"/>
<path d="M69.35 24.59L68.41 25.13L68.85 25.49L69.67 25.03H70.3L69.95 24.59H69.35Z" fill="#FFE000"/>
<path d="M68.73 23.72L67.31 24.55L67.91 24.83L69.05 24.16H70.98L70.61 23.72H68.73Z" fill="#FFE000"/>
<path d="M43.25 23.39L43.75 23.06L40.28 21.06L39.69 21.34L43.25 23.39Z" fill="#FFE000"/>
<path d="M44.81 22.43L40.96 20.21L40.54 20.58L44.23 22.72L44.81 22.43Z" fill="#FFE000"/>
<path d="M42.09 23.99L42.71 23.73L39.56 21.91L38.83 22.11L42.09 23.99Z" fill="#FFE000"/>
<path d="M41.03 24.64L41.61 24.35L38.89 22.78L37.98 22.88L41.03 24.64Z" fill="#FFE000"/>
<path d="M45.77 21.68L38.79 17.66H33.57L31.23 19.01L31.77 19.32L33.88 18.1H38.48L45.09 21.91L45.77 21.68Z" fill="#FFE000"/>
<path d="M82.37 24L82.34 19.19L83.43 18.56L82.89 18.25L81.58 19.01L81.61 23.82L79.36 25.13L79.9 25.44L82.37 24Z" fill="#FFE000"/>
<path d="M83.91 24.38L83.88 19.57L84.53 19.19L83.99 18.88L83.12 19.38L83.15 24.19L80.45 25.76L80.99 26.07L83.91 24.38Z" fill="#FFE000"/>
<path d="M77.77 24.21L79.33 23.31L79.3 18.5L81.29 17.34L80.77 17.02L78.54 18.31L78.57 23.12L77.24 23.9L77.77 24.21Z" fill="#FFE000"/>
<path d="M80.85 23.65L80.82 18.84L82.37 17.94L81.83 17.63L80.06 18.66L80.09 23.47L78.29 24.51L78.83 24.82L80.85 23.65Z" fill="#FFE000"/>
<path d="M78.17 26.44L79.9 25.44L79.46 25.07L77.85 26H74.55L74.24 26.44H78.17Z" fill="#FFE000"/>
<path d="M78.8 27.3L80.99 26.07L80.45 25.76L78.48 26.86H73.55L73.57 27.3H78.8Z" fill="#FFE000"/>
<path d="M76.9 24.72L77.84 24.18L77.34 23.85L76.58 24.28H75.95L75.64 24.72H76.9Z" fill="#FFE000"/>
<path d="M77.52 25.59L78.94 24.76L78.34 24.49L77.2 25.15H75.27L74.96 25.59H77.52Z" fill="#FFE000"/>
<path d="M70.61 23.72L70.09 24.04L74.24 26.44L74.83 26.16L70.61 23.72Z" fill="#FFE000"/>
<path d="M69.5 24.94L73.57 27.3L73.99 26.92L69.95 24.59L69.5 24.94Z" fill="#FFE000"/>
<path d="M71.33 22.87L70.33 22.92L74.96 25.59L75.69 25.39L71.33 22.87Z" fill="#FFE000"/>
<path d="M72 22.02L71.46 22.33L75.64 24.72L76.54 24.63L72 22.02Z" fill="#FFE000"/>
<path d="M51.43 19.66L50.97 19.39L50.59 19.62L51.04 19.88L51.43 19.66Z" fill="#CCCCCC"/>
<path d="M51.85 19.42L52.23 19.2L51.43 19.66L51.04 19.88L51.85 19.42Z" fill="#676767"/>
<path d="M52.9 20.03V20.14L53.29 19.92V19.81L52.9 20.03Z" fill="#CCCCCC"/>
<path d="M52.9 20.03L53.29 19.81L52.23 19.2L51.85 19.42L52.9 20.03Z" fill="#A0A0A0"/>
<path d="M51.85 19.42L51.04 19.88L50.59 19.62V19.73L51.08 20.01L51.89 19.56L52.9 20.14V20.03L51.85 19.42Z" fill="#676767"/>
<path d="M50.66 20.1L50.21 19.84L49.82 20.07L50.27 20.33L50.66 20.1Z" fill="#CCCCCC"/>
<path d="M51.08 19.87L51.46 19.65L50.66 20.1L50.27 20.33L51.08 19.87Z" fill="#676767"/>
<path d="M52.13 20.48V20.59L52.52 20.37V20.26L52.13 20.48Z" fill="#CCCCCC"/>
<path d="M52.13 20.48L52.52 20.26L51.46 19.65L51.08 19.87L52.13 20.48Z" fill="#A0A0A0"/>
<path d="M51.08 19.87L50.27 20.33L49.82 20.07V20.18L50.31 20.46L51.12 20L52.13 20.59V20.48L51.08 19.87Z" fill="#676767"/>
<path d="M49.89 20.56L49.43 20.29L49.05 20.52L49.5 20.78L49.89 20.56Z" fill="#CCCCCC"/>
<path d="M50.31 20.32L50.69 20.1L49.89 20.56L49.5 20.78L50.31 20.32Z" fill="#676767"/>
<path d="M51.36 20.93V21.04L51.75 20.82V20.71L51.36 20.93Z" fill="#CCCCCC"/>
<path d="M51.36 20.93L51.75 20.71L50.69 20.1L50.31 20.32L51.36 20.93Z" fill="#A0A0A0"/>
<path d="M50.31 20.32L49.5 20.78L49.05 20.52V20.63L49.54 20.91L50.35 20.46L51.36 21.04V20.93L50.31 20.32Z" fill="#676767"/>
<path d="M49.12 21L48.66 20.74L48.28 20.97L48.73 21.23L49.12 21Z" fill="#CCCCCC"/>
<path d="M49.54 20.77L49.92 20.55L49.12 21L48.73 21.23L49.54 20.77Z" fill="#676767"/>
<path d="M50.59 21.38V21.49L50.98 21.27V21.15L50.59 21.38Z" fill="#CCCCCC"/>
<path d="M50.59 21.38L50.98 21.15L49.92 20.55L49.54 20.77L50.59 21.38Z" fill="#A0A0A0"/>
<path d="M49.54 20.77L48.73 21.23L48.28 20.97V21.08L48.77 21.36L49.58 20.9L50.59 21.49V21.38L49.54 20.77Z" fill="#676767"/>
<path d="M48.35 21.45L47.89 21.19L47.51 21.41L47.96 21.68L48.35 21.45Z" fill="#CCCCCC"/>
<path d="M48.76 21.22L49.15 21L48.35 21.45L47.96 21.68L48.76 21.22Z" fill="#676767"/>
<path d="M49.82 21.83V21.94L50.2 21.71V21.6L49.82 21.83Z" fill="#CCCCCC"/>
<path d="M49.82 21.83L50.2 21.6L49.15 21L48.76 21.22L49.82 21.83Z" fill="#A0A0A0"/>
<path d="M48.76 21.22L47.96 21.68L47.51 21.41V21.53L48 21.81L48.8 21.35L49.82 21.94V21.83L48.76 21.22Z" fill="#676767"/>
<path d="M47.56 21.9L47.11 21.64L46.72 21.86L47.18 22.12L47.56 21.9Z" fill="#CCCCCC"/>
<path d="M47.98 21.67L48.37 21.44L47.56 21.9L47.18 22.12L47.98 21.67Z" fill="#676767"/>
<path d="M49.04 22.27V22.39L49.42 22.16V22.05L49.04 22.27Z" fill="#CCCCCC"/>
<path d="M49.04 22.27L49.42 22.05L48.37 21.44L47.98 21.67L49.04 22.27Z" fill="#A0A0A0"/>
<path d="M47.98 21.67L47.18 22.12L46.72 21.86V21.97L47.22 22.26L48.02 21.8L49.04 22.39V22.27L47.98 21.67Z" fill="#676767"/>
<path d="M46.79 22.35L46.34 22.09L45.95 22.31L46.41 22.57L46.79 22.35Z" fill="#CCCCCC"/>
<path d="M47.21 22.12L47.59 21.89L46.79 22.35L46.41 22.57L47.21 22.12Z" fill="#676767"/>
<path d="M48.26 22.72V22.84L48.65 22.61V22.5L48.26 22.72Z" fill="#CCCCCC"/>
<path d="M48.26 22.72L48.65 22.5L47.59 21.89L47.21 22.12L48.26 22.72Z" fill="#A0A0A0"/>
<path d="M47.21 22.12L46.41 22.57L45.95 22.31V22.42L46.44 22.71L47.25 22.25L48.26 22.84V22.72L47.21 22.12Z" fill="#676767"/>
<path d="M46.02 22.8L45.57 22.54L45.18 22.76L45.64 23.02L46.02 22.8Z" fill="#CCCCCC"/>
<path d="M46.44 22.56L46.83 22.34L46.02 22.8L45.64 23.02L46.44 22.56Z" fill="#676767"/>
<path d="M47.49 23.17V23.28L47.88 23.06V22.95L47.49 23.17Z" fill="#CCCCCC"/>
<path d="M47.49 23.17L47.88 22.95L46.83 22.34L46.44 22.56L47.49 23.17Z" fill="#A0A0A0"/>
<path d="M46.44 22.56L45.64 23.02L45.18 22.76V22.87L45.68 23.16L46.48 22.7L47.49 23.28V23.17L46.44 22.56Z" fill="#676767"/>
<path d="M45.25 23.25L44.79 22.99L44.41 23.21L44.86 23.47L45.25 23.25Z" fill="#CCCCCC"/>
<path d="M45.67 23.01L46.05 22.79L45.25 23.25L44.86 23.47L45.67 23.01Z" fill="#676767"/>
<path d="M46.72 23.62V23.73L47.11 23.51V23.4L46.72 23.62Z" fill="#CCCCCC"/>
<path d="M46.72 23.62L47.11 23.4L46.05 22.79L45.67 23.01L46.72 23.62Z" fill="#A0A0A0"/>
<path d="M45.67 23.01L44.86 23.47L44.41 23.21V23.32L44.9 23.61L45.71 23.15L46.72 23.73V23.62L45.67 23.01Z" fill="#676767"/>
<path d="M44.47 23.69L44.01 23.43L43.63 23.66L44.08 23.92L44.47 23.69Z" fill="#CCCCCC"/>
<path d="M44.88 23.46L45.27 23.24L44.47 23.69L44.08 23.92L44.88 23.46Z" fill="#676767"/>
<path d="M45.94 24.07V24.18L46.32 23.96V23.85L45.94 24.07Z" fill="#CCCCCC"/>
<path d="M45.94 24.07L46.32 23.85L45.27 23.24L44.88 23.46L45.94 24.07Z" fill="#A0A0A0"/>
<path d="M44.88 23.46L44.08 23.92L43.63 23.66V23.77L44.12 24.05L44.92 23.59L45.94 24.18V24.07L44.88 23.46Z" fill="#676767"/>
<path d="M56.4 19.66L56.86 19.39L57.24 19.62L56.79 19.88L56.4 19.66Z" fill="#CCCCCC"/>
<path d="M55.98 19.42L55.6 19.2L56.4 19.66L56.79 19.88L55.98 19.42Z" fill="#676767"/>
<path d="M54.93 20.03V20.14L54.54 19.92V19.81L54.93 20.03Z" fill="#CCCCCC"/>
<path d="M54.93 20.03L54.54 19.81L55.6 19.2L55.98 19.42L54.93 20.03Z" fill="#A0A0A0"/>
<path d="M55.98 19.42L56.79 19.88L57.24 19.62V19.73L56.75 20.01L55.94 19.56L54.93 20.14V20.03L55.98 19.42Z" fill="#676767"/>
<path d="M57.17 20.1L57.63 19.84L58.01 20.07L57.56 20.33L57.17 20.1Z" fill="#CCCCCC"/>
<path d="M56.75 19.87L56.37 19.65L57.17 20.1L57.56 20.33L56.75 19.87Z" fill="#676767"/>
<path d="M55.7 20.48V20.59L55.31 20.37V20.26L55.7 20.48Z" fill="#CCCCCC"/>
<path d="M55.7 20.48L55.31 20.26L56.37 19.65L56.75 19.87L55.7 20.48Z" fill="#A0A0A0"/>
<path d="M56.75 19.87L57.56 20.33L58.01 20.07V20.18L57.52 20.46L56.71 20L55.7 20.59V20.48L56.75 19.87Z" fill="#676767"/>
<path d="M57.94 20.56L58.4 20.29L58.78 20.52L58.33 20.78L57.94 20.56Z" fill="#CCCCCC"/>
<path d="M57.52 20.32L57.14 20.1L57.94 20.56L58.33 20.78L57.52 20.32Z" fill="#676767"/>
<path d="M56.47 20.93V21.04L56.09 20.82L56.08 20.71L56.47 20.93Z" fill="#CCCCCC"/>
<path d="M56.47 20.93L56.08 20.71L57.14 20.1L57.52 20.32L56.47 20.93Z" fill="#A0A0A0"/>
<path d="M57.52 20.32L58.33 20.78L58.78 20.52V20.63L58.29 20.91L57.48 20.46L56.47 21.04V20.93L57.52 20.32Z" fill="#676767"/>
<path d="M58.71 21L59.17 20.74L59.55 20.97L59.1 21.23L58.71 21Z" fill="#CCCCCC"/>
<path d="M58.29 20.77L57.91 20.55L58.71 21L59.1 21.23L58.29 20.77Z" fill="#676767"/>
<path d="M57.24 21.38V21.49L56.85 21.27V21.15L57.24 21.38Z" fill="#CCCCCC"/>
<path d="M57.24 21.38L56.85 21.15L57.91 20.55L58.29 20.77L57.24 21.38Z" fill="#A0A0A0"/>
<path d="M58.29 20.77L59.1 21.23L59.55 20.97V21.08L59.06 21.36L58.25 20.9L57.24 21.49V21.38L58.29 20.77Z" fill="#676767"/>
<path d="M59.49 21.45L59.94 21.19L60.33 21.41L59.87 21.68L59.49 21.45Z" fill="#CCCCCC"/>
<path d="M59.07 21.22L58.68 21L59.49 21.45L59.87 21.68L59.07 21.22Z" fill="#676767"/>
<path d="M58.01 21.83V21.94L57.63 21.71V21.6L58.01 21.83Z" fill="#CCCCCC"/>
<path d="M58.01 21.83L57.63 21.6L58.68 21L59.07 21.22L58.01 21.83Z" fill="#A0A0A0"/>
<path d="M59.07 21.22L59.87 21.68L60.33 21.41V21.53L59.83 21.81L59.03 21.35L58.01 21.94V21.83L59.07 21.22Z" fill="#676767"/>
<path d="M60.27 21.9L60.72 21.64L61.11 21.86L60.65 22.12L60.27 21.9Z" fill="#CCCCCC"/>
<path d="M59.85 21.67L59.46 21.44L60.27 21.9L60.65 22.12L59.85 21.67Z" fill="#676767"/>
<path d="M58.8 22.27V22.39L58.41 22.16V22.05L58.8 22.27Z" fill="#CCCCCC"/>
<path d="M58.8 22.27L58.41 22.05L59.46 21.44L59.85 21.67L58.8 22.27Z" fill="#A0A0A0"/>
<path d="M59.85 21.67L60.65 22.12L61.11 21.86V21.97L60.61 22.26L59.81 21.8L58.8 22.39V22.27L59.85 21.67Z" fill="#676767"/>
<path d="M61.04 22.35L61.49 22.09L61.88 22.31L61.43 22.57L61.04 22.35Z" fill="#CCCCCC"/>
<path d="M60.62 22.12L60.24 21.89L61.04 22.35L61.43 22.57L60.62 22.12Z" fill="#676767"/>
<path d="M59.57 22.72V22.84L59.18 22.61V22.5L59.57 22.72Z" fill="#CCCCCC"/>
<path d="M59.57 22.72L59.18 22.5L60.24 21.89L60.62 22.12L59.57 22.72Z" fill="#A0A0A0"/>
<path d="M60.62 22.12L61.43 22.57L61.88 22.31V22.42L61.39 22.71L60.58 22.25L59.57 22.84V22.72L60.62 22.12Z" fill="#676767"/>
<path d="M61.81 22.8L62.26 22.54L62.65 22.76L62.19 23.02L61.81 22.8Z" fill="#CCCCCC"/>
<path d="M61.39 22.56L61 22.34L61.81 22.8L62.19 23.02L61.39 22.56Z" fill="#676767"/>
<path d="M60.34 23.17V23.28L59.95 23.06V22.95L60.34 23.17Z" fill="#CCCCCC"/>
<path d="M60.34 23.17L59.95 22.95L61 22.34L61.39 22.56L60.34 23.17Z" fill="#A0A0A0"/>
<path d="M61.39 22.56L62.19 23.02L62.65 22.76V22.87L62.16 23.16L61.35 22.7L60.34 23.28V23.17L61.39 22.56Z" fill="#676767"/>
<path d="M62.58 23.25L63.04 22.99L63.42 23.21L62.97 23.47L62.58 23.25Z" fill="#CCCCCC"/>
<path d="M62.16 23.01L61.78 22.79L62.58 23.25L62.97 23.47L62.16 23.01Z" fill="#676767"/>
<path d="M61.11 23.62V23.73L60.72 23.51V23.4L61.11 23.62Z" fill="#CCCCCC"/>
<path d="M61.11 23.62L60.72 23.4L61.78 22.79L62.16 23.01L61.11 23.62Z" fill="#A0A0A0"/>
<path d="M62.16 23.01L62.97 23.47L63.42 23.21V23.32L62.93 23.61L62.12 23.15L61.11 23.73V23.62L62.16 23.01Z" fill="#676767"/>
<path d="M63.37 23.69L63.82 23.43L64.21 23.66L63.75 23.92L63.37 23.69Z" fill="#CCCCCC"/>
<path d="M62.95 23.46L62.56 23.24L63.37 23.69L63.75 23.92L62.95 23.46Z" fill="#676767"/>
<path d="M61.89 24.07V24.18L61.51 23.96V23.85L61.89 24.07Z" fill="#CCCCCC"/>
<path d="M61.89 24.07L61.51 23.85L62.56 23.24L62.95 23.46L61.89 24.07Z" fill="#A0A0A0"/>
<path d="M62.95 23.46L63.75 23.92L64.21 23.66V23.77L63.71 24.05L62.91 23.59L61.89 24.18V24.07L62.95 23.46Z" fill="#676767"/>
<path d="M62.38 23.75L54.54 19.22C54.04 19.22 53.75 19.22 53.25 19.22L45.46 23.75V24.49C45.46 24.78 45.46 24.95 45.46 25.24L53.3 29.77C53.8 29.77 54.09 29.77 54.59 29.77L62.38 25.24V24.5C62.38 24.21 62.38 24.05 62.38 23.75Z" fill="#545454"/>
<path d="M45.47 24.5V25.24C45.46 24.95 45.46 24.79 45.47 24.5V23.75C45.46 24.04 45.46 24.21 45.47 24.5Z" fill="#292C36"/>
<path d="M62.38 24.5V25.24L54.59 29.77V29.03L62.38 24.5Z" fill="#373C48"/>
<path d="M53.31 29.03L53.3 29.77L45.46 25.24L45.47 24.5L53.31 29.03Z" fill="#373C48"/>
<path d="M54.59 29.03V29.77C54.09 29.77 53.8 29.77 53.3 29.77V29.03C53.81 29.03 54.09 29.03 54.59 29.03Z" fill="#4E5463"/>
<path d="M62.38 23.75C62.38 24.04 62.38 24.21 62.39 24.5L54.6 29.03C54.1 29.03 53.81 29.03 53.31 29.03L45.47 24.5C45.47 24.21 45.47 24.04 45.47 23.75L53.26 19.22C53.76 19.22 54.04 19.22 54.55 19.22L62.38 23.75Z" fill="#292C36"/>
<path d="M62.38 22.89L54.54 18.36C54.04 18.36 53.75 18.36 53.25 18.36L45.46 22.89V23.63C45.46 23.92 45.46 24.09 45.46 24.38L53.3 28.91C53.8 28.91 54.09 28.91 54.59 28.91L62.38 24.38V23.64C62.38 23.35 62.38 23.18 62.38 22.89Z" fill="#545454"/>
<path d="M45.47 23.64V24.38C45.46 24.09 45.46 23.92 45.47 23.64V22.89C45.46 23.18 45.46 23.35 45.47 23.64Z" fill="#292C36"/>
<path d="M62.38 23.64V24.38L54.59 28.91V28.16L62.38 23.64Z" fill="#373C48"/>
<path d="M53.31 28.16L53.3 28.91L45.46 24.38L45.47 23.64L53.31 28.16Z" fill="#373C48"/>
<path d="M54.59 28.16V28.9C54.09 28.9 53.8 28.9 53.3 28.9V28.16C53.81 28.16 54.09 28.16 54.59 28.16Z" fill="#4E5463"/>
<path d="M62.38 22.89C62.38 23.18 62.38 23.34 62.39 23.64L54.6 28.17C54.1 28.17 53.81 28.17 53.31 28.17L45.47 23.64C45.47 23.35 45.47 23.18 45.47 22.89L53.26 18.36C53.76 18.36 54.04 18.36 54.55 18.36L62.38 22.89Z" fill="#596177"/>
<path d="M53.43 26.87L48.09 23.78L48.08 22.75L53.39 19.66H54.47L59.81 22.75L59.82 23.78L54.51 26.87H53.43Z" fill="#E0E0E0"/>
<path d="M63.77 26.64L64.16 26.42L63.36 25.04L62.97 25.26L63.77 26.64Z" fill="#CCCCCC"/>
<path d="M63.36 25.04L62.3 24.43L61.92 24.65L62.97 25.26L63.36 25.04Z" fill="#A0A0A0"/>
<path d="M64.23 26.91V27.02L64.61 26.79V26.68L64.23 26.91Z" fill="#CCCCCC"/>
<path d="M64.23 26.91L64.61 26.68L64.16 26.42L63.77 26.64L64.23 26.91Z" fill="#A0A0A0"/>
<path d="M63.77 26.64L62.97 25.26L61.92 24.65V24.76L62.93 25.35L63.73 26.73L64.23 27.02V26.91L63.77 26.64Z" fill="#676767"/>
<path d="M63 27.09L63.38 26.87L62.58 25.48L62.2 25.71L63 27.09Z" fill="#CCCCCC"/>
<path d="M62.58 25.48L61.53 24.88L61.15 25.1L62.2 25.71L62.58 25.48Z" fill="#A0A0A0"/>
<path d="M63.45 27.35V27.46L63.84 27.24V27.13L63.45 27.35Z" fill="#CCCCCC"/>
<path d="M63.45 27.35L63.84 27.13L63.38 26.87L63 27.09L63.45 27.35Z" fill="#A0A0A0"/>
<path d="M63 27.09L62.2 25.71L61.15 25.1V25.21L62.16 25.79L62.96 27.18L63.45 27.46V27.35L63 27.09Z" fill="#676767"/>
<path d="M62.22 27.54L62.61 27.32L61.81 25.94L61.42 26.16L62.22 27.54Z" fill="#CCCCCC"/>
<path d="M61.81 25.94L60.75 25.33L60.37 25.55L61.42 26.16L61.81 25.94Z" fill="#A0A0A0"/>
<path d="M62.68 27.8V27.92L63.06 27.69V27.58L62.68 27.8Z" fill="#CCCCCC"/>
<path d="M62.68 27.8L63.06 27.58L62.61 27.32L62.22 27.54L62.68 27.8Z" fill="#A0A0A0"/>
<path d="M62.22 27.54L61.42 26.16L60.37 25.55V25.66L61.38 26.25L62.18 27.63L62.68 27.92V27.8L62.22 27.54Z" fill="#676767"/>
<path d="M61.45 27.99L61.84 27.77L61.04 26.38L60.65 26.61L61.45 27.99Z" fill="#CCCCCC"/>
<path d="M61.04 26.38L59.98 25.77L59.6 26L60.65 26.61L61.04 26.38Z" fill="#A0A0A0"/>
<path d="M61.91 28.25V28.36L62.29 28.14V28.03L61.91 28.25Z" fill="#CCCCCC"/>
<path d="M61.91 28.25L62.29 28.03L61.84 27.77L61.45 27.99L61.91 28.25Z" fill="#A0A0A0"/>
<path d="M61.45 27.99L60.65 26.61L59.6 26V26.11L60.61 26.69L61.41 28.08L61.91 28.36V28.25L61.45 27.99Z" fill="#676767"/>
<path d="M60.67 28.44L61.06 28.21L60.26 26.83L59.87 27.05L60.67 28.44Z" fill="#CCCCCC"/>
<path d="M60.26 26.83L59.2 26.22L58.82 26.45L59.87 27.05L60.26 26.83Z" fill="#A0A0A0"/>
<path d="M61.13 28.7V28.81L61.51 28.59V28.48L61.13 28.7Z" fill="#CCCCCC"/>
<path d="M61.13 28.7L61.51 28.48L61.06 28.21L60.67 28.44L61.13 28.7Z" fill="#A0A0A0"/>
<path d="M60.67 28.44L59.87 27.05L58.82 26.45V26.56L59.83 27.14L60.63 28.53L61.13 28.81V28.7L60.67 28.44Z" fill="#676767"/>
<path d="M59.9 28.89L60.28 28.67L59.48 27.28L59.1 27.51L59.9 28.89Z" fill="#CCCCCC"/>
<path d="M59.48 27.28L58.43 26.68L58.04 26.9L59.1 27.51L59.48 27.28Z" fill="#A0A0A0"/>
<path d="M60.35 29.15V29.27L60.74 29.04V28.93L60.35 29.15Z" fill="#CCCCCC"/>
<path d="M60.35 29.15L60.74 28.93L60.28 28.67L59.9 28.89L60.35 29.15Z" fill="#A0A0A0"/>
<path d="M59.9 28.89L59.1 27.51L58.04 26.9V27.01L59.06 27.6L59.86 28.98L60.35 29.27V29.15L59.9 28.89Z" fill="#676767"/>
<path d="M59.12 29.34L59.51 29.12L58.71 27.74L58.32 27.96L59.12 29.34Z" fill="#CCCCCC"/>
<path d="M58.71 27.74L57.65 27.13L57.27 27.35L58.32 27.96L58.71 27.74Z" fill="#A0A0A0"/>
<path d="M59.58 29.61V29.72L59.96 29.5V29.38L59.58 29.61Z" fill="#CCCCCC"/>
<path d="M59.58 29.61L59.96 29.38L59.51 29.12L59.12 29.34L59.58 29.61Z" fill="#A0A0A0"/>
<path d="M59.12 29.34L58.32 27.96L57.27 27.35V27.46L58.28 28.05L59.08 29.43L59.58 29.72V29.61L59.12 29.34Z" fill="#676767"/>
<path d="M58.35 29.79L58.74 29.57L57.94 28.18L57.55 28.41L58.35 29.79Z" fill="#CCCCCC"/>
<path d="M57.94 28.18L56.88 27.58L56.5 27.8L57.55 28.41L57.94 28.18Z" fill="#A0A0A0"/>
<path d="M58.81 30.05V30.17L59.19 29.94V29.83L58.81 30.05Z" fill="#CCCCCC"/>
<path d="M58.81 30.05L59.19 29.83L58.74 29.57L58.35 29.79L58.81 30.05Z" fill="#A0A0A0"/>
<path d="M58.35 29.79L57.55 28.41L56.5 27.8V27.91L57.51 28.5L58.31 29.88L58.81 30.17V30.05L58.35 29.79Z" fill="#676767"/>
<path d="M57.58 30.24L57.97 30.02L57.17 28.63L56.78 28.86L57.58 30.24Z" fill="#CCCCCC"/>
<path d="M57.17 28.63L56.11 28.02L55.73 28.25L56.78 28.86L57.17 28.63Z" fill="#A0A0A0"/>
<path d="M58.04 30.5V30.61L58.42 30.39V30.28L58.04 30.5Z" fill="#CCCCCC"/>
<path d="M58.04 30.5L58.42 30.28L57.97 30.02L57.58 30.24L58.04 30.5Z" fill="#A0A0A0"/>
<path d="M57.58 30.24L56.78 28.86L55.73 28.25V28.36L56.74 28.94L57.54 30.33L58.04 30.61V30.5L57.58 30.24Z" fill="#676767"/>
<path d="M56.8 30.69L57.19 30.47L56.39 29.09L56 29.31L56.8 30.69Z" fill="#CCCCCC"/>
<path d="M56.39 29.09L55.33 28.48L54.95 28.7L56 29.31L56.39 29.09Z" fill="#A0A0A0"/>
<path d="M57.26 30.96V31.07L57.64 30.84V30.73L57.26 30.96Z" fill="#CCCCCC"/>
<path d="M57.26 30.96L57.64 30.73L57.19 30.47L56.8 30.69L57.26 30.96Z" fill="#A0A0A0"/>
<path d="M56.8 30.69L56 29.31L54.95 28.7V28.81L55.96 29.4L56.76 30.78L57.26 31.07V30.96L56.8 30.69Z" fill="#676767"/>
<path d="M44.08 26.64L43.69 26.42L44.49 25.04L44.88 25.26L44.08 26.64Z" fill="#CCCCCC"/>
<path d="M44.49 25.04L45.55 24.43L45.93 24.65L44.88 25.26L44.49 25.04Z" fill="#A0A0A0"/>
<path d="M43.63 26.91V27.02L43.24 26.79V26.68L43.63 26.91Z" fill="#CCCCCC"/>
<path d="M43.63 26.91L43.24 26.68L43.69 26.42L44.08 26.64L43.63 26.91Z" fill="#A0A0A0"/>
<path d="M44.08 26.64L44.88 25.26L45.93 24.65V24.76L44.92 25.35L44.12 26.73L43.63 27.02V26.91L44.08 26.64Z" fill="#676767"/>
<path d="M44.85 27.09L44.47 26.87L45.27 25.48L45.65 25.71L44.85 27.09Z" fill="#CCCCCC"/>
<path d="M45.27 25.48L46.32 24.88L46.71 25.1L45.65 25.71L45.27 25.48Z" fill="#A0A0A0"/>
<path d="M44.4 27.35V27.46L44.01 27.24V27.13L44.4 27.35Z" fill="#CCCCCC"/>
<path d="M44.4 27.35L44.01 27.13L44.47 26.87L44.85 27.09L44.4 27.35Z" fill="#A0A0A0"/>
<path d="M44.85 27.09L45.65 25.71L46.71 25.1V25.21L45.69 25.79L44.89 27.18L44.4 27.46V27.35L44.85 27.09Z" fill="#676767"/>
<path d="M45.64 27.54L45.25 27.31L46.05 25.93L46.44 26.15L45.64 27.54Z" fill="#CCCCCC"/>
<path d="M46.05 25.93L47.1 25.32L47.49 25.54L46.44 26.15L46.05 25.93Z" fill="#A0A0A0"/>
<path d="M45.18 27.8V27.91L44.8 27.69V27.58L45.18 27.8Z" fill="#CCCCCC"/>
<path d="M45.18 27.8L44.8 27.58L45.25 27.31L45.64 27.54L45.18 27.8Z" fill="#A0A0A0"/>
<path d="M45.64 27.54L46.44 26.15L47.49 25.54V25.66L46.48 26.24L45.68 27.62L45.18 27.91V27.8L45.64 27.54Z" fill="#676767"/>
<path d="M46.41 27.99L46.03 27.77L46.83 26.38L47.21 26.61L46.41 27.99Z" fill="#CCCCCC"/>
<path d="M46.83 26.38L47.88 25.77L48.26 26L47.21 26.61L46.83 26.38Z" fill="#A0A0A0"/>
<path d="M45.96 28.25V28.36L45.57 28.14V28.03L45.96 28.25Z" fill="#CCCCCC"/>
<path d="M45.96 28.25L45.57 28.03L46.03 27.77L46.41 27.99L45.96 28.25Z" fill="#A0A0A0"/>
<path d="M46.41 27.99L47.21 26.61L48.26 26L48.27 26.11L47.25 26.69L46.45 28.08L45.96 28.36V28.25L46.41 27.99Z" fill="#676767"/>
<path d="M47.19 28.44L46.81 28.21L47.61 26.83L47.99 27.05L47.19 28.44Z" fill="#CCCCCC"/>
<path d="M47.61 26.83L48.66 26.22L49.04 26.45L47.99 27.05L47.61 26.83Z" fill="#A0A0A0"/>
<path d="M46.74 28.7V28.81L46.35 28.59V28.48L46.74 28.7Z" fill="#CCCCCC"/>
<path d="M46.74 28.7L46.35 28.48L46.81 28.21L47.19 28.44L46.74 28.7Z" fill="#A0A0A0"/>
<path d="M47.19 28.44L47.99 27.05L49.04 26.45V26.56L48.03 27.14L47.23 28.53L46.74 28.81V28.7L47.19 28.44Z" fill="#676767"/>
<path d="M47.97 28.89L47.59 28.67L48.38 27.28L48.77 27.51L47.97 28.89Z" fill="#CCCCCC"/>
<path d="M48.38 27.28L49.44 26.68L49.82 26.9L48.77 27.51L48.38 27.28Z" fill="#A0A0A0"/>
<path d="M47.52 29.15V29.27L47.13 29.04V28.93L47.52 29.15Z" fill="#CCCCCC"/>
<path d="M47.52 29.15L47.13 28.93L47.59 28.67L47.97 28.89L47.52 29.15Z" fill="#A0A0A0"/>
<path d="M47.97 28.89L48.77 27.51L49.82 26.9V27.01L48.81 27.6L48.01 28.98L47.52 29.27V29.15L47.97 28.89Z" fill="#676767"/>
<path d="M48.75 29.34L48.37 29.12L49.17 27.74L49.55 27.96L48.75 29.34Z" fill="#CCCCCC"/>
<path d="M49.17 27.74L50.22 27.13L50.61 27.35L49.55 27.96L49.17 27.74Z" fill="#A0A0A0"/>
<path d="M48.3 29.61V29.72L47.91 29.5V29.38L48.3 29.61Z" fill="#CCCCCC"/>
<path d="M48.3 29.61L47.91 29.38L48.37 29.12L48.75 29.34L48.3 29.61Z" fill="#A0A0A0"/>
<path d="M48.75 29.34L49.55 27.96L50.61 27.35V27.46L49.59 28.05L48.79 29.43L48.3 29.72V29.61L48.75 29.34Z" fill="#676767"/>
<path d="M49.53 29.79L49.14 29.57L49.94 28.18L50.33 28.41L49.53 29.79Z" fill="#CCCCCC"/>
<path d="M49.94 28.18L51 27.58L51.38 27.8L50.33 28.41L49.94 28.18Z" fill="#A0A0A0"/>
<path d="M49.07 30.05V30.17L48.69 29.94V29.83L49.07 30.05Z" fill="#CCCCCC"/>
<path d="M49.07 30.05L48.69 29.83L49.14 29.57L49.53 29.79L49.07 30.05Z" fill="#A0A0A0"/>
<path d="M49.53 29.79L50.33 28.41L51.38 27.8V27.91L50.37 28.5L49.57 29.88L49.07 30.17V30.05L49.53 29.79Z" fill="#676767"/>
<path d="M50.31 30.24L49.92 30.02L50.72 28.63L51.11 28.86L50.31 30.24Z" fill="#CCCCCC"/>
<path d="M50.72 28.63L51.78 28.02L52.16 28.25L51.11 28.86L50.72 28.63Z" fill="#A0A0A0"/>
<path d="M49.85 30.5V30.61L49.47 30.39V30.28L49.85 30.5Z" fill="#CCCCCC"/>
<path d="M49.85 30.5L49.47 30.28L49.92 30.02L50.31 30.24L49.85 30.5Z" fill="#A0A0A0"/>
<path d="M50.31 30.24L51.11 28.86L52.16 28.25V28.36L51.15 28.94L50.35 30.33L49.85 30.61V30.5L50.31 30.24Z" fill="#676767"/>
<path d="M51.09 30.69L50.7 30.47L51.5 29.09L51.89 29.31L51.09 30.69Z" fill="#CCCCCC"/>
<path d="M51.5 29.09L52.56 28.48L52.94 28.7L51.89 29.31L51.5 29.09Z" fill="#A0A0A0"/>
<path d="M50.63 30.96V31.07L50.25 30.84V30.73L50.63 30.96Z" fill="#CCCCCC"/>
<path d="M50.63 30.96L50.25 30.73L50.7 30.47L51.09 30.69L50.63 30.96Z" fill="#A0A0A0"/>
<path d="M51.09 30.69L51.89 29.31L52.94 28.7V28.81L51.93 29.4L51.13 30.78L50.63 31.07V30.96L51.09 30.69Z" fill="#676767"/>
</svg>
