<svg width="66" height="79" viewBox="0 0 66 79" fill="none" xmlns="http://www.w3.org/2000/svg">
<path d="M28.18 44.9L25.89 43.58L23.96 44.7L26.24 46.02L28.18 44.9Z" fill="#A0A0A0"/>
<path d="M30.29 43.72L32.22 42.59L28.18 44.9L26.24 46.02L30.29 43.72Z" fill="#676767"/>
<path d="M35.58 46.78V47.34L37.52 46.21V45.65L35.58 46.78Z" fill="#CCCCCC"/>
<path d="M35.58 46.78L37.52 45.65L32.22 42.59L30.29 43.72L35.58 46.78Z" fill="#A0A0A0"/>
<path d="M30.29 43.72L26.24 46.02L23.96 44.7V45.26L26.44 46.7L30.48 44.39L35.58 47.34V46.78L30.29 43.72Z" fill="#676767"/>
<path d="M24.29 47.15L22.01 45.83L20.07 46.96L22.36 48.28L24.29 47.15Z" fill="#A0A0A0"/>
<path d="M26.4 45.98L28.33 44.85L24.29 47.15L22.36 48.28L26.4 45.98Z" fill="#676767"/>
<path d="M31.7 49.03L31.69 49.59L33.63 48.47V47.91L31.7 49.03Z" fill="#CCCCCC"/>
<path d="M31.7 49.03L33.63 47.91L28.33 44.85L26.4 45.98L31.7 49.03Z" fill="#A0A0A0"/>
<path d="M26.4 45.98L22.36 48.28L20.07 46.96V47.52L22.55 48.95L26.59 46.65L31.69 49.59L31.7 49.03L26.4 45.98Z" fill="#676767"/>
<path d="M20.35 49.4L18.07 48.08L16.13 49.21L18.42 50.53L20.35 49.4Z" fill="#A0A0A0"/>
<path d="M22.46 48.22L24.4 47.1L20.35 49.4L18.42 50.53L22.46 48.22Z" fill="#676767"/>
<path d="M27.76 51.28V51.84L29.69 50.72V50.16L27.76 51.28Z" fill="#CCCCCC"/>
<path d="M27.76 51.28L29.69 50.16L24.4 47.1L22.46 48.22L27.76 51.28Z" fill="#A0A0A0"/>
<path d="M22.46 48.22L18.42 50.53L16.13 49.21V49.77L18.62 51.2L22.66 48.9L27.76 51.84V51.28L22.46 48.22Z" fill="#676767"/>
<path d="M16.47 51.66L14.19 50.34L12.25 51.47L14.54 52.79L16.47 51.66Z" fill="#A0A0A0"/>
<path d="M18.58 50.49L20.52 49.36L16.47 51.66L14.54 52.79L18.58 50.49Z" fill="#676767"/>
<path d="M23.88 53.54V54.1L25.81 52.98V52.42L23.88 53.54Z" fill="#CCCCCC"/>
<path d="M23.88 53.54L25.81 52.42L20.52 49.36L18.58 50.49L23.88 53.54Z" fill="#A0A0A0"/>
<path d="M18.58 50.49L14.54 52.79L12.25 51.47V52.03L14.73 53.46L18.78 51.16L23.88 54.1V53.54L18.58 50.49Z" fill="#676767"/>
<path d="M12.61 53.92L10.32 52.6L8.38 53.72L10.67 55.04L12.61 53.92Z" fill="#CCCCCC"/>
<path d="M14.71 52.74L16.65 51.62L12.61 53.92L10.67 55.04L14.71 52.74Z" fill="#676767"/>
<path d="M20.01 55.8V56.36L21.95 55.23V54.67L20.01 55.8Z" fill="#CCCCCC"/>
<path d="M20.01 55.8L21.95 54.67L16.65 51.62L14.71 52.74L20.01 55.8Z" fill="#A0A0A0"/>
<path d="M14.71 52.74L10.67 55.04L8.38 53.72V54.28L10.87 55.72L14.91 53.41L20.01 56.36V55.8L14.71 52.74Z" fill="#676767"/>
<path d="M8.72 56.17L6.42999 54.86L4.5 55.98L6.78 57.3L8.72 56.17Z" fill="#CCCCCC"/>
<path d="M10.83 55L12.76 53.87L8.72 56.17L6.78 57.3L10.83 55Z" fill="#676767"/>
<path d="M16.12 58.06V58.61L18.06 57.49V56.93L16.12 58.06Z" fill="#CCCCCC"/>
<path d="M16.12 58.06L18.06 56.93L12.76 53.87L10.83 55L16.12 58.06Z" fill="#A0A0A0"/>
<path d="M10.83 55L6.78 57.3L4.5 55.98V56.54L6.98001 57.97L11.02 55.67L16.12 58.61V58.06L10.83 55Z" fill="#676767"/>
<path d="M4.78 58.42L2.5 57.1L0.559998 58.23L2.85001 59.55L4.78 58.42Z" fill="#CCCCCC"/>
<path d="M6.89001 57.25L8.82999 56.12L4.78 58.42L2.85001 59.55L6.89001 57.25Z" fill="#676767"/>
<path d="M12.19 60.31L12.18 60.86L14.12 59.74V59.18L12.19 60.31Z" fill="#CCCCCC"/>
<path d="M12.19 60.31L14.12 59.18L8.82999 56.12L6.89001 57.25L12.19 60.31Z" fill="#A0A0A0"/>
<path d="M6.89001 57.25L2.85001 59.55L0.559998 58.23V58.79L3.04001 60.22L7.09 57.92L12.18 60.86L12.19 60.31L6.89001 57.25Z" fill="#676767"/>
<path d="M9.73999 58.73L41.06 40.62C43.59 40.62 45.01 40.62 47.54 40.62L58.16 46.77L58.17 50.5C58.16 51.97 58.16 52.79 58.15 54.25L26.83 72.36C24.3 72.36 22.88 72.36 20.35 72.36L9.73001 66.21L9.72 62.48C9.72 61.01 9.72999 60.19 9.73999 58.73Z" fill="#545454"/>
<path d="M58.14 50.51L58.15 54.24C58.16 52.77 58.16 51.95 58.17 50.49L58.16 46.76C58.15 48.22 58.15 49.04 58.14 50.51Z" fill="#292C36"/>
<path d="M9.70999 62.46L9.72 66.2L20.34 72.35L20.33 68.62L9.70999 62.46Z" fill="#4E5463"/>
<path d="M26.82 68.62L26.83 72.35L58.15 54.24L58.14 50.51L26.82 68.62Z" fill="#292C36"/>
<path d="M20.33 68.62L20.34 72.35C22.87 72.35 24.29 72.35 26.82 72.35L26.81 68.62C24.29 68.62 22.86 68.62 20.33 68.62Z" fill="#373C48"/>
<path d="M9.73999 58.71C9.72999 60.17 9.71999 61 9.70999 62.46L20.33 68.61C22.86 68.61 24.28 68.61 26.81 68.61L58.13 50.5C58.14 49.04 58.14 48.21 58.15 46.75L47.53 40.6C45 40.6 43.58 40.6 41.05 40.6L9.73999 58.71Z" fill="#1E1616"/>
<path d="M9.73999 18.9L41.06 0.790001C43.59 0.790001 45.01 0.790001 47.54 0.790001L58.16 6.94L58.17 10.67C58.16 12.13 58.16 48.45 58.15 49.92L26.83 68.03C24.3 68.03 22.88 68.03 20.35 68.03L9.73001 61.88L9.72 22.65C9.72 21.19 9.72999 20.37 9.73999 18.9Z" fill="#545454"/>
<path d="M58.14 10.69L58.15 49.92C58.16 48.46 58.16 12.14 58.17 10.67L58.16 6.94C58.15 8.4 58.15 9.22 58.14 10.69Z" fill="#292C36"/>
<path d="M9.70999 22.64L9.72 61.87L20.34 68.02L20.33 28.79L9.70999 22.64Z" fill="#4E5463"/>
<path d="M26.82 28.79L26.83 68.02L58.15 49.92L58.14 10.69L26.82 28.79Z" fill="#292C36"/>
<path d="M20.33 28.79L20.34 68.02C22.87 68.02 24.29 68.02 26.82 68.02L26.81 28.79C24.29 28.79 22.86 28.79 20.33 28.79Z" fill="#373C48"/>
<path d="M9.73999 18.89C9.72999 20.36 9.71999 21.18 9.70999 22.64L20.33 28.79C22.86 28.79 24.28 28.79 26.81 28.79L58.13 10.68C58.14 9.21 58.14 8.39 58.15 6.93L47.53 0.779999C45 0.779999 43.58 0.779999 41.05 0.779999L9.73999 18.89Z" fill="#596177"/>
<path d="M61.47 63.41L63.41 62.28L59.39 55.33L57.46 56.45L61.47 63.41Z" fill="#CCCCCC"/>
<path d="M59.39 55.33L54.09 52.27L52.16 53.39L57.46 56.45L59.39 55.33Z" fill="#A0A0A0"/>
<path d="M63.76 64.73V65.29L65.69 64.16L65.7 63.6L63.76 64.73Z" fill="#CCCCCC"/>
<path d="M63.76 64.73L65.7 63.6L63.41 62.28L61.47 63.41L63.76 64.73Z" fill="#A0A0A0"/>
<path d="M61.47 63.41L57.46 56.45L52.16 53.39V53.95L57.26 56.9L61.27 63.85L63.76 65.29V64.73L61.47 63.41Z" fill="#676767"/>
<path d="M57.55 65.66L59.49 64.53L55.47 57.58L53.54 58.7L57.55 65.66Z" fill="#CCCCCC"/>
<path d="M55.47 57.58L50.17 54.52L48.24 55.64L53.54 58.7L55.47 57.58Z" fill="#A0A0A0"/>
<path d="M59.84 66.98V67.54L61.77 66.41L61.78 65.85L59.84 66.98Z" fill="#CCCCCC"/>
<path d="M59.84 66.98L61.78 65.85L59.49 64.53L57.55 65.66L59.84 66.98Z" fill="#A0A0A0"/>
<path d="M57.55 65.66L53.54 58.7L48.24 55.64V56.2L53.34 59.15L57.35 66.1L59.84 67.54V66.98L57.55 65.66Z" fill="#676767"/>
<path d="M53.63 67.94L55.57 66.82L51.55 59.86L49.62 60.99L53.63 67.94Z" fill="#CCCCCC"/>
<path d="M51.55 59.86L46.25 56.8L44.32 57.93L49.62 60.99L51.55 59.86Z" fill="#A0A0A0"/>
<path d="M55.92 69.26V69.82L57.85 68.7L57.86 68.14L55.92 69.26Z" fill="#CCCCCC"/>
<path d="M55.92 69.26L57.86 68.14L55.57 66.82L53.63 67.94L55.92 69.26Z" fill="#A0A0A0"/>
<path d="M53.63 67.94L49.62 60.99L44.32 57.93V58.49L49.42 61.43L53.43 68.39L55.92 69.82V69.26L53.63 67.94Z" fill="#676767"/>
<path d="M49.7 70.22L51.64 69.1L47.62 62.14L45.68 63.27L49.7 70.22Z" fill="#CCCCCC"/>
<path d="M47.62 62.14L42.32 59.08L40.38 60.21L45.68 63.27L47.62 62.14Z" fill="#A0A0A0"/>
<path d="M51.99 71.54L51.98 72.1L53.92 70.97V70.42L51.99 71.54Z" fill="#CCCCCC"/>
<path d="M51.99 71.54L53.92 70.42L51.64 69.1L49.7 70.22L51.99 71.54Z" fill="#A0A0A0"/>
<path d="M49.7 70.22L45.68 63.27L40.38 60.21V60.77L45.48 63.71L49.5 70.67L51.98 72.1L51.99 71.54L49.7 70.22Z" fill="#676767"/>
<path d="M45.8 72.47L47.74 71.34L43.73 64.39L41.79 65.51L45.8 72.47Z" fill="#CCCCCC"/>
<path d="M43.73 64.39L38.43 61.33L36.49 62.45L41.79 65.51L43.73 64.39Z" fill="#A0A0A0"/>
<path d="M48.09 73.79V74.35L50.03 73.22V72.66L48.09 73.79Z" fill="#CCCCCC"/>
<path d="M48.09 73.79L50.03 72.66L47.74 71.34L45.8 72.47L48.09 73.79Z" fill="#A0A0A0"/>
<path d="M45.8 72.47L41.79 65.51L36.49 62.45V63.01L41.59 65.96L45.6 72.91L48.09 74.35V73.79L45.8 72.47Z" fill="#676767"/>
<path d="M41.88 74.72L43.82 73.6L39.8 66.64L37.86 67.77L41.88 74.72Z" fill="#CCCCCC"/>
<path d="M39.8 66.64L34.5 63.58L32.56 64.71L37.86 67.77L39.8 66.64Z" fill="#A0A0A0"/>
<path d="M44.17 76.04L44.16 76.6L46.1 75.47V74.92L44.17 76.04Z" fill="#CCCCCC"/>
<path d="M44.17 76.04L46.1 74.92L43.82 73.6L41.88 74.72L44.17 76.04Z" fill="#A0A0A0"/>
<path d="M41.88 74.72L37.86 67.77L32.56 64.71V65.26L37.66 68.21L41.68 75.16L44.16 76.6L44.17 76.04L41.88 74.72Z" fill="#676767"/>
<path d="M37.96 77L39.9 75.88L35.88 68.92L33.94 70.04L37.96 77Z" fill="#CCCCCC"/>
<path d="M35.88 68.92L30.58 65.86L28.64 66.99L33.94 70.04L35.88 68.92Z" fill="#A0A0A0"/>
<path d="M40.25 78.32L40.24 78.88L42.18 77.75V77.2L40.25 78.32Z" fill="#CCCCCC"/>
<path d="M40.25 78.32L42.18 77.2L39.9 75.88L37.96 77L40.25 78.32Z" fill="#A0A0A0"/>
<path d="M37.96 77L33.94 70.04L28.64 66.99V67.54L33.74 70.49L37.76 77.44L40.24 78.88L40.25 78.32L37.96 77Z" fill="#676767"/>
<path d="M45.23 3.02C44.4 3.5 44.41 4.29 45.24 4.77C46.08 5.26 47.44 5.25 48.27 4.77C49.11 4.28 49.1 3.5 48.26 3.02C47.42 2.54 46.06 2.54 45.23 3.02Z" fill="#1E1616"/>
<path d="M54.11 6.4C53.27 5.91 51.92 5.91 51.08 6.4C50.25 6.88 50.25 7.67 51.09 8.15C51.92 8.63 53.29 8.63 54.11 8.15C54.96 7.67 54.95 6.89 54.11 6.4Z" fill="#1E1616"/>
<path d="M40.71 7.4C41.55 7.89 42.91 7.88 43.74 7.4C44.57 6.91 44.57 6.13 43.73 5.65C42.9 5.17 41.54 5.17 40.7 5.65C39.88 6.13 39.88 6.92 40.71 7.4Z" fill="#1E1616"/>
<path d="M49.59 9.03C48.75 8.55 47.4 8.55 46.57 9.03C45.74 9.51 45.74 10.3 46.58 10.78C47.41 11.26 48.78 11.26 49.6 10.78C50.44 10.3 50.42 9.52 49.59 9.03Z" fill="#1E1616"/>
<path d="M36.19 10.03C37.03 10.52 38.38 10.52 39.22 10.03C40.05 9.54 40.05 8.76 39.21 8.28C38.38 7.8 37.02 7.79 36.19 8.28C35.35 8.76 35.36 9.55 36.19 10.03Z" fill="#1E1616"/>
<path d="M45.07 11.66C44.23 11.17 42.88 11.17 42.05 11.66C41.21 12.15 41.22 12.93 42.06 13.41C42.89 13.89 44.25 13.9 45.08 13.41C45.91 12.93 45.9 12.14 45.07 11.66Z" fill="#1E1616"/>
<path d="M31.67 12.66C32.51 13.15 33.86 13.15 34.69 12.66C35.53 12.18 35.52 11.39 34.68 10.91C33.85 10.43 32.49 10.42 31.66 10.91C30.82 11.39 30.83 12.18 31.67 12.66Z" fill="#1E1616"/>
<path d="M40.54 14.29C39.7 13.8 38.35 13.8 37.51 14.29C36.68 14.78 36.68 15.56 37.52 16.04C38.35 16.52 39.71 16.53 40.55 16.04C41.39 15.56 41.38 14.77 40.54 14.29Z" fill="#1E1616"/>
<path d="M27.15 15.29C27.99 15.78 29.34 15.78 30.17 15.29C31 14.8 31 14.02 30.16 13.54C29.33 13.06 27.97 13.05 27.13 13.54C26.3 14.02 26.31 14.8 27.15 15.29Z" fill="#1E1616"/>
<path d="M36.02 16.92C35.18 16.43 33.83 16.43 32.99 16.92C32.16 17.41 32.16 18.19 33 18.67C33.83 19.15 35.19 19.16 36.03 18.67C36.87 18.19 36.86 17.4 36.02 16.92Z" fill="#1E1616"/>
<path d="M22.62 17.91C23.46 18.4 24.81 18.4 25.65 17.91C26.48 17.43 26.48 16.64 25.64 16.16C24.81 15.68 23.44 15.68 22.61 16.16C21.78 16.65 21.79 17.43 22.62 17.91Z" fill="#1E1616"/>
<path d="M31.5 19.55C30.66 19.06 29.3 19.07 28.47 19.55C27.63 20.04 27.64 20.82 28.48 21.3C29.31 21.78 30.67 21.79 31.51 21.3C32.34 20.82 32.33 20.03 31.5 19.55Z" fill="#1E1616"/>
<path d="M18.1 20.54C18.94 21.03 20.29 21.03 21.13 20.54C21.96 20.06 21.96 19.27 21.12 18.79C20.28 18.31 18.92 18.31 18.09 18.79C17.26 19.28 17.27 20.06 18.1 20.54Z" fill="#1E1616"/>
<path d="M26.98 22.17C26.14 21.69 24.78 21.69 23.96 22.17C23.13 22.66 23.13 23.44 23.97 23.92C24.8 24.4 26.16 24.41 26.99 23.92C27.82 23.44 27.81 22.66 26.98 22.17Z" fill="#1E1616"/>
<path d="M13.58 23.17C14.42 23.66 15.77 23.66 16.6 23.17C17.43 22.69 17.43 21.9 16.59 21.42C15.76 20.94 14.39 20.94 13.57 21.42C12.73 21.9 12.74 22.69 13.58 23.17Z" fill="#1E1616"/>
<path d="M22.46 26.55C23.29 26.07 23.29 25.28 22.45 24.8C21.61 24.31 20.25 24.32 19.42 24.8C18.58 25.29 18.59 26.07 19.43 26.55C20.27 27.04 21.63 27.04 22.46 26.55Z" fill="#1E1616"/>
</svg>
