<svg width="33" height="19" viewBox="0 0 33 19" fill="none" xmlns="http://www.w3.org/2000/svg">
<path d="M1.76999 16.09C0.699993 16.71 0.709988 17.72 1.77999 18.34C2.85999 18.96 4.59999 18.97 5.66999 18.34L15.4 12.69L11.5 10.44L1.76999 16.09ZM5.13999 17.77C4.47999 18.15 3.41998 18.15 2.75998 17.77C2.09998 17.39 2.09999 16.77 2.74999 16.39C3.39999 16.01 4.46999 16.01 5.12999 16.39C5.78999 16.77 5.78999 17.39 5.13999 17.77Z" fill="#0080FF"/>
<path d="M31.62 3.31C32.69 2.69 32.68 1.68 31.6 1.06C30.52 0.440001 28.79 0.440001 27.72 1.06L17.99 6.71001L21.89 8.96001L31.62 3.31ZM28.25 1.62C28.9 1.24 29.97 1.24 30.62 1.62C31.28 2 31.28 2.62001 30.63 2.99001C29.97 3.37001 28.91 3.37001 28.25 2.99001C27.6 2.62001 27.59 2 28.25 1.62Z" fill="#0080FF"/>
<path d="M12.18 11.38L12.19 14.56L8.27998 12.31L8.26999 9.13L12.18 11.38Z" fill="#D4AA00"/>
<path d="M14.56 10L22.92 5.17L22.94 5.17999V8.34L14.56 13.19V13.16V10Z" fill="#CE2020"/>
<path d="M22.92 5.17L25.12 3.89L25.13 7.07001L22.94 8.34V5.17999L22.92 5.17Z" fill="#FFE000"/>
<path d="M14.56 10V13.16V13.19L12.19 14.56L12.18 11.38L14.56 10Z" fill="#FFE000"/>
<path d="M14.56 10L12.18 11.38L8.26999 9.13L10.66 7.75L14.56 9.98V10Z" fill="#FFF3C2"/>
<path d="M14.56 10V9.98L10.66 7.75L19 2.92L22.92 5.17L14.56 10Z" fill="#F74141"/>
<path d="M19 2.92L21.21 1.64999L25.12 3.89L22.92 5.17L19 2.92Z" fill="#FFF3C2"/>
</svg>
