<svg width="43" height="31" viewBox="0 0 43 31" fill="none" xmlns="http://www.w3.org/2000/svg">
<path d="M26.24 24.55L26.22 30.52L42.01 21.42L42.03 15.45L26.24 24.55Z" fill="#CCCCCC"/>
<path d="M0.529984 9.69L0.519989 15.66L26.22 30.52L26.24 24.55L0.529984 9.69Z" fill="#A0A0A0"/>
<path d="M42.03 15.45L16.32 0.580002L0.529984 9.69L26.24 24.55L42.03 15.45Z" fill="#E0E0E0"/>
<path d="M26.25 20.41L26.23 22.42L37.63 15.79L37.65 13.78L26.25 20.41Z" fill="#4E5463"/>
<path d="M4.00998 7.57001L3.98999 9.58L26.23 22.42L26.25 20.41L4.00998 7.57001Z" fill="#373C48"/>
<path d="M37.65 13.78L15.41 0.940002L4.00998 7.57001L26.25 20.41L37.65 13.78Z" fill="#596177"/>
<path d="M21.13 6.64L17.07 4.28999L9.80998 8.50999L13.87 10.86L21.13 6.64ZM12.4 8.52L17.08 5.8L18.54 6.64L13.86 9.36L12.4 8.52Z" fill="#CCCCCC"/>
<path d="M22.43 7.39L15.17 11.61L17.2 12.78L19.23 13.95L26.49 9.73L22.43 7.39ZM19.22 12.46L17.75 11.61L22.43 8.89L23.9 9.74001L19.22 12.46Z" fill="#CCCCCC"/>
<path d="M27.79 10.49L20.53 14.71L24.59 17.06L31.85 12.84L27.79 10.49ZM24.58 15.55L23.12 14.71L27.8 11.99L29.26 12.83L24.58 15.55Z" fill="#CCCCCC"/>
</svg>
