<svg width="408" height="347" viewBox="0 0 408 347" fill="none" xmlns="http://www.w3.org/2000/svg">
<path d="M396.94 119.78H14.8V142H396.94V119.78Z" fill="#455A64"/>
<path d="M14.81 112.08H0.800003V149.06H14.81V112.08Z" fill="#263238"/>
<path d="M14.81 140.83C12.5167 141.093 10.2066 141.18 7.90001 141.09C5.59341 141.18 3.28329 141.093 0.990005 140.83C3.28374 140.573 5.59341 140.486 7.90001 140.57C10.2066 140.486 12.5162 140.573 14.81 140.83Z" fill="#455A64"/>
<path d="M14.81 136.83C12.5167 137.093 10.2066 137.18 7.90001 137.09C5.59341 137.18 3.28329 137.093 0.990005 136.83C3.28374 136.573 5.59341 136.486 7.90001 136.57C10.2066 136.486 12.5162 136.573 14.81 136.83Z" fill="#455A64"/>
<path d="M14.81 132.83C12.5167 133.093 10.2066 133.18 7.90001 133.09C5.59341 133.18 3.28329 133.093 0.990005 132.83C3.28374 132.573 5.59341 132.486 7.90001 132.57C10.2066 132.486 12.5162 132.573 14.81 132.83Z" fill="#455A64"/>
<path d="M14.81 128.83C12.5162 129.087 10.2066 129.174 7.90001 129.09C5.59341 129.174 3.28374 129.087 0.990005 128.83C3.28374 128.573 5.59341 128.486 7.90001 128.57C10.2066 128.486 12.5162 128.573 14.81 128.83Z" fill="#455A64"/>
<path d="M14.81 124.83C12.5162 125.087 10.2066 125.174 7.90001 125.09C5.59341 125.174 3.28374 125.087 0.990005 124.83C3.28374 124.573 5.59341 124.486 7.90001 124.57C10.2066 124.486 12.5162 124.573 14.81 124.83Z" fill="#455A64"/>
<path d="M14.81 120.83C12.5162 121.087 10.2066 121.174 7.90001 121.09C5.59341 121.174 3.28374 121.087 0.990005 120.83C3.28329 120.567 5.59341 120.48 7.90001 120.57C10.2066 120.48 12.5167 120.567 14.81 120.83Z" fill="#455A64"/>
<path d="M14.81 116.83C12.5162 117.087 10.2066 117.174 7.90001 117.09C5.59341 117.174 3.28374 117.087 0.990005 116.83C3.28329 116.567 5.59341 116.48 7.90001 116.57C10.2066 116.48 12.5167 116.567 14.81 116.83Z" fill="#455A64"/>
<path d="M14.81 145.01C12.5162 145.267 10.2066 145.354 7.90001 145.27C5.59341 145.354 3.28374 145.267 0.990005 145.01C3.28329 144.747 5.59341 144.66 7.90001 144.75C10.2066 144.66 12.5167 144.747 14.81 145.01Z" fill="#455A64"/>
<path d="M407.98 112.08H393.97V149.06H407.98V112.08Z" fill="#263238"/>
<path d="M407.98 140.83C403.38 141.177 398.76 141.177 394.16 140.83C398.76 140.484 403.38 140.484 407.98 140.83Z" fill="#455A64"/>
<path d="M407.98 136.83C403.38 137.177 398.76 137.177 394.16 136.83C398.76 136.484 403.38 136.484 407.98 136.83Z" fill="#455A64"/>
<path d="M407.98 132.83C403.38 133.176 398.76 133.176 394.16 132.83C398.76 132.483 403.38 132.483 407.98 132.83Z" fill="#455A64"/>
<path d="M407.98 128.83C403.38 129.176 398.76 129.176 394.16 128.83C398.76 128.483 403.38 128.483 407.98 128.83Z" fill="#455A64"/>
<path d="M407.98 124.83C403.38 125.176 398.76 125.176 394.16 124.83C398.76 124.484 403.38 124.484 407.98 124.83Z" fill="#455A64"/>
<path d="M407.98 120.83C403.38 121.176 398.76 121.176 394.16 120.83C398.76 120.484 403.38 120.484 407.98 120.83Z" fill="#455A64"/>
<path d="M407.98 116.83C403.38 117.176 398.76 117.176 394.16 116.83C398.76 116.484 403.38 116.484 407.98 116.83Z" fill="#455A64"/>
<path d="M407.98 145.01C403.38 145.357 398.76 145.357 394.16 145.01C398.76 144.664 403.38 144.664 407.98 145.01Z" fill="#455A64"/>
<path d="M363.12 97.07H45.65V105.75H363.12V97.07Z" fill="#E0E0E0"/>
<path d="M330.46 0.639999H78.31V154.17H330.46V0.639999Z" fill="white"/>
<path d="M330.46 154.17C330.46 152.53 330.39 94.62 330.26 0.639999L330.46 0.839996L78.33 0.899994L78.59 0.639999C78.59 55.05 78.59 106.95 78.59 154.17L78.34 153.93L330.49 154.17L78.31 154.38H78.07V154.14C78.07 106.92 78.07 55.02 78.07 0.610001V0.379997H78.35L330.48 0.439995H330.69V0.639999C330.54 94.62 330.47 152.53 330.46 154.17Z" fill="#263238"/>
<path d="M39.1 123.15V106.49H71.27V114.82H168.81C169.908 114.821 170.995 115.039 172.008 115.46C173.022 115.882 173.943 116.498 174.718 117.276C175.494 118.053 176.109 118.975 176.527 119.99C176.946 121.005 177.161 122.092 177.16 123.19V144.19H195.59V123.19C195.59 121.463 196.276 119.806 197.496 118.583C198.717 117.361 200.373 116.673 202.1 116.67C202.955 116.671 203.801 116.841 204.591 117.169C205.38 117.498 206.097 117.978 206.7 118.584C207.304 119.189 207.782 119.908 208.108 120.698C208.434 121.488 208.601 122.335 208.6 123.19V145.19H227.75V124.25C227.749 122.871 228.019 121.505 228.545 120.231C229.072 118.957 229.844 117.798 230.818 116.822C231.792 115.847 232.949 115.072 234.223 114.543C235.496 114.014 236.861 113.741 238.24 113.74H332.92V104.32H369.06V156.82H39.06L39.1 123.15Z" fill="#263238"/>
<path d="M23.11 321.94L23.53 346.27H384.69L385.3 321.94L369.66 219.02L369.11 138.68L38.67 137.7V222.7L23.11 321.94Z" fill="#E8505B"/>
<g opacity="0.4">
<path opacity="0.4" d="M53.67 226.11L43.17 306.87H359.82L350.47 226.11H53.67Z" fill="black"/>
</g>
<path d="M371.56 185.55H34.55C32.3298 185.55 30.53 187.35 30.53 189.57V189.97C30.53 192.19 32.3298 193.99 34.55 193.99H371.56C373.78 193.99 375.58 192.19 375.58 189.97V189.57C375.58 187.35 373.78 185.55 371.56 185.55Z" fill="#E0E0E0"/>
<path d="M270.55 253.06H266.96V306.87H270.55V253.06Z" fill="#E0E0E0"/>
<path d="M278.75 253.67C275.706 255.372 272.277 256.265 268.79 256.265C265.303 256.265 261.874 255.372 258.83 253.67V245.76H278.75V253.67Z" fill="#263238"/>
<path d="M278.98 246.29C278.98 248.03 274.4 249.45 268.75 249.45C263.1 249.45 258.52 248.03 258.52 246.29C258.52 244.55 263.1 243.14 268.75 243.14C274.4 243.14 278.98 244.55 278.98 246.29Z" fill="#455A64"/>
<path d="M72.1 236.51H68.51V306.6H72.1V236.51Z" fill="#E0E0E0"/>
<path d="M80.27 237.12C77.2262 238.822 73.7972 239.715 70.31 239.715C66.8228 239.715 63.3938 238.822 60.35 237.12V229.21H80.27V237.12Z" fill="#263238"/>
<path d="M80.54 229.74C80.54 231.48 75.96 232.9 70.31 232.9C64.66 232.9 60.08 231.48 60.08 229.74C60.08 228 64.66 226.59 70.31 226.59C75.96 226.59 80.54 228 80.54 229.74Z" fill="#455A64"/>
<path d="M85.54 253.53H81.95V307.34H85.54V253.53Z" fill="#E0E0E0"/>
<path d="M93.75 254.15C90.7062 255.852 87.2772 256.745 83.79 256.745C80.3028 256.745 76.8738 255.852 73.83 254.15V246.24H93.75V254.15Z" fill="#263238"/>
<path d="M83.75 249.92C89.3999 249.92 93.98 248.51 93.98 246.77C93.98 245.03 89.3999 243.62 83.75 243.62C78.1001 243.62 73.52 245.03 73.52 246.77C73.52 248.51 78.1001 249.92 83.75 249.92Z" fill="#455A64"/>
<path d="M80.27 269.95C77.2247 271.647 73.7963 272.538 70.31 272.538C66.8237 272.538 63.3953 271.647 60.35 269.95V262.04H80.27V269.95Z" fill="#263238"/>
<path d="M80.54 262.57C80.54 264.31 75.96 265.72 70.31 265.72C64.66 265.72 60.08 264.31 60.08 262.57C60.08 260.83 64.66 259.38 70.31 259.38C75.96 259.38 80.54 260.82 80.54 262.57Z" fill="#455A64"/>
<path d="M111.18 253.53H107.59V307.34H111.18V253.53Z" fill="#E0E0E0"/>
<path d="M119.34 254.15C116.298 255.852 112.871 256.745 109.385 256.745C105.899 256.745 102.472 255.852 99.43 254.15V246.24H119.34V254.15Z" fill="#263238"/>
<path d="M109.38 249.92C115.03 249.92 119.61 248.51 119.61 246.77C119.61 245.03 115.03 243.62 109.38 243.62C103.73 243.62 99.15 245.03 99.15 246.77C99.15 248.51 103.73 249.92 109.38 249.92Z" fill="#455A64"/>
<path d="M138.03 253.53H134.44V307.34H138.03V253.53Z" fill="#E0E0E0"/>
<path d="M146.19 254.15C143.146 255.852 139.717 256.745 136.23 256.745C132.743 256.745 129.314 255.852 126.27 254.15V246.24H146.19V254.15Z" fill="#263238"/>
<path d="M136.23 249.92C141.88 249.92 146.46 248.51 146.46 246.77C146.46 245.03 141.88 243.62 136.23 243.62C130.58 243.62 126 245.03 126 246.77C126 248.51 130.58 249.92 136.23 249.92Z" fill="#455A64"/>
<path d="M164.49 253.53H160.9V307.34H164.49V253.53Z" fill="#E0E0E0"/>
<path d="M172.65 254.15C169.608 255.852 166.181 256.745 162.695 256.745C159.209 256.745 155.782 255.852 152.74 254.15V246.24H172.65V254.15Z" fill="#263238"/>
<path d="M162.7 249.92C168.35 249.92 172.93 248.51 172.93 246.77C172.93 245.03 168.35 243.62 162.7 243.62C157.05 243.62 152.47 245.03 152.47 246.77C152.47 248.51 157.05 249.92 162.7 249.92Z" fill="#455A64"/>
<path d="M190.65 253.53H187.06V307.34H190.65V253.53Z" fill="#E0E0E0"/>
<path d="M198.81 254.15C195.768 255.852 192.341 256.745 188.855 256.745C185.369 256.745 181.942 255.852 178.9 254.15V246.24H198.81V254.15Z" fill="#263238"/>
<path d="M188.85 249.92C194.5 249.92 199.08 248.51 199.08 246.77C199.08 245.03 194.5 243.62 188.85 243.62C183.2 243.62 178.62 245.03 178.62 246.77C178.62 248.51 183.2 249.92 188.85 249.92Z" fill="#455A64"/>
<path d="M217.23 253.53H213.64V307.34H217.23V253.53Z" fill="#E0E0E0"/>
<path d="M225.39 254.15C222.348 255.852 218.921 256.745 215.435 256.745C211.949 256.745 208.522 255.852 205.48 254.15V246.24H225.39V254.15Z" fill="#263238"/>
<path d="M215.44 249.92C221.09 249.92 225.67 248.51 225.67 246.77C225.67 245.03 221.09 243.62 215.44 243.62C209.79 243.62 205.21 245.03 205.21 246.77C205.21 248.51 209.79 249.92 215.44 249.92Z" fill="#455A64"/>
<path d="M243.96 253.53H240.37V307.34H243.96V253.53Z" fill="#E0E0E0"/>
<path d="M252.13 254.15C249.086 255.852 245.657 256.745 242.17 256.745C238.683 256.745 235.254 255.852 232.21 254.15V246.24H252.13V254.15Z" fill="#263238"/>
<path d="M242.17 249.92C247.82 249.92 252.4 248.51 252.4 246.77C252.4 245.03 247.82 243.62 242.17 243.62C236.52 243.62 231.94 245.03 231.94 246.77C231.94 248.51 236.52 249.92 242.17 249.92Z" fill="#455A64"/>
<path d="M297.43 253.53H293.84V307.34H297.43V253.53Z" fill="#E0E0E0"/>
<path d="M305.59 254.15C302.548 255.852 299.121 256.745 295.635 256.745C292.149 256.745 288.722 255.852 285.68 254.15V246.24H305.59V254.15Z" fill="#263238"/>
<path d="M295.63 249.92C301.28 249.92 305.86 248.51 305.86 246.77C305.86 245.03 301.28 243.62 295.63 243.62C289.98 243.62 285.4 245.03 285.4 246.77C285.4 248.51 289.98 249.92 295.63 249.92Z" fill="#455A64"/>
<path d="M324.46 253.53H320.87V307.34H324.46V253.53Z" fill="#E0E0E0"/>
<path d="M332.62 254.15C329.578 255.852 326.151 256.745 322.665 256.745C319.179 256.745 315.752 255.852 312.71 254.15V246.24H332.62V254.15Z" fill="#263238"/>
<path d="M322.66 249.92C328.31 249.92 332.89 248.51 332.89 246.77C332.89 245.03 328.31 243.62 322.66 243.62C317.01 243.62 312.43 245.03 312.43 246.77C312.43 248.51 317.01 249.92 322.66 249.92Z" fill="#455A64"/>
<path d="M98.6 236.51H95.01V306.6H98.6V236.51Z" fill="#E0E0E0"/>
<path d="M106.75 237.12C103.708 238.822 100.281 239.715 96.795 239.715C93.3094 239.715 89.8819 238.822 86.84 237.12V229.21H106.75V237.12Z" fill="#263238"/>
<path d="M107.04 229.74C107.04 231.48 102.46 232.9 96.81 232.9C91.16 232.9 86.58 231.48 86.58 229.74C86.58 228 91.16 226.59 96.81 226.59C102.46 226.59 107.04 228 107.04 229.74Z" fill="#455A64"/>
<path d="M125.1 236.51H121.51V306.6H125.1V236.51Z" fill="#E0E0E0"/>
<path d="M133.26 237.12C130.218 238.822 126.791 239.715 123.305 239.715C119.819 239.715 116.392 238.822 113.35 237.12V229.21H133.26V237.12Z" fill="#263238"/>
<path d="M133.53 229.74C133.53 231.48 128.95 232.9 123.3 232.9C117.65 232.9 113.07 231.48 113.07 229.74C113.07 228 117.65 226.59 123.3 226.59C128.95 226.59 133.53 228 133.53 229.74Z" fill="#455A64"/>
<path d="M151.6 236.51H148.01V306.6H151.6V236.51Z" fill="#E0E0E0"/>
<path d="M159.75 237.12C156.708 238.822 153.281 239.715 149.795 239.715C146.309 239.715 142.882 238.822 139.84 237.12V229.21H159.75V237.12Z" fill="#263238"/>
<path d="M160.03 229.74C160.03 231.48 155.45 232.9 149.8 232.9C144.15 232.9 139.57 231.48 139.57 229.74C139.57 228 144.15 226.59 149.8 226.59C155.45 226.59 160.03 228 160.03 229.74Z" fill="#455A64"/>
<path d="M178.09 236.51H174.5V306.6H178.09V236.51Z" fill="#E0E0E0"/>
<path d="M186.26 237.12C183.216 238.822 179.787 239.715 176.3 239.715C172.813 239.715 169.384 238.822 166.34 237.12V229.21H186.26V237.12Z" fill="#263238"/>
<path d="M186.53 229.74C186.53 231.48 181.95 232.9 176.3 232.9C170.65 232.9 166.07 231.48 166.07 229.74C166.07 228 170.65 226.59 176.3 226.59C181.95 226.59 186.53 228 186.53 229.74Z" fill="#455A64"/>
<path d="M204.59 236.51H201V306.6H204.59V236.51Z" fill="#E0E0E0"/>
<path d="M212.75 237.12C209.706 238.822 206.277 239.715 202.79 239.715C199.303 239.715 195.874 238.822 192.83 237.12V229.21H212.75V237.12Z" fill="#263238"/>
<path d="M213.03 229.74C213.03 231.48 208.45 232.9 202.8 232.9C197.15 232.9 192.57 231.48 192.57 229.74C192.57 228 197.15 226.59 202.8 226.59C208.45 226.59 213.03 228 213.03 229.74Z" fill="#455A64"/>
<path d="M231.09 236.51H227.5V306.6H231.09V236.51Z" fill="#E0E0E0"/>
<path d="M239.25 237.12C236.208 238.822 232.781 239.715 229.295 239.715C225.809 239.715 222.382 238.822 219.34 237.12V229.21H239.25V237.12Z" fill="#263238"/>
<path d="M239.53 229.74C239.53 231.48 234.95 232.9 229.3 232.9C223.65 232.9 219.07 231.48 219.07 229.74C219.07 228 223.65 226.59 229.3 226.59C234.95 226.59 239.53 228 239.53 229.74Z" fill="#455A64"/>
<path d="M257.59 236.51H254V306.6H257.59V236.51Z" fill="#E0E0E0"/>
<path d="M265.75 237.12C262.708 238.822 259.281 239.715 255.795 239.715C252.309 239.715 248.882 238.822 245.84 237.12V229.21H265.75V237.12Z" fill="#263238"/>
<path d="M266.02 229.74C266.02 231.48 261.44 232.9 255.79 232.9C250.14 232.9 245.56 231.48 245.56 229.74C245.56 228 250.14 226.59 255.79 226.59C261.44 226.59 266.02 228 266.02 229.74Z" fill="#455A64"/>
<path d="M284.09 236.51H280.5V306.6H284.09V236.51Z" fill="#E0E0E0"/>
<path d="M292.25 237.12C289.208 238.822 285.781 239.715 282.295 239.715C278.809 239.715 275.382 238.822 272.34 237.12V229.21H292.25V237.12Z" fill="#263238"/>
<path d="M292.52 229.74C292.52 231.48 287.94 232.9 282.29 232.9C276.64 232.9 272.06 231.48 272.06 229.74C272.06 228 276.64 226.59 282.29 226.59C287.94 226.59 292.52 228 292.52 229.74Z" fill="#455A64"/>
<path d="M310.58 236.51H306.99V306.6H310.58V236.51Z" fill="#E0E0E0"/>
<path d="M318.75 237.12C315.706 238.822 312.277 239.715 308.79 239.715C305.303 239.715 301.874 238.822 298.83 237.12V229.21H318.75V237.12Z" fill="#263238"/>
<path d="M319.02 229.74C319.02 231.48 314.44 232.9 308.79 232.9C303.14 232.9 298.56 231.48 298.56 229.74C298.56 228 303.14 226.59 308.79 226.59C314.44 226.59 319.02 228 319.02 229.74Z" fill="#455A64"/>
<path d="M337.08 236.51H333.49V306.6H337.08V236.51Z" fill="#E0E0E0"/>
<path d="M345.25 237.12C342.206 238.822 338.777 239.715 335.29 239.715C331.803 239.715 328.374 238.822 325.33 237.12V229.21H345.25V237.12Z" fill="#263238"/>
<path d="M345.52 229.74C345.52 231.48 340.94 232.9 335.29 232.9C329.64 232.9 325.06 231.48 325.06 229.74C325.06 228 329.64 226.59 335.29 226.59C340.94 226.59 345.52 228 345.52 229.74Z" fill="#455A64"/>
<path d="M106.88 285.28C103.836 286.982 100.407 287.875 96.92 287.875C93.4328 287.875 90.0038 286.982 86.96 285.28V277.38H106.88V285.28Z" fill="#263238"/>
<path d="M107.15 277.9C107.15 279.64 102.57 281.05 96.92 281.05C91.27 281.05 86.69 279.64 86.69 277.9C86.69 276.16 91.27 274.74 96.92 274.74C102.57 274.74 107.15 276.16 107.15 277.9Z" fill="#455A64"/>
<path d="M93.43 298.92C90.388 300.622 86.9606 301.515 83.475 301.515C79.9894 301.515 76.562 300.622 73.52 298.92V291.01H93.43V298.92Z" fill="#263238"/>
<path d="M83.48 294.69C89.1299 294.69 93.71 293.28 93.71 291.54C93.71 289.8 89.1299 288.39 83.48 288.39C77.8301 288.39 73.25 289.8 73.25 291.54C73.25 293.28 77.8301 294.69 83.48 294.69Z" fill="#455A64"/>
<path d="M119.42 298.67C116.375 300.367 112.946 301.258 109.46 301.258C105.974 301.258 102.545 300.367 99.5 298.67V290.75H119.42V298.67Z" fill="#263238"/>
<path d="M119.69 291.28C119.69 293.02 115.11 294.44 109.46 294.44C103.81 294.44 99.23 293.02 99.23 291.28C99.23 289.54 103.81 288.13 109.46 288.13C115.11 288.13 119.69 289.54 119.69 291.28Z" fill="#455A64"/>
<path d="M145.4 285.79C142.358 287.492 138.931 288.385 135.445 288.385C131.959 288.385 128.532 287.492 125.49 285.79V277.88H145.4V285.79Z" fill="#263238"/>
<path d="M145.68 278.38C145.68 280.12 141.1 281.53 135.45 281.53C129.8 281.53 125.22 280.12 125.22 278.38C125.22 276.64 129.8 275.23 135.45 275.23C141.1 275.23 145.68 276.67 145.68 278.38Z" fill="#455A64"/>
<path d="M172.65 285.54C169.607 287.237 166.18 288.128 162.695 288.128C159.21 288.128 155.783 287.237 152.74 285.54V277.63H172.65V285.54Z" fill="#263238"/>
<path d="M172.93 278.15C172.93 279.9 168.35 281.31 162.7 281.31C157.05 281.31 152.47 279.9 152.47 278.15C152.47 276.4 157.05 275 162.7 275C168.35 275 172.93 276.38 172.93 278.15Z" fill="#455A64"/>
<path d="M198.81 285.54C195.767 287.237 192.34 288.128 188.855 288.128C185.37 288.128 181.943 287.237 178.9 285.54V277.63H198.81V285.54Z" fill="#263238"/>
<path d="M199.08 278.15C199.08 279.9 194.5 281.31 188.85 281.31C183.2 281.31 178.62 279.9 178.62 278.15C178.62 276.4 183.2 275 188.85 275C194.5 275 199.08 276.38 199.08 278.15Z" fill="#455A64"/>
<path d="M225.84 285.54C222.797 287.237 219.37 288.128 215.885 288.128C212.4 288.128 208.973 287.237 205.93 285.54V277.63H225.84V285.54Z" fill="#263238"/>
<path d="M226.11 278.15C226.11 279.9 221.53 281.31 215.88 281.31C210.23 281.31 205.65 279.9 205.65 278.15C205.65 276.4 210.23 275 215.88 275C221.53 275 226.11 276.38 226.11 278.15Z" fill="#455A64"/>
<path d="M252.28 298.92C249.236 300.622 245.807 301.515 242.32 301.515C238.833 301.515 235.404 300.622 232.36 298.92V291.01H252.28V298.92Z" fill="#263238"/>
<path d="M242.32 294.69C247.97 294.69 252.55 293.28 252.55 291.54C252.55 289.8 247.97 288.39 242.32 288.39C236.67 288.39 232.09 289.8 232.09 291.54C232.09 293.28 236.67 294.69 242.32 294.69Z" fill="#455A64"/>
<path d="M278.75 285.54C275.705 287.237 272.276 288.128 268.79 288.128C265.304 288.128 261.875 287.237 258.83 285.54V277.63H278.75V285.54Z" fill="#263238"/>
<path d="M278.98 278.15C278.98 279.9 274.4 281.31 268.75 281.31C263.1 281.31 258.52 279.9 258.52 278.15C258.52 276.4 263.1 275 268.75 275C274.4 275 278.98 276.38 278.98 278.15Z" fill="#455A64"/>
<path d="M305.59 295.51C302.548 297.212 299.121 298.105 295.635 298.105C292.149 298.105 288.722 297.212 285.68 295.51V287.6H305.59V295.51Z" fill="#263238"/>
<path d="M305.86 288.13C305.86 289.87 301.28 291.28 295.63 291.28C289.98 291.28 285.4 289.87 285.4 288.13C285.4 286.39 289.98 284.97 295.63 284.97C301.28 284.97 305.86 286.38 305.86 288.13Z" fill="#455A64"/>
<path d="M334.42 302.08C331.375 303.777 327.946 304.668 324.46 304.668C320.974 304.668 317.545 303.777 314.5 302.08V294.16H334.42V302.08Z" fill="#263238"/>
<path d="M334.69 294.69C334.69 296.43 330.11 297.85 324.46 297.85C318.81 297.85 314.23 296.43 314.23 294.69C314.23 292.95 318.81 291.54 324.46 291.54C330.11 291.54 334.69 292.95 334.69 294.69Z" fill="#455A64"/>
<path d="M133.49 269.95C130.447 271.647 127.02 272.538 123.535 272.538C120.05 272.538 116.623 271.647 113.58 269.95V262.04H133.49V269.95Z" fill="#263238"/>
<path d="M133.75 262.57C133.75 264.31 129.17 265.72 123.52 265.72C117.87 265.72 113.29 264.31 113.29 262.57C113.29 260.83 117.87 259.41 123.52 259.41C129.17 259.41 133.75 260.82 133.75 262.57Z" fill="#455A64"/>
<path d="M160.1 269.95C157.057 271.647 153.63 272.538 150.145 272.538C146.66 272.538 143.233 271.647 140.19 269.95V262.04H160.1V269.95Z" fill="#263238"/>
<path d="M160.37 262.57C160.37 264.31 155.79 265.72 150.14 265.72C144.49 265.72 139.91 264.31 139.91 262.57C139.91 260.83 144.49 259.41 150.14 259.41C155.79 259.41 160.37 260.82 160.37 262.57Z" fill="#455A64"/>
<path d="M186.26 269.95C183.215 271.647 179.786 272.538 176.3 272.538C172.814 272.538 169.385 271.647 166.34 269.95V262.04H186.26V269.95Z" fill="#263238"/>
<path d="M186.53 262.57C186.53 264.31 181.95 265.72 176.3 265.72C170.65 265.72 166.07 264.31 166.07 262.57C166.07 260.83 170.65 259.38 176.3 259.38C181.95 259.38 186.53 260.82 186.53 262.57Z" fill="#455A64"/>
<path d="M211.8 269.95C208.755 271.647 205.326 272.538 201.84 272.538C198.354 272.538 194.925 271.647 191.88 269.95V262.04H211.8V269.95Z" fill="#263238"/>
<path d="M212.07 262.57C212.07 264.31 207.49 265.72 201.84 265.72C196.19 265.72 191.61 264.31 191.61 262.57C191.61 260.83 196.19 259.41 201.84 259.41C207.49 259.41 212.07 260.82 212.07 262.57Z" fill="#455A64"/>
<path d="M238.38 269.95C235.335 271.647 231.906 272.538 228.42 272.538C224.934 272.538 221.505 271.647 218.46 269.95V262.04H238.38V269.95Z" fill="#263238"/>
<path d="M238.65 262.57C238.65 264.31 234.07 265.72 228.42 265.72C222.77 265.72 218.19 264.31 218.19 262.57C218.19 260.83 222.75 259.38 228.42 259.38C234.09 259.38 238.65 260.82 238.65 262.57Z" fill="#455A64"/>
<path d="M265.31 269.95C262.267 271.647 258.84 272.538 255.355 272.538C251.87 272.538 248.443 271.647 245.4 269.95V262.04H265.31V269.95Z" fill="#263238"/>
<path d="M265.59 262.57C265.59 264.31 261.01 265.72 255.36 265.72C249.71 265.72 245.13 264.31 245.13 262.57C245.13 260.83 249.75 259.38 255.36 259.38C260.97 259.38 265.59 260.82 265.59 262.57Z" fill="#455A64"/>
<path d="M292.46 269.95C289.417 271.647 285.99 272.538 282.505 272.538C279.02 272.538 275.593 271.647 272.55 269.95V262.04H292.46V269.95Z" fill="#263238"/>
<path d="M292.75 262.57C292.75 264.31 288.17 265.72 282.52 265.72C276.87 265.72 272.29 264.31 272.29 262.57C272.29 260.83 276.87 259.41 282.52 259.41C288.17 259.41 292.75 260.82 292.75 262.57Z" fill="#455A64"/>
<path d="M318.75 279.23C315.705 280.927 312.276 281.818 308.79 281.818C305.304 281.818 301.875 280.927 298.83 279.23V271.32H318.75V279.23Z" fill="#263238"/>
<path d="M319.02 271.85C319.02 273.59 314.44 275 308.79 275C303.14 275 298.56 273.59 298.56 271.85C298.56 270.11 303.14 268.69 308.79 268.69C314.44 268.69 319.02 270.1 319.02 271.85Z" fill="#455A64"/>
<path d="M345.29 269.95C342.245 271.647 338.816 272.538 335.33 272.538C331.844 272.538 328.415 271.647 325.37 269.95V262.04H345.29V269.95Z" fill="#263238"/>
<path d="M345.56 262.57C345.56 264.31 340.98 265.72 335.33 265.72C329.68 265.72 325.1 264.31 325.1 262.57C325.1 260.83 329.68 259.41 335.33 259.41C340.98 259.41 345.56 260.82 345.56 262.57Z" fill="#455A64"/>
<path d="M229.23 160.49H179.98V167.71H229.23V160.49Z" fill="white"/>
<g opacity="0.4">
<path opacity="0.4" d="M38.54 193.99L369.55 202.84L369.49 193.99H38.54Z" fill="black"/>
</g>
<path d="M384.01 321.94C384.01 322.08 303.5 322.2 204.21 322.2C104.92 322.2 24.4 322.08 24.4 321.94C24.4 321.8 104.89 321.68 204.21 321.68C303.53 321.68 384.01 321.8 384.01 321.94Z" fill="#263238"/>
<path d="M53.67 226.11C53.67 226.11 53.67 226.61 53.51 227.57C53.35 228.53 53.22 229.97 52.99 231.83C52.51 235.57 51.82 241.06 50.93 248.08C49.13 262.14 46.53 282.33 43.38 306.89L43.17 306.66H160.77L301.52 306.73L344.18 306.82H355.78H358.78H359.78C359.78 306.82 359.43 306.82 358.78 306.82H355.78H344.18L301.52 306.9L160.75 307.13L43.15 307.08H42.91V306.84C46.14 282.29 48.8 262.11 50.65 248.05C51.58 241.05 52.31 235.55 52.81 231.81C53.07 229.96 53.26 228.53 53.4 227.56C53.54 226.59 53.67 226.11 53.67 226.11Z" fill="#263238"/>
<path d="M369.1 217.79C369.1 217.93 295.2 218.05 204.1 218.05C113 218.05 39.04 217.93 39.04 217.79C39.04 217.65 112.92 217.53 204.1 217.53C295.28 217.53 369.1 217.64 369.1 217.79Z" fill="#263238"/>
</svg>
