<svg width="39" height="35" viewBox="0 0 39 35" fill="none" xmlns="http://www.w3.org/2000/svg">
<path d="M25.18 22.55L25.17 34.31L38.65 26.48L38.67 14.72L25.18 22.55Z" fill="#FFE000"/>
<path d="M20.72 19.97L5.01999 10.89L4.98 10.91V22.63L20.72 31.74V31.69V19.97Z" fill="#373C48"/>
<path d="M5.01999 10.89L0.87999 8.49L0.859993 20.25L4.98 22.63V10.91L5.01999 10.89Z" fill="#D4AA00"/>
<path d="M20.72 19.97V31.69V31.74L25.17 34.31L25.18 22.55L20.72 19.97Z" fill="#D4AA00"/>
<path d="M20.72 19.97L25.18 22.55L38.67 14.72L34.17 12.12L20.72 19.94V19.97Z" fill="#FFF3C2"/>
<path d="M20.72 19.97V19.94L34.17 12.12L18.5 3.06L5.01999 10.89L20.72 19.97Z" fill="#596177"/>
<path d="M18.5 3.06L14.36 0.660004L0.87999 8.49L5.01999 10.89L18.5 3.06Z" fill="#FFF3C2"/>
</svg>
