<svg width="69" height="43" viewBox="0 0 69 43" fill="none" xmlns="http://www.w3.org/2000/svg">
<path d="M29.98 3.79L27.64 2.47L20.18 6.81L22.46 8.13L29.98 3.79Z" fill="#CCCCCC"/>
<path d="M26.51 5.82L33.96 1.49L24.4 7L22.46 8.13L26.51 5.82Z" fill="#676767"/>
<path d="M31.8 8.88V9.44L39.26 5.11V4.55L31.8 8.88Z" fill="#CCCCCC"/>
<path d="M31.8 8.88L39.26 4.55L33.96 1.49L26.51 5.82L31.8 8.88Z" fill="#A0A0A0"/>
<path d="M26.51 5.82L22.46 8.13L20.18 6.81V7.37L22.66 8.8L26.7 6.5L31.8 9.44V8.88L26.51 5.82Z" fill="#676767"/>
<path d="M20.06 9.97L17.72 8.65L10.26 12.99L12.55 14.31L20.06 9.97Z" fill="#CCCCCC"/>
<path d="M16.59 12.01L24.05 7.68L14.49 13.19L12.55 14.31L16.59 12.01Z" fill="#676767"/>
<path d="M21.89 15.07V15.62L29.34 11.29L29.35 10.74L21.89 15.07Z" fill="#CCCCCC"/>
<path d="M21.89 15.07L29.35 10.74L24.05 7.68L16.59 12.01L21.89 15.07Z" fill="#A0A0A0"/>
<path d="M16.59 12.01L12.55 14.31L10.26 12.99V13.55L12.75 14.98L16.79 12.68L21.89 15.62V15.07L16.59 12.01Z" fill="#676767"/>
<path d="M9.87999 16.16L7.53998 14.84L0.0799866 19.18L2.36998 20.5L9.87999 16.16Z" fill="#CCCCCC"/>
<path d="M6.40999 18.19L13.87 13.86L4.30998 19.37L2.36998 20.5L6.40999 18.19Z" fill="#676767"/>
<path d="M11.71 21.25V21.81L19.16 17.48L19.17 16.92L11.71 21.25Z" fill="#CCCCCC"/>
<path d="M11.71 21.25L19.17 16.92L13.87 13.86L6.40999 18.19L11.71 21.25Z" fill="#A0A0A0"/>
<path d="M6.40999 18.19L2.36998 20.5L0.0799866 19.18V19.73L2.56999 21.17L6.60999 18.87L11.71 21.81V21.25L6.40999 18.19Z" fill="#676767"/>
<path d="M9.56999 22.68L40.89 4.57C43.42 4.57 44.84 4.57 47.37 4.57L57.99 10.72L58 14.45C57.99 15.91 57.99 16.74 57.98 18.2L26.66 36.31C24.13 36.31 22.71 36.31 20.18 36.31L9.55998 30.16L9.54999 26.43C9.54999 24.96 9.55999 24.14 9.56999 22.68Z" fill="#545454"/>
<path d="M57.97 14.46L57.98 18.19C57.99 16.73 57.99 15.9 58 14.44L57.99 10.71C57.98 12.17 57.98 13 57.97 14.46Z" fill="#292C36"/>
<path d="M9.53998 26.42L9.55998 30.15L20.18 36.3L20.16 32.57L9.53998 26.42Z" fill="#373C48"/>
<path d="M26.65 32.57L26.66 36.3L57.98 18.19L57.97 14.46L26.65 32.57Z" fill="#373C48"/>
<path d="M20.16 32.57L20.17 36.3C22.7 36.3 24.12 36.3 26.65 36.3L26.64 32.57C24.12 32.57 22.69 32.57 20.16 32.57Z" fill="#4E5463"/>
<path d="M9.56999 22.67C9.55999 24.13 9.54998 24.96 9.53998 26.42L20.16 32.57C22.69 32.57 24.11 32.57 26.64 32.57L57.96 14.46C57.97 12.99 57.97 12.17 57.98 10.71L47.36 4.56C44.83 4.56 43.41 4.56 40.88 4.56L9.56999 22.67Z" fill="#292C36"/>
<path d="M9.56999 18.35L40.89 0.239998C43.42 0.239998 44.84 0.239998 47.37 0.239998L57.99 6.39L58 10.12C57.99 11.58 57.99 12.41 57.98 13.87L26.66 31.98C24.13 31.98 22.71 31.98 20.18 31.98L9.55998 25.83L9.54999 22.1C9.54999 20.63 9.55999 19.81 9.56999 18.35Z" fill="#545454"/>
<path d="M57.97 10.13L57.98 13.86C57.99 12.4 57.99 11.57 58 10.11L57.99 6.38C57.98 7.84 57.98 8.67 57.97 10.13Z" fill="#292C36"/>
<path d="M9.53998 22.09L9.55998 25.82L20.18 31.97L20.16 28.24L9.53998 22.09Z" fill="#373C48"/>
<path d="M26.65 28.24L26.66 31.97L57.98 13.86L57.97 10.13L26.65 28.24Z" fill="#373C48"/>
<path d="M20.16 28.24L20.17 31.97C22.7 31.97 24.12 31.97 26.65 31.97L26.64 28.24C24.12 28.24 22.69 28.24 20.16 28.24Z" fill="#4E5463"/>
<path d="M9.56999 18.34C9.55999 19.81 9.54998 20.63 9.53998 22.09L20.16 28.24C22.69 28.24 24.11 28.24 26.64 28.24L57.96 10.13C57.97 8.66 57.97 7.84 57.98 6.38L47.36 0.230003C44.83 0.230003 43.41 0.230003 40.88 0.230003L9.56999 18.34Z" fill="#596177"/>
<path d="M41.2268 29.6677L33.7662 33.9855L37.7884 40.9354L45.249 36.6177L41.2268 29.6677Z" fill="#CCCCCC"/>
<path d="M41.24 29.68L35.94 26.62L28.48 30.94L33.77 34L41.24 29.68Z" fill="#A0A0A0"/>
<path d="M40.08 42.27L40.07 42.83L47.54 38.52V37.96L40.08 42.27Z" fill="#CCCCCC"/>
<path d="M40.08 42.27L47.54 37.96L45.25 36.64L37.79 40.95L40.08 42.27Z" fill="#A0A0A0"/>
<path d="M37.79 40.95L33.77 34L28.48 30.94L28.47 31.5L33.57 34.44L37.59 41.4L40.07 42.83L40.08 42.27L37.79 40.95Z" fill="#676767"/>
<path d="M62.2671 17.5164L54.8056 21.8333L58.827 28.7841L66.2885 24.4672L62.2671 17.5164Z" fill="#CCCCCC"/>
<path d="M62.26 17.52L56.96 14.46L49.5 18.78L54.8 21.84L62.26 17.52Z" fill="#A0A0A0"/>
<path d="M61.1 30.11V30.67L68.56 26.36L68.57 25.8L61.1 30.11Z" fill="#CCCCCC"/>
<path d="M61.1 30.11L68.57 25.8L66.28 24.48L58.82 28.79L61.1 30.11Z" fill="#A0A0A0"/>
<path d="M58.82 28.79L54.8 21.84L49.5 18.78V19.34L54.6 22.28L58.62 29.24L61.1 30.67V30.11L58.82 28.79Z" fill="#676767"/>
<path d="M52.0026 23.4438L44.5411 27.7598L48.5617 34.7106L56.0232 30.3946L52.0026 23.4438Z" fill="#CCCCCC"/>
<path d="M52.01 23.44L46.71 20.39L39.25 24.7L44.55 27.76L52.01 23.44Z" fill="#A0A0A0"/>
<path d="M50.85 36.04V36.59L58.31 32.28V31.72L50.85 36.04Z" fill="#CCCCCC"/>
<path d="M50.85 36.04L58.31 31.72L56.03 30.4L48.56 34.72L50.85 36.04Z" fill="#A0A0A0"/>
<path d="M48.56 34.72L44.55 27.76L39.25 24.7V25.26L44.35 28.2L48.36 35.16L50.85 36.59V36.04L48.56 34.72Z" fill="#676767"/>
<path d="M16.14 18.77C15.1 18.16 13.39 18.16 12.34 18.77C11.94 19 11.71 19.29 11.62 19.59C11.61 19.58 11.6 19.56 11.6 19.55C11.59 19.51 11.59 19.47 11.58 19.42C11.5 18.97 11.74 18.5 12.35 18.15C13.4 17.54 15.11 17.54 16.15 18.15C16.67 18.45 16.93 18.85 16.93 19.25C16.93 19.31 16.91 19.36 16.9 19.42C16.89 19.46 16.89 19.51 16.88 19.55C16.88 19.55 16.88 19.56 16.87 19.56C16.77 19.27 16.52 18.99 16.14 18.77Z" fill="#373C48"/>
<path d="M16.72 19.83C16.68 19.89 16.61 19.95 16.55 20.01C16.52 20.04 16.5 20.07 16.47 20.1C16.37 20.19 16.26 20.27 16.12 20.35C15.07 20.96 13.36 20.96 12.31 20.35C12.18 20.27 12.07 20.19 11.97 20.11C11.94 20.08 11.92 20.06 11.9 20.03C11.84 19.97 11.77 19.91 11.73 19.84C11.7 19.8 11.69 19.77 11.67 19.73C11.65 19.69 11.62 19.64 11.6 19.59C11.69 19.29 11.92 19 12.32 18.77C13.37 18.16 15.08 18.16 16.12 18.77C16.51 18.99 16.75 19.27 16.85 19.56C16.83 19.62 16.8 19.67 16.77 19.72C16.76 19.76 16.75 19.79 16.72 19.83Z" fill="#CCCCCC"/>
<path d="M55.92 7.15C54.88 6.54 53.17 6.54 52.12 7.15C51.72 7.38 51.49 7.67 51.4 7.97C51.39 7.96 51.39 7.94 51.38 7.93C51.37 7.89 51.37 7.84001 51.36 7.80001C51.28 7.35001 51.52 6.88 52.13 6.53C53.18 5.92 54.89 5.92 55.93 6.53C56.45 6.83 56.71 7.23 56.71 7.63C56.71 7.69 56.69 7.75001 56.68 7.80001C56.67 7.84001 56.67 7.88 56.66 7.93C56.66 7.93 56.66 7.94001 56.65 7.94001C56.55 7.65001 56.31 7.38 55.92 7.15Z" fill="#373C48"/>
<path d="M56.51 8.22C56.47 8.28 56.4 8.34 56.34 8.4C56.31 8.43 56.29 8.46 56.26 8.49C56.16 8.58 56.05 8.66 55.91 8.74C54.86 9.35 53.15 9.35 52.1 8.74C51.97 8.66 51.86 8.58 51.76 8.5C51.73 8.47 51.71 8.45 51.69 8.42C51.63 8.36 51.56 8.30001 51.52 8.23001C51.49 8.19001 51.48 8.15001 51.46 8.12001C51.43 8.07001 51.41 8.03001 51.39 7.98001C51.48 7.68001 51.71 7.39001 52.11 7.16001C53.16 6.55001 54.87 6.55001 55.91 7.16001C56.3 7.38001 56.54 7.66 56.64 7.95C56.62 8.01 56.59 8.06 56.56 8.11C56.55 8.14 56.54 8.18 56.51 8.22Z" fill="#CCCCCC"/>
<path d="M46.13 1.99C45.09 1.38 43.38 1.38 42.33 1.99C41.93 2.22 41.7 2.51 41.61 2.81C41.6 2.8 41.59 2.78 41.59 2.77C41.58 2.73 41.58 2.68 41.57 2.64C41.49 2.19 41.73 1.71001 42.34 1.37001C43.39 0.760006 45.1 0.760006 46.14 1.37001C46.66 1.67001 46.92 2.07 46.92 2.47C46.92 2.53 46.9 2.58 46.89 2.64C46.88 2.68 46.88 2.72 46.87 2.77C46.87 2.77 46.87 2.78 46.86 2.78C46.76 2.49 46.52 2.21 46.13 1.99Z" fill="#373C48"/>
<path d="M46.72 3.06C46.68 3.12 46.61 3.19 46.55 3.25C46.52 3.28 46.5 3.31 46.47 3.34C46.37 3.43 46.26 3.51 46.12 3.59C45.07 4.2 43.36 4.2 42.32 3.59C42.19 3.51 42.08 3.43 41.98 3.35C41.95 3.32 41.93 3.3 41.91 3.27C41.85 3.21 41.79 3.15001 41.74 3.08001C41.71 3.04001 41.7 3 41.68 2.97C41.66 2.93 41.63 2.88001 41.61 2.83001C41.7 2.53001 41.93 2.24001 42.33 2.01001C43.38 1.40001 45.09 1.40001 46.13 2.01001C46.52 2.23001 46.76 2.51001 46.86 2.80001C46.84 2.86001 46.81 2.91 46.78 2.97C46.76 2.98 46.75 3.02 46.72 3.06Z" fill="#4E5463"/>
<path d="M25.31 24.92C24.27 24.31 22.56 24.31 21.51 24.92C21.11 25.15 20.88 25.44 20.79 25.74C20.78 25.73 20.77 25.71 20.77 25.7C20.76 25.66 20.76 25.61 20.75 25.57C20.67 25.12 20.91 24.65 21.52 24.3C22.57 23.69 24.28 23.69 25.32 24.3C25.84 24.6 26.1 25 26.1 25.4C26.1 25.46 26.08 25.52 26.07 25.57C26.06 25.61 26.06 25.65 26.05 25.7C26.05 25.7 26.05 25.71 26.04 25.71C25.94 25.42 25.7 25.15 25.31 24.92Z" fill="#373C48"/>
<path d="M25.9 25.99C25.86 26.05 25.79 26.11 25.73 26.17C25.7 26.2 25.68 26.23 25.65 26.26C25.55 26.35 25.44 26.43 25.3 26.51C24.25 27.12 22.54 27.12 21.49 26.51C21.36 26.43 21.25 26.35 21.15 26.27C21.12 26.24 21.1 26.22 21.08 26.19C21.02 26.13 20.96 26.07 20.91 26C20.88 25.96 20.87 25.92 20.85 25.89C20.83 25.85 20.8 25.8 20.78 25.75C20.87 25.45 21.1 25.16 21.5 24.93C22.55 24.32 24.26 24.32 25.3 24.93C25.69 25.15 25.93 25.43 26.03 25.72C26.01 25.78 25.98 25.83 25.95 25.88C25.93 25.91 25.92 25.95 25.9 25.99Z" fill="#4E5463"/>
<path d="M40.85 4.4L17.98 17.69L27.4 23.13L50.27 9.84L40.85 4.4ZM27.41 22.57L18.97 17.69L40.87 4.97L49.31 9.85L27.41 22.57Z" fill="#CCCCCC"/>
</svg>
