<svg width="64" height="40" viewBox="0 0 64 40" fill="none" xmlns="http://www.w3.org/2000/svg">
<path d="M63.62 17.01L34.36 0.110001C32.48 0.110001 31.43 0.110001 29.55 0.110001L0.469986 17.01L0.459991 19.78C0.469991 20.87 0.46998 21.48 0.47998 22.57L29.74 39.47C31.62 39.47 32.67 39.47 34.55 39.47L63.63 22.57L63.64 19.8C63.63 18.71 63.62 18.1 63.62 17.01Z" fill="#545454"/>
<path d="M0.47998 19.79L0.469986 22.56C0.459986 21.47 0.459982 20.86 0.449982 19.77L0.459991 17C0.469991 18.09 0.47998 18.7 0.47998 19.79Z" fill="#292C36"/>
<path d="M63.64 19.79L63.63 22.56L34.55 39.46L34.56 36.69L63.64 19.79Z" fill="#772020"/>
<path d="M29.75 36.69L29.74 39.46L0.47998 22.56V19.79L29.75 36.69Z" fill="#772020"/>
<path d="M34.56 36.69L34.55 39.46C32.67 39.46 31.62 39.46 29.74 39.46L29.75 36.69C31.63 36.69 32.68 36.69 34.56 36.69Z" fill="#CE2020"/>
<path d="M63.62 17C63.63 18.09 63.63 18.7 63.64 19.78L34.56 36.68C32.68 36.68 31.63 36.68 29.75 36.68L0.48999 19.79C0.47999 18.7 0.479986 18.09 0.469986 17L29.55 0.100006C31.43 0.100006 32.48 0.100006 34.36 0.100006L63.62 17Z" fill="#F74141"/>
<path d="M12.05 10.2L12.04 15.43C12.05 18.06 12.06 19.54 12.08 22.18L12.09 16.95C12.07 14.31 12.06 12.83 12.05 10.2Z" fill="#6A6A6A"/>
<path d="M37.95 25.16L37.94 30.38L52.06 22.18L52.07 16.95L37.95 25.16Z" fill="#A0A0A0"/>
<path d="M12.08 16.95L12.07 22.18L26.28 30.38L26.29 25.16L12.08 16.95Z" fill="#424242"/>
<path d="M29.4 25.15C28.45 25.15 27.44 25.15 26.3 25.15L26.29 30.38C30.84 30.38 33.4 30.38 37.95 30.38L37.96 25.15C34.54 25.15 32.25 25.15 29.4 25.15Z" fill="#676767"/>
<path d="M26.29 25.16C27.43 25.16 28.44 25.16 29.39 25.16C32.24 25.16 34.53 25.16 37.95 25.16L52.07 16.96C52.05 14.32 52.05 12.84 52.03 10.21L37.82 2C33.27 2 30.71 2 26.16 2L12.04 10.21C12.06 12.84 12.06 14.32 12.08 16.96L26.29 25.16Z" fill="#CCCCCC"/>
<path d="M14.93 9.83V10.58C14.95 13.22 14.96 14.69 14.97 17.33V16.58C14.96 13.94 14.95 12.46 14.93 9.83Z" fill="#6A6A6A"/>
<path d="M37.93 23.1V23.85L49.16 17.33V16.58L37.93 23.1Z" fill="#A0A0A0"/>
<path d="M14.97 16.58V17.33L26.27 23.85L26.28 23.11L14.97 16.58Z" fill="#424242"/>
<path d="M26.28 23.11V23.86C29.7 23.86 31.99 23.86 34.84 23.86C35.79 23.86 36.8 23.86 37.94 23.86V23.11C33.39 23.1 30.83 23.1 26.28 23.11Z" fill="#676767"/>
<path d="M26.28 23.11C30.84 23.11 33.39 23.11 37.94 23.11L49.17 16.58C49.16 13.95 49.15 12.47 49.13 9.83L37.83 3.3C33.28 3.3 30.72 3.3 26.17 3.3L14.94 9.83C14.96 12.47 14.97 13.95 14.98 16.58L26.28 23.11Z" fill="#E0E0E0"/>
<path d="M33.88 19.21C34.6 18.79 34.6 18.11 33.87 17.69L24.14 12.07C23.42 11.65 22.24 11.65 21.52 12.07C20.8 12.49 20.8 13.17 21.53 13.59L31.26 19.21C31.98 19.63 33.16 19.63 33.88 19.21Z" fill="white"/>
<path d="M24.45 16.56C23.61 16.07 22.23 16.07 21.38 16.56C20.89 16.84 20.69 17.22 20.76 17.59C20.77 17.63 20.77 17.66 20.78 17.69C20.78 17.7 20.79 17.71 20.8 17.72C20.82 17.76 20.84 17.79 20.86 17.83C20.88 17.86 20.89 17.89 20.91 17.92C20.95 17.97 21 18.02 21.05 18.07C21.07 18.09 21.09 18.11 21.11 18.14C21.19 18.21 21.28 18.27 21.39 18.34C22.23 18.83 23.61 18.83 24.46 18.34C24.57 18.28 24.66 18.21 24.74 18.14C24.77 18.12 24.78 18.09 24.8 18.07C24.85 18.02 24.9 17.97 24.93 17.92C24.95 17.89 24.96 17.86 24.98 17.83C25 17.79 25.03 17.74 25.05 17.7V17.69C25.06 17.66 25.06 17.62 25.07 17.59C25.08 17.54 25.09 17.5 25.09 17.45C25.09 17.12 24.88 16.8 24.45 16.56Z" fill="white"/>
<path d="M41.57 6.87C40.73 6.38 39.35 6.38 38.5 6.87C38.01 7.15 37.81 7.53 37.88 7.9C37.89 7.93 37.89 7.97001 37.9 8.00001C37.9 8.01001 37.91 8.02001 37.92 8.03001C37.94 8.07001 37.96 8.10001 37.98 8.14001C38 8.17001 38.01 8.2 38.03 8.23C38.07 8.28 38.12 8.33001 38.17 8.38001C38.19 8.40001 38.21 8.42 38.23 8.45C38.31 8.52 38.4 8.59 38.51 8.65C39.36 9.14 40.73 9.14 41.58 8.65C41.69 8.59 41.78 8.52 41.86 8.45C41.89 8.43 41.9 8.40001 41.92 8.38001C41.97 8.33001 42.02 8.28 42.06 8.23C42.08 8.2 42.09 8.17001 42.11 8.14001C42.13 8.10001 42.16 8.05 42.18 8.01V8.00001C42.19 7.97001 42.19 7.93 42.2 7.9C42.21 7.85 42.22 7.81 42.22 7.76C42.2 7.44 41.99 7.12 41.57 6.87Z" fill="white"/>
<path d="M27.48 12.4L26.09 11.59L33.6 7.35001L34.99 8.16L27.48 12.4Z" fill="white"/>
<path d="M28.88 13.21L36.39 8.97L37.79 9.78L30.28 14.03L29.37 13.5L28.88 13.21Z" fill="white"/>
<path d="M39.18 10.59L40.05 11.09L40.58 11.4L33.07 15.65L31.67 14.84L39.18 10.59Z" fill="white"/>
</svg>
