<svg width="27" height="36" viewBox="0 0 27 36" fill="none" xmlns="http://www.w3.org/2000/svg">
<path d="M5.92001 15.15C5.93001 15 5.83999 14.85 5.64999 14.74C5.27999 14.53 4.69001 14.53 4.32001 14.74C4.14001 14.85 4.04999 14.99 4.04999 15.12V30.51C4.04999 30.65 4.13999 30.79 4.32999 30.9C4.69999 31.11 5.29 31.11 5.66 30.9C5.84 30.79 5.92999 30.66 5.92999 30.52V15.13C5.91999 15.14 5.92001 15.15 5.92001 15.15Z" fill="#CCCCCC"/>
<path d="M23.4 15.15C23.41 15 23.32 14.85 23.13 14.74C22.76 14.53 22.17 14.53 21.8 14.74C21.62 14.85 21.53 14.99 21.53 15.12V30.51C21.53 30.65 21.62 30.79 21.81 30.9C22.18 31.11 22.77 31.11 23.14 30.9C23.32 30.79 23.41 30.66 23.41 30.52V15.13C23.4 15.14 23.4 15.15 23.4 15.15Z" fill="#CCCCCC"/>
<path d="M14.81 19.93C14.82 19.78 14.73 19.63 14.54 19.52C14.17 19.31 13.58 19.31 13.21 19.52C13.03 19.63 12.94 19.77 12.94 19.9V35.29C12.94 35.43 13.03 35.57 13.22 35.68C13.59 35.89 14.18 35.89 14.55 35.68C14.73 35.57 14.82 35.44 14.82 35.3V19.91C14.81 19.91 14.81 19.92 14.81 19.93Z" fill="#CCCCCC"/>
<path d="M26.62 8.14C26.61 8.25 26.61 8.37 26.59 8.48C26.57 8.61 26.53 8.73 26.5 8.86C26.47 8.97 26.45 9.08 26.42 9.19C26.38 9.32 26.32 9.44 26.26 9.57C26.21 9.68 26.18 9.78 26.13 9.89C26.06 10.02 25.98 10.15 25.9 10.27C25.84 10.37 25.79 10.47 25.72 10.57C25.63 10.7 25.52 10.82 25.42 10.95C25.34 11.04 25.28 11.14 25.2 11.23C25.08 11.36 24.94 11.49 24.81 11.61C24.72 11.69 24.65 11.78 24.55 11.86C24.39 12 24.21 12.13 24.03 12.27C23.95 12.33 23.87 12.4 23.78 12.46C23.51 12.66 23.21 12.84 22.9 13.03C17.86 15.96 9.67 15.96 4.6 13.03C4.28 12.85 3.97999 12.66 3.70999 12.46C3.61999 12.39 3.54001 12.32 3.45001 12.25C3.28001 12.12 3.1 11.99 2.94 11.85C2.84 11.77 2.76001 11.68 2.67001 11.59C2.54001 11.46 2.4 11.34 2.28 11.21C2.2 11.12 2.12998 11.02 2.04998 10.92C1.94998 10.79 1.82999 10.67 1.73999 10.54C1.66999 10.44 1.61998 10.33 1.54998 10.23C1.46998 10.1 1.39 9.98 1.32 9.85C1.27 9.74 1.22999 9.63 1.17999 9.52C1.12999 9.39 1.05999 9.27 1.01999 9.14C0.979986 9.03 0.96 8.92 0.94 8.81C0.91 8.68 0.869993 8.55 0.839993 8.43C0.819993 8.32 0.819995 8.2 0.809995 8.09C0.799995 7.96 0.779996 7.84 0.779996 7.71C0.779996 7.7 0.779996 7.7 0.779996 7.69L0.749997 17.39C0.739997 19.32 2.02 21.26 4.57 22.73C9.63 25.65 17.83 25.65 22.87 22.73C25.37 21.28 26.62 19.37 26.63 17.47L26.66 7.76C26.65 7.9 26.63 8.02 26.62 8.14Z" fill="#A0A0A0"/>
<path d="M0.809998 8.11C0.819998 8.22 0.819996 8.34 0.839996 8.45C0.859996 8.58 0.900002 8.71 0.940002 8.83C0.970002 8.94 0.989989 9.05 1.01999 9.16C1.05999 9.29 1.12999 9.41 1.17999 9.54C1.22999 9.65 1.26001 9.76 1.32001 9.87C1.39001 10 1.46999 10.12 1.54999 10.25C1.60999 10.35 1.66999 10.46 1.73999 10.56C1.82999 10.69 1.93999 10.81 2.04999 10.94C2.12999 11.03 2.2 11.13 2.28 11.23C2.4 11.36 2.54001 11.48 2.67001 11.61C2.76001 11.7 2.84 11.79 2.94 11.87C3.1 12.01 3.27001 12.14 3.45001 12.27C3.54001 12.34 3.61999 12.41 3.70999 12.48C3.98999 12.68 4.29001 12.87 4.60001 13.05C9.66001 15.97 17.86 15.97 22.9 13.05C23.21 12.87 23.51 12.68 23.78 12.48C23.87 12.42 23.94 12.35 24.03 12.29C24.21 12.15 24.39 12.02 24.55 11.88C24.64 11.8 24.72 11.71 24.81 11.63C24.94 11.5 25.08 11.38 25.2 11.25C25.28 11.16 25.35 11.06 25.42 10.97C25.52 10.84 25.63 10.72 25.72 10.59C25.79 10.49 25.84 10.39 25.9 10.29C25.98 10.16 26.06 10.04 26.13 9.91C26.18 9.81 26.22 9.69999 26.26 9.58999C26.31 9.45999 26.38 9.34 26.42 9.21C26.46 9.1 26.47 8.99 26.5 8.88C26.53 8.75 26.57 8.63 26.59 8.5C26.61 8.39 26.61 8.27 26.62 8.16C26.79 6.11 25.54 4.03 22.83 2.47C17.76 -0.460001 9.57 -0.460001 4.53 2.47C2.02 3.93 0.769989 5.84 0.769989 7.75C0.779989 7.86 0.789998 7.98 0.809998 8.11Z" fill="#CCCCCC"/>
<path d="M6.67999 4.94C10.58 2.67 16.93 2.67 20.86 4.94C22.5 5.89 23.44 7.08 23.71 8.32C23.73 8.24 23.75 8.16 23.77 8.09C23.78 8 23.78 7.92 23.79 7.83C23.93 6.24 22.96 4.63 20.86 3.42C16.93 1.15 10.58 1.15 6.67999 3.42C4.73999 4.55 3.76999 6.03 3.76999 7.51C3.76999 7.61 3.79001 7.71 3.79001 7.81C3.80001 7.9 3.8 7.98 3.81 8.07C3.82 8.14 3.83999 8.21 3.85999 8.28C4.14999 7.04 5.07999 5.87 6.67999 4.94Z" fill="#A0A0A0"/>
<path d="M24.16 19.58L24.13 18.81L24.12 14.63C24.12 13.96 23.64 13.68 23.05 14.02C22.46 14.36 21.99 15.18 21.99 15.85L22.03 20.8C22.03 21.47 22.51 21.74 23.09 21.41C23.69 21.07 24.16 20.25 24.16 19.58Z" fill="#E0E0E0"/>
<path d="M21.02 5.04L20.27 4.63C16.56 2.8 11.1 2.78 7.37 4.58L13.89 8.33999L14.62 8.76L20.2 11.98C20.44 11.86 20.68 11.74 20.9 11.61C21.14 11.47 21.37 11.32 21.58 11.17C21.65 11.12 21.71 11.07 21.77 11.02C21.91 10.91 22.05 10.81 22.17 10.7C22.24 10.64 22.3 10.57 22.37 10.51C22.47 10.41 22.58 10.31 22.67 10.21C22.73 10.14 22.79 10.06 22.84 9.99C22.92 9.89 23.01 9.79 23.08 9.69C23.13 9.61 23.17 9.53 23.22 9.46C23.28 9.36 23.35 9.26 23.4 9.16C23.44 9.08 23.47 9 23.5 8.91C23.54 8.81 23.59 8.71 23.62 8.61C23.65 8.53 23.66 8.44 23.68 8.35C23.68 8.33 23.69 8.31 23.69 8.29C23.45 7.12 22.56 5.97 21.02 5.04Z" fill="#E0E0E0"/>
<path d="M13.89 8.34L7.37 4.58C7.13 4.69 6.89999 4.81 6.67999 4.94C6.64999 4.96 6.63001 4.97 6.60001 4.99L13.15 8.77L13.88 9.19L19.36 12.35C19.65 12.24 19.93 12.12 20.2 11.98L14.62 8.76L13.89 8.34Z" fill="#596177"/>
<path d="M20.86 4.94C20.67 4.83 20.47 4.73 20.27 4.63L21.02 5.04C20.97 5.01 20.92 4.97 20.86 4.94Z" fill="#596177"/>
<path d="M13.15 8.76L6.60001 4.98C5.04001 5.91 4.12999 7.06 3.85999 8.26C3.86999 8.29 3.88 8.32 3.88 8.35C3.9 8.44 3.92001 8.52 3.95001 8.61C3.98001 8.71 4.03001 8.81 4.07001 8.9C4.11001 8.98 4.13999 9.07 4.17999 9.15C4.22999 9.25 4.29999 9.35 4.35999 9.44C4.40999 9.52 4.45001 9.6 4.51001 9.68C4.58001 9.78 4.67 9.88 4.75 9.98C4.81 10.05 4.85999 10.13 4.92999 10.2C5.01999 10.3 5.13001 10.4 5.23001 10.49C5.30001 10.56 5.36 10.63 5.44 10.69C5.56 10.8 5.69999 10.9 5.82999 11C5.89999 11.05 5.96001 11.11 6.04001 11.16C6.26001 11.31 6.49001 11.46 6.73001 11.6C6.99001 11.75 7.25 11.89 7.53 12.01C7.81 12.14 8.09 12.26 8.38 12.37C11.72 13.62 16.05 13.61 19.36 12.33L13.88 9.17L13.15 8.76Z" fill="#E0E0E0"/>
</svg>
