<svg width="33" height="19" viewBox="0 0 33 19" fill="none" xmlns="http://www.w3.org/2000/svg">
<path d="M1.48999 15.68C0.419995 16.3 0.429989 17.31 1.49999 17.93C2.57999 18.55 4.31999 18.56 5.38999 17.93L15.12 12.28L11.22 10.03L1.48999 15.68ZM4.85999 17.36C4.19999 17.74 3.13998 17.74 2.47998 17.36C1.81998 16.98 1.80999 16.36 2.46999 15.98C3.11999 15.6 4.19 15.6 4.85 15.98C5.50999 16.36 5.50999 16.98 4.85999 17.36Z" fill="white"/>
<path d="M31.34 2.89C32.41 2.27 32.4 1.26 31.32 0.640003C30.24 0.0200031 28.51 0.0200031 27.44 0.640003L17.71 6.29L21.61 8.54L31.34 2.89ZM27.97 1.21001C28.62 0.83001 29.69 0.83001 30.34 1.21001C31 1.59001 31 2.21001 30.35 2.58001C29.69 2.96001 28.63 2.96001 27.97 2.58001C27.32 2.21001 27.31 1.59001 27.97 1.21001Z" fill="white"/>
<path d="M11.91 10.96L11.92 14.14L7.99998 11.9V8.72L11.91 10.96Z" fill="#D4AA00"/>
<path d="M14.29 9.59L22.64 4.75L22.66 4.77V7.92999L14.29 12.77V12.75V9.59Z" fill="#373C48"/>
<path d="M22.64 4.75L24.84 3.48L24.85 6.66L22.66 7.92999V4.77L22.64 4.75Z" fill="#FFE000"/>
<path d="M14.29 9.59V12.75V12.77L11.92 14.14L11.91 10.96L14.29 9.59Z" fill="#FFE000"/>
<path d="M14.29 9.59L11.91 10.96L7.99998 8.72L10.39 7.33L14.29 9.57001V9.59Z" fill="#FFF3C2"/>
<path d="M14.29 9.59V9.57001L10.39 7.33L18.73 2.50999L22.64 4.75L14.29 9.59Z" fill="#596177"/>
<path d="M18.73 2.50999L20.93 1.23L24.84 3.48L22.64 4.75L18.73 2.50999Z" fill="#FFF3C2"/>
</svg>
