<svg width="43" height="29" viewBox="0 0 43 29" fill="none" xmlns="http://www.w3.org/2000/svg">
<path d="M16.41 22.62L16.43 28.6L2.95001 20.76L2.92999 14.79L16.41 22.62Z" fill="#4E5463"/>
<path d="M40.72 8.56L40.74 14.53L16.43 28.6L16.41 22.62L40.72 8.56Z" fill="#373C48"/>
<path d="M2.92999 14.79L27.24 0.729996L40.72 8.56L16.41 22.62L2.92999 14.79Z" fill="#596177"/>
<path d="M9.94 4.63L7.60001 3.31L0.140015 7.64L2.42999 8.96001L9.94 4.63Z" fill="#CCCCCC"/>
<path d="M6.47 6.66L13.93 2.33L4.35999 7.84L2.42999 8.96001L6.47 6.66Z" fill="#676767"/>
<path d="M11.77 9.72V10.28L19.22 5.95V5.39L11.77 9.72Z" fill="#CCCCCC"/>
<path d="M11.77 9.72L19.22 5.39L13.93 2.33L6.47 6.66L11.77 9.72Z" fill="#A0A0A0"/>
<path d="M6.47 6.66L2.42999 8.96001L0.140015 7.64V8.2L2.62 9.64L6.67001 7.33L11.77 10.28V9.72L6.47 6.66Z" fill="#676767"/>
<path d="M16.38 19.46L16.39 21.47L4.98999 14.84L4.97 12.84L16.38 19.46Z" fill="#4E5463"/>
<path d="M38.62 6.62L38.63 8.63L16.39 21.47L16.38 19.46L38.62 6.62Z" fill="#373C48"/>
<path d="M4.97 12.84L27.21 0L38.62 6.62L16.38 19.46L4.97 12.84Z" fill="#596177"/>
<path d="M34.36 7.52C33.85 7.82 33.01 7.82 32.5 7.52L25.63 3.52999C25.12 3.22999 25.12 2.74999 25.64 2.44999C26.15 2.14999 26.99 2.14999 27.5 2.44999L30.93 4.44999L34.36 6.44999C34.88 6.73999 34.88 7.22 34.36 7.52Z" fill="#CCCCCC"/>
<path d="M17.99 16.97C17.48 17.27 16.64 17.27 16.13 16.97L9.26002 12.98C8.75002 12.68 8.75 12.2 9.27 11.9C9.79 11.6 10.62 11.6 11.13 11.9L14.56 13.9L17.99 15.9C18.51 16.19 18.5 16.67 17.99 16.97Z" fill="#CCCCCC"/>
<path d="M36.4348 15.3965L28.9742 19.7142L32.9964 26.6642L40.457 22.3465L36.4348 15.3965Z" fill="#CCCCCC"/>
<path d="M36.44 15.42L31.14 12.37L23.68 16.68L28.98 19.74L36.44 15.42Z" fill="#A0A0A0"/>
<path d="M35.28 28.02V28.57L42.74 24.26V23.7L35.28 28.02Z" fill="#CCCCCC"/>
<path d="M35.28 28.02L42.74 23.7L40.45 22.38L32.99 26.7L35.28 28.02Z" fill="#A0A0A0"/>
<path d="M32.99 26.7L28.98 19.74L23.68 16.68V17.24L28.78 20.18L32.79 27.14L35.28 28.57V28.02L32.99 26.7Z" fill="#676767"/>
</svg>
