<svg width="500" height="500" viewBox="0 0 500 500" fill="none" xmlns="http://www.w3.org/2000/svg">
<circle cx="250" cy="250" r="250" fill="black"/>
<path d="M345.177 338.59C334.955 329.701 326.473 336.368 323.51 340.812C323.51 332.849 318.733 310.479 299.621 284.701L147.399 76.3678L191.288 47.4789L342.399 254.701C361.955 282.257 352.399 322.109 345.177 338.59Z" fill="#126D03"/>
<rect x="230.732" y="34.2941" width="131.111" height="24.4444" transform="rotate(144.295 230.732 34.2941)" fill="#D6D6D6"/>
<path d="M160 156.667C170.222 165.556 178.704 158.889 181.667 154.444C181.667 162.407 186.444 184.778 205.556 210.556L357.778 418.889L313.889 447.778L162.778 240.556C143.222 213 152.778 173.148 160 156.667Z" fill="#126D03"/>
<rect x="274.444" y="460.963" width="131.111" height="24.4444" transform="rotate(-35.7051 274.444 460.963)" fill="#D6D6D6"/>
<path d="M247.796 408.333C175.574 408.333 175.574 377.037 175.574 362.222H142.24C140.907 417.778 213.537 425.741 250.018 422.778L247.796 408.333Z" fill="#126D03"/>
<path d="M257.222 86.6667C329.444 86.6667 329.444 117.963 329.444 132.778H362.778C364.111 77.2222 291.481 69.2592 255 72.2222L257.222 86.6667Z" fill="#126D03"/>
<circle cx="162.778" cy="337.222" r="36.1111" fill="#D6D6D6"/>
<circle cx="343.889" cy="158.333" r="36.1111" fill="#D6D6D6"/>
<circle cx="243.333" cy="81.1111" r="16.6667" fill="#D6D6D6"/>
<circle cx="243.333" cy="81.1111" r="11.1111" fill="black"/>
<circle cx="170" cy="146.667" r="16.6667" fill="#D6D6D6"/>
<circle cx="170" cy="146.667" r="11.1111" fill="black"/>
<circle cx="334.444" cy="348.889" r="16.6667" fill="#C4C4C4"/>
<circle cx="334.444" cy="348.889" r="11.1111" fill="black"/>
<circle cx="261.111" cy="412.222" r="16.6667" fill="#D6D6D6"/>
<circle cx="261.111" cy="412.222" r="11.1111" fill="black"/>
</svg>
